<?xml version="1.0" encoding="utf-8" standalone="no"?>
<!DOCTYPE svg PUBLIC "-//W3C//DTD SVG 1.1//EN"
  "http://www.w3.org/Graphics/SVG/1.1/DTD/svg11.dtd">
<svg xmlns:xlink="http://www.w3.org/1999/xlink" width="566.134297pt" height="350.437969pt" viewBox="0 0 566.134297 350.437969" xmlns="http://www.w3.org/2000/svg" version="1.1">
 <metadata>
  <rdf:RDF xmlns:dc="http://purl.org/dc/elements/1.1/" xmlns:cc="http://creativecommons.org/ns#" xmlns:rdf="http://www.w3.org/1999/02/22-rdf-syntax-ns#">
   <cc:Work>
    <dc:type rdf:resource="http://purl.org/dc/dcmitype/StillImage"/>
    <dc:date>2026-07-09T16:59:19.876481</dc:date>
    <dc:format>image/svg+xml</dc:format>
    <dc:creator>
     <cc:Agent>
      <dc:title>Matplotlib v3.11.0, https://matplotlib.org/</dc:title>
     </cc:Agent>
    </dc:creator>
   </cc:Work>
  </rdf:RDF>
 </metadata>
 <defs>
  <style type="text/css">*{stroke-linejoin: round; stroke-linecap: butt}</style>
 </defs>
 <g id="figure_1">
  <g id="patch_1">
   <path d="M 0 350.437969 
L 566.134297 350.437969 
L 566.134297 0 
L 0 0 
z
" style="fill: #ffffff"/>
  </g>
  <g id="axes_1">
   <g id="patch_2">
    <path d="M 46.694297 310.237969 
L 558.934297 310.237969 
L 558.934297 23.077969 
L 46.694297 23.077969 
z
" style="fill: #ffffff"/>
   </g>
   <g id="FillBetweenPolyCollection_1">
    <defs>
     <path id="m8921580f8f" d="M 69.977933 -53.252727 
L 69.977933 -53.252727 
L 70.911145 -53.252727 
L 71.844357 -53.252727 
L 72.777569 -53.252727 
L 73.710781 -53.252727 
L 74.643993 -53.252727 
L 75.577205 -53.252727 
L 76.510416 -53.252727 
L 77.443628 -53.252727 
L 78.37684 -53.252727 
L 79.310052 -53.252727 
L 80.243264 -53.252727 
L 81.176476 -53.252727 
L 82.109688 -53.252727 
L 83.0429 -53.252727 
L 83.976111 -53.252727 
L 84.909323 -53.252727 
L 85.842535 -53.252727 
L 86.775747 -53.252727 
L 87.708959 -53.252727 
L 88.642171 -53.252727 
L 89.575383 -53.252727 
L 90.508595 -53.252727 
L 91.441806 -53.252727 
L 92.375018 -53.252727 
L 93.30823 -53.252727 
L 94.241442 -53.252727 
L 95.174654 -53.252727 
L 96.107866 -53.252727 
L 97.041078 -53.252727 
L 97.97429 -53.252727 
L 98.907501 -53.252727 
L 99.840713 -53.252727 
L 100.773925 -53.252727 
L 101.707137 -53.252727 
L 102.640349 -53.252727 
L 103.573561 -53.252727 
L 104.506773 -53.252727 
L 105.439985 -53.252727 
L 106.373196 -53.252727 
L 107.306408 -53.252727 
L 108.23962 -53.252727 
L 109.172832 -53.252727 
L 110.106044 -53.252727 
L 111.039256 -53.252727 
L 111.972468 -53.252727 
L 112.90568 -53.252727 
L 113.838892 -53.252727 
L 114.772103 -53.252727 
L 115.705315 -53.252727 
L 116.638527 -53.252727 
L 117.571739 -53.252727 
L 118.504951 -53.252727 
L 119.438163 -53.252727 
L 120.371375 -53.252727 
L 121.304587 -53.252727 
L 122.237798 -53.252727 
L 123.17101 -53.252727 
L 124.104222 -53.252727 
L 125.037434 -53.252727 
L 125.970646 -53.252727 
L 126.903858 -53.252727 
L 127.83707 -53.252727 
L 128.770282 -53.252727 
L 129.703493 -53.252727 
L 130.636705 -53.252727 
L 131.569917 -53.252727 
L 132.503129 -53.252727 
L 133.436341 -53.252727 
L 134.369553 -53.252727 
L 135.302765 -53.252727 
L 136.235977 -53.252727 
L 137.169188 -53.252727 
L 138.1024 -53.252727 
L 139.035612 -53.252727 
L 139.968824 -53.252727 
L 140.902036 -53.252727 
L 141.835248 -53.252727 
L 142.76846 -53.252727 
L 143.701672 -53.252727 
L 144.634884 -53.252727 
L 145.568095 -53.252727 
L 146.501307 -53.252727 
L 147.434519 -53.252727 
L 148.367731 -53.252727 
L 149.300943 -53.252727 
L 150.234155 -53.252727 
L 151.167367 -53.252727 
L 152.100579 -53.252727 
L 153.03379 -53.252727 
L 153.967002 -53.252727 
L 154.900214 -53.252727 
L 155.833426 -53.252727 
L 156.766638 -53.252727 
L 157.69985 -53.252727 
L 158.633062 -53.252727 
L 159.566274 -53.252727 
L 160.499485 -53.252727 
L 161.432697 -53.252727 
L 162.365909 -53.252727 
L 163.299121 -53.252727 
L 164.232333 -53.252727 
L 165.165545 -53.252727 
L 166.098757 -53.252727 
L 167.031969 -53.252727 
L 167.96518 -53.252727 
L 168.898392 -53.252727 
L 169.831604 -53.252727 
L 170.764816 -53.252727 
L 171.698028 -53.252727 
L 172.63124 -53.252727 
L 173.564452 -53.252727 
L 174.497664 -53.252727 
L 175.430875 -53.252727 
L 176.364087 -53.252727 
L 177.297299 -53.252727 
L 178.230511 -53.252727 
L 179.163723 -53.252727 
L 180.096935 -53.252727 
L 181.030147 -53.252727 
L 181.963359 -53.252727 
L 182.896571 -53.252727 
L 183.829782 -53.252727 
L 184.762994 -53.252727 
L 185.696206 -53.252727 
L 186.629418 -53.252727 
L 187.56263 -53.252727 
L 188.495842 -53.252727 
L 189.429054 -53.252727 
L 190.362266 -53.252727 
L 191.295477 -53.252727 
L 192.228689 -53.252727 
L 193.161901 -53.252727 
L 194.095113 -53.252727 
L 195.028325 -53.252727 
L 195.961537 -53.252727 
L 196.894749 -53.252727 
L 197.827961 -53.252727 
L 198.761172 -53.252727 
L 199.694384 -53.252727 
L 200.627596 -53.252727 
L 201.560808 -53.252727 
L 202.49402 -53.252727 
L 203.427232 -53.252727 
L 204.360444 -53.252727 
L 205.293656 -53.252727 
L 206.226867 -53.252727 
L 207.160079 -53.252727 
L 208.093291 -53.252727 
L 209.026503 -53.252727 
L 209.959715 -53.252727 
L 210.892927 -53.252727 
L 211.826139 -53.252727 
L 212.759351 -53.252727 
L 213.692562 -53.252727 
L 214.625774 -53.252727 
L 215.558986 -53.252727 
L 216.492198 -53.252727 
L 217.42541 -53.252727 
L 218.358622 -53.252727 
L 219.291834 -53.252727 
L 220.225046 -53.252727 
L 221.158258 -53.252727 
L 222.091469 -53.252727 
L 223.024681 -53.252727 
L 223.957893 -53.252727 
L 224.891105 -53.252727 
L 225.824317 -53.252727 
L 226.757529 -53.252727 
L 227.690741 -53.252727 
L 228.623953 -53.252727 
L 229.557164 -53.252727 
L 230.490376 -53.252727 
L 231.423588 -53.252727 
L 232.3568 -53.252727 
L 233.290012 -53.252727 
L 234.223224 -53.252727 
L 235.156436 -53.252727 
L 236.089648 -53.252727 
L 237.022859 -53.252727 
L 237.956071 -53.252727 
L 238.889283 -53.252727 
L 239.822495 -53.252727 
L 240.755707 -53.252727 
L 241.688919 -53.252727 
L 242.622131 -53.252727 
L 243.555343 -53.252727 
L 244.488554 -53.252727 
L 245.421766 -53.252727 
L 246.354978 -53.252727 
L 247.28819 -53.252727 
L 248.221402 -53.252727 
L 249.154614 -53.252727 
L 250.087826 -53.252727 
L 251.021038 -53.252727 
L 251.95425 -53.252727 
L 252.887461 -53.252727 
L 253.820673 -53.252727 
L 254.753885 -53.252727 
L 255.687097 -53.252727 
L 256.620309 -53.252727 
L 257.553521 -53.252727 
L 258.486733 -53.252727 
L 259.419945 -53.252727 
L 260.353156 -53.252727 
L 261.286368 -53.252727 
L 262.21958 -53.252727 
L 263.152792 -53.252727 
L 264.086004 -53.252727 
L 265.019216 -53.252727 
L 265.952428 -53.252727 
L 266.88564 -53.252727 
L 267.818851 -53.252727 
L 268.752063 -53.252727 
L 269.685275 -53.252727 
L 270.618487 -53.252727 
L 271.551699 -53.252727 
L 272.484911 -53.252727 
L 273.418123 -53.252727 
L 274.351335 -53.252727 
L 275.284546 -53.252727 
L 276.217758 -53.252727 
L 277.15097 -53.252727 
L 278.084182 -53.252727 
L 279.017394 -53.252727 
L 279.950606 -53.252727 
L 280.883818 -53.252727 
L 281.81703 -53.252727 
L 282.750241 -53.252727 
L 283.683453 -53.252727 
L 284.616665 -53.252727 
L 285.549877 -53.252727 
L 286.483089 -53.252727 
L 287.416301 -53.252727 
L 288.349513 -53.252727 
L 289.282725 -53.252727 
L 290.215937 -53.252727 
L 291.149148 -53.252727 
L 292.08236 -53.252727 
L 293.015572 -53.252727 
L 293.948784 -53.252727 
L 294.881996 -53.252727 
L 295.815208 -53.252727 
L 296.74842 -53.252727 
L 297.681632 -53.252727 
L 298.614843 -53.252727 
L 299.548055 -53.252727 
L 300.481267 -53.252727 
L 301.414479 -53.252727 
L 302.347691 -53.252727 
L 303.280903 -55.868504 
L 304.214115 -61.100058 
L 305.147327 -66.331612 
L 306.080538 -71.563166 
L 307.01375 -76.79472 
L 307.946962 -82.026274 
L 308.880174 -87.257828 
L 309.813386 -92.489382 
L 310.746598 -97.720936 
L 311.67981 -102.95249 
L 312.613022 -108.184044 
L 313.546233 -113.415598 
L 314.479445 -118.647152 
L 315.412657 -123.878707 
L 316.345869 -129.110261 
L 317.279081 -134.341815 
L 318.212293 -139.573369 
L 319.145505 -144.804923 
L 320.078717 -150.036477 
L 321.011929 -155.268031 
L 321.94514 -160.499585 
L 322.878352 -165.731139 
L 323.811564 -170.962693 
L 324.744776 -176.194247 
L 325.677988 -181.425801 
L 326.6112 -186.657355 
L 327.544412 -191.888909 
L 328.477624 -197.120463 
L 329.410835 -202.352017 
L 330.344047 -207.583571 
L 331.277259 -212.815125 
L 332.210471 -218.046679 
L 333.143683 -223.278233 
L 334.076895 -228.509787 
L 335.010107 -233.741341 
L 335.943319 -238.972895 
L 336.87653 -244.204449 
L 337.809742 -249.436003 
L 338.742954 -254.667557 
L 339.676166 -255.550572 
L 340.609378 -253.107621 
L 341.54259 -250.637577 
L 342.475802 -248.142146 
L 343.409014 -245.623036 
L 344.342225 -243.081958 
L 345.275437 -240.52062 
L 346.208649 -237.940727 
L 347.141861 -235.343981 
L 348.075073 -232.732073 
L 349.008285 -230.106687 
L 349.941497 -227.469497 
L 350.874709 -224.822162 
L 351.80792 -222.166329 
L 352.741132 -219.503627 
L 353.674344 -216.835667 
L 354.607556 -214.164043 
L 355.540768 -211.490324 
L 356.47398 -208.816059 
L 357.407192 -206.142773 
L 358.340404 -203.471966 
L 359.273616 -200.805109 
L 360.206827 -198.143648 
L 361.140039 -195.488996 
L 362.073251 -192.842539 
L 363.006463 -190.205631 
L 363.939675 -187.579592 
L 364.872887 -184.96571 
L 365.806099 -182.365238 
L 366.739311 -179.779395 
L 367.672522 -177.209362 
L 368.605734 -174.656285 
L 369.538946 -172.121273 
L 370.472158 -169.605396 
L 371.40537 -167.109688 
L 372.338582 -164.635143 
L 373.271794 -162.182715 
L 374.205006 -159.753321 
L 375.138217 -157.347836 
L 376.071429 -154.967099 
L 377.004641 -152.611905 
L 377.937853 -150.283013 
L 378.871065 -147.981139 
L 379.804277 -143.758612 
L 380.737489 -138.527058 
L 381.670701 -133.295504 
L 382.603912 -128.06395 
L 383.537124 -122.832396 
L 384.470336 -117.600842 
L 385.403548 -112.369288 
L 386.33676 -107.137734 
L 387.269972 -101.90618 
L 388.203184 -96.674626 
L 389.136396 -91.443072 
L 390.069607 -86.211518 
L 391.002819 -80.979964 
L 391.936031 -75.74841 
L 392.869243 -70.516856 
L 393.802455 -65.285302 
L 394.735667 -60.053747 
L 395.668879 -54.822193 
L 396.602091 -53.252727 
L 397.535303 -53.252727 
L 398.468514 -53.252727 
L 399.401726 -53.252727 
L 400.334938 -53.252727 
L 401.26815 -53.252727 
L 402.201362 -53.252727 
L 403.134574 -53.252727 
L 404.067786 -53.252727 
L 405.000998 -53.252727 
L 405.934209 -53.252727 
L 406.867421 -53.252727 
L 407.800633 -53.252727 
L 408.733845 -53.252727 
L 409.667057 -53.252727 
L 410.600269 -53.252727 
L 411.533481 -53.252727 
L 412.466693 -53.252727 
L 413.399904 -53.252727 
L 414.333116 -53.252727 
L 415.266328 -53.252727 
L 416.19954 -53.252727 
L 417.132752 -53.252727 
L 418.065964 -53.252727 
L 418.999176 -53.252727 
L 419.932388 -53.252727 
L 420.865599 -53.252727 
L 421.798811 -53.252727 
L 422.732023 -53.252727 
L 423.665235 -53.252727 
L 424.598447 -53.252727 
L 425.531659 -53.252727 
L 426.464871 -53.252727 
L 427.398083 -53.252727 
L 428.331295 -53.252727 
L 429.264506 -53.252727 
L 430.197718 -53.252727 
L 431.13093 -53.252727 
L 432.064142 -53.252727 
L 432.997354 -53.252727 
L 433.930566 -53.252727 
L 434.863778 -53.252727 
L 435.79699 -53.252727 
L 436.730201 -53.252727 
L 437.663413 -53.252727 
L 438.596625 -53.252727 
L 439.529837 -53.252727 
L 440.463049 -53.252727 
L 441.396261 -53.252727 
L 442.329473 -53.252727 
L 443.262685 -53.252727 
L 444.195896 -53.252727 
L 445.129108 -53.252727 
L 446.06232 -53.252727 
L 446.995532 -53.252727 
L 447.928744 -53.252727 
L 448.861956 -53.252727 
L 449.795168 -53.252727 
L 450.72838 -53.252727 
L 451.661591 -53.252727 
L 452.594803 -53.252727 
L 453.528015 -53.252727 
L 454.461227 -53.252727 
L 455.394439 -53.252727 
L 456.327651 -53.252727 
L 457.260863 -53.252727 
L 458.194075 -53.252727 
L 459.127286 -53.252727 
L 460.060498 -53.252727 
L 460.99371 -53.252727 
L 461.926922 -53.252727 
L 462.860134 -53.252727 
L 463.793346 -53.252727 
L 464.726558 -53.252727 
L 465.65977 -53.252727 
L 466.592982 -53.252727 
L 467.526193 -53.252727 
L 468.459405 -53.252727 
L 469.392617 -53.252727 
L 470.325829 -53.252727 
L 471.259041 -53.252727 
L 472.192253 -53.252727 
L 473.125465 -53.252727 
L 474.058677 -53.252727 
L 474.991888 -53.252727 
L 475.9251 -53.252727 
L 476.858312 -53.252727 
L 477.791524 -53.252727 
L 478.724736 -53.252727 
L 479.657948 -53.252727 
L 480.59116 -53.252727 
L 481.524372 -53.252727 
L 482.457583 -53.252727 
L 483.390795 -53.252727 
L 484.324007 -53.252727 
L 485.257219 -53.252727 
L 486.190431 -53.252727 
L 487.123643 -53.252727 
L 488.056855 -53.252727 
L 488.990067 -53.252727 
L 489.923278 -53.252727 
L 490.85649 -53.252727 
L 491.789702 -53.252727 
L 492.722914 -53.252727 
L 493.656126 -53.252727 
L 494.589338 -53.252727 
L 495.52255 -53.252727 
L 496.455762 -53.252727 
L 497.388974 -53.252727 
L 498.322185 -53.252727 
L 499.255397 -53.252727 
L 500.188609 -53.252727 
L 501.121821 -53.252727 
L 502.055033 -53.252727 
L 502.988245 -53.252727 
L 503.921457 -53.252727 
L 504.854669 -53.252727 
L 505.78788 -53.252727 
L 506.721092 -53.252727 
L 507.654304 -53.252727 
L 508.587516 -53.252727 
L 509.520728 -53.252727 
L 510.45394 -53.252727 
L 511.387152 -53.252727 
L 512.320364 -53.252727 
L 513.253575 -53.252727 
L 514.186787 -53.252727 
L 515.119999 -53.252727 
L 516.053211 -53.252727 
L 516.986423 -53.252727 
L 517.919635 -53.252727 
L 518.852847 -53.252727 
L 519.786059 -53.252727 
L 520.71927 -53.252727 
L 521.652482 -53.252727 
L 522.585694 -53.252727 
L 523.518906 -53.252727 
L 524.452118 -53.252727 
L 525.38533 -53.252727 
L 526.318542 -53.252727 
L 527.251754 -53.252727 
L 528.184965 -53.252727 
L 529.118177 -53.252727 
L 530.051389 -53.252727 
L 530.984601 -53.252727 
L 531.917813 -53.252727 
L 532.851025 -53.252727 
L 533.784237 -53.252727 
L 534.717449 -53.252727 
L 535.650661 -53.252727 
L 535.650661 -53.252727 
L 535.650661 -53.252727 
L 534.717449 -53.252727 
L 533.784237 -53.252727 
L 532.851025 -53.252727 
L 531.917813 -53.252727 
L 530.984601 -53.252727 
L 530.051389 -53.252727 
L 529.118177 -53.252727 
L 528.184965 -53.252727 
L 527.251754 -53.252727 
L 526.318542 -53.252727 
L 525.38533 -53.252727 
L 524.452118 -53.252727 
L 523.518906 -53.252727 
L 522.585694 -53.252727 
L 521.652482 -53.252727 
L 520.71927 -53.252727 
L 519.786059 -53.252727 
L 518.852847 -53.252727 
L 517.919635 -53.252727 
L 516.986423 -53.252727 
L 516.053211 -53.252727 
L 515.119999 -53.252727 
L 514.186787 -53.252727 
L 513.253575 -53.252727 
L 512.320364 -53.252727 
L 511.387152 -53.252727 
L 510.45394 -53.252727 
L 509.520728 -53.252727 
L 508.587516 -53.252727 
L 507.654304 -53.252727 
L 506.721092 -53.252727 
L 505.78788 -53.252727 
L 504.854669 -53.252727 
L 503.921457 -53.252727 
L 502.988245 -53.252727 
L 502.055033 -53.252727 
L 501.121821 -53.252727 
L 500.188609 -53.252727 
L 499.255397 -53.252727 
L 498.322185 -53.252727 
L 497.388974 -53.252727 
L 496.455762 -53.252727 
L 495.52255 -53.252727 
L 494.589338 -53.252727 
L 493.656126 -53.252727 
L 492.722914 -53.252727 
L 491.789702 -53.252727 
L 490.85649 -53.252727 
L 489.923278 -53.252727 
L 488.990067 -53.252727 
L 488.056855 -53.252727 
L 487.123643 -53.252727 
L 486.190431 -53.252727 
L 485.257219 -53.252727 
L 484.324007 -53.252727 
L 483.390795 -53.252727 
L 482.457583 -53.252727 
L 481.524372 -53.252727 
L 480.59116 -53.252727 
L 479.657948 -53.252727 
L 478.724736 -53.252727 
L 477.791524 -53.252727 
L 476.858312 -53.252727 
L 475.9251 -53.252727 
L 474.991888 -53.252727 
L 474.058677 -53.252727 
L 473.125465 -53.252727 
L 472.192253 -53.252727 
L 471.259041 -53.252727 
L 470.325829 -53.252727 
L 469.392617 -53.252727 
L 468.459405 -53.252727 
L 467.526193 -53.252727 
L 466.592982 -53.252727 
L 465.65977 -53.252727 
L 464.726558 -53.252727 
L 463.793346 -53.252727 
L 462.860134 -53.252727 
L 461.926922 -53.252727 
L 460.99371 -53.252727 
L 460.060498 -53.252727 
L 459.127286 -53.252727 
L 458.194075 -53.252727 
L 457.260863 -53.252727 
L 456.327651 -53.252727 
L 455.394439 -53.252727 
L 454.461227 -53.252727 
L 453.528015 -53.252727 
L 452.594803 -53.252727 
L 451.661591 -53.252727 
L 450.72838 -53.252727 
L 449.795168 -53.252727 
L 448.861956 -53.252727 
L 447.928744 -53.252727 
L 446.995532 -53.252727 
L 446.06232 -53.252727 
L 445.129108 -53.252727 
L 444.195896 -53.252727 
L 443.262685 -53.252727 
L 442.329473 -53.252727 
L 441.396261 -53.252727 
L 440.463049 -53.252727 
L 439.529837 -53.252727 
L 438.596625 -53.252727 
L 437.663413 -53.252727 
L 436.730201 -53.252727 
L 435.79699 -53.252727 
L 434.863778 -53.252727 
L 433.930566 -53.252727 
L 432.997354 -53.252727 
L 432.064142 -53.252727 
L 431.13093 -53.252727 
L 430.197718 -53.252727 
L 429.264506 -53.252727 
L 428.331295 -53.252727 
L 427.398083 -53.252727 
L 426.464871 -53.252727 
L 425.531659 -53.252727 
L 424.598447 -53.252727 
L 423.665235 -53.252727 
L 422.732023 -53.252727 
L 421.798811 -53.252727 
L 420.865599 -53.252727 
L 419.932388 -53.252727 
L 418.999176 -53.252727 
L 418.065964 -53.252727 
L 417.132752 -53.252727 
L 416.19954 -53.252727 
L 415.266328 -53.252727 
L 414.333116 -53.252727 
L 413.399904 -53.252727 
L 412.466693 -53.252727 
L 411.533481 -53.252727 
L 410.600269 -53.252727 
L 409.667057 -53.252727 
L 408.733845 -53.252727 
L 407.800633 -53.252727 
L 406.867421 -53.252727 
L 405.934209 -53.252727 
L 405.000998 -53.252727 
L 404.067786 -53.252727 
L 403.134574 -53.252727 
L 402.201362 -53.252727 
L 401.26815 -53.252727 
L 400.334938 -53.252727 
L 399.401726 -53.252727 
L 398.468514 -53.252727 
L 397.535303 -53.252727 
L 396.602091 -53.252727 
L 395.668879 -53.252727 
L 394.735667 -53.252727 
L 393.802455 -53.252727 
L 392.869243 -53.252727 
L 391.936031 -53.252727 
L 391.002819 -53.252727 
L 390.069607 -53.252727 
L 389.136396 -53.252727 
L 388.203184 -53.252727 
L 387.269972 -53.252727 
L 386.33676 -53.252727 
L 385.403548 -53.252727 
L 384.470336 -53.252727 
L 383.537124 -53.252727 
L 382.603912 -53.252727 
L 381.670701 -53.252727 
L 380.737489 -53.252727 
L 379.804277 -53.252727 
L 378.871065 -53.252727 
L 377.937853 -53.252727 
L 377.004641 -53.252727 
L 376.071429 -53.252727 
L 375.138217 -53.252727 
L 374.205006 -53.252727 
L 373.271794 -53.252727 
L 372.338582 -53.252727 
L 371.40537 -53.252727 
L 370.472158 -53.252727 
L 369.538946 -53.252727 
L 368.605734 -53.252727 
L 367.672522 -53.252727 
L 366.739311 -53.252727 
L 365.806099 -53.252727 
L 364.872887 -53.252727 
L 363.939675 -53.252727 
L 363.006463 -53.252727 
L 362.073251 -53.252727 
L 361.140039 -53.252727 
L 360.206827 -53.252727 
L 359.273616 -53.252727 
L 358.340404 -53.252727 
L 357.407192 -53.252727 
L 356.47398 -53.252727 
L 355.540768 -53.252727 
L 354.607556 -53.252727 
L 353.674344 -53.252727 
L 352.741132 -53.252727 
L 351.80792 -53.252727 
L 350.874709 -53.252727 
L 349.941497 -53.252727 
L 349.008285 -53.252727 
L 348.075073 -53.252727 
L 347.141861 -53.252727 
L 346.208649 -53.252727 
L 345.275437 -53.252727 
L 344.342225 -53.252727 
L 343.409014 -53.252727 
L 342.475802 -53.252727 
L 341.54259 -53.252727 
L 340.609378 -53.252727 
L 339.676166 -53.252727 
L 338.742954 -53.252727 
L 337.809742 -53.252727 
L 336.87653 -53.252727 
L 335.943319 -53.252727 
L 335.010107 -53.252727 
L 334.076895 -53.252727 
L 333.143683 -53.252727 
L 332.210471 -53.252727 
L 331.277259 -53.252727 
L 330.344047 -53.252727 
L 329.410835 -53.252727 
L 328.477624 -53.252727 
L 327.544412 -53.252727 
L 326.6112 -53.252727 
L 325.677988 -53.252727 
L 324.744776 -53.252727 
L 323.811564 -53.252727 
L 322.878352 -53.252727 
L 321.94514 -53.252727 
L 321.011929 -53.252727 
L 320.078717 -53.252727 
L 319.145505 -53.252727 
L 318.212293 -53.252727 
L 317.279081 -53.252727 
L 316.345869 -53.252727 
L 315.412657 -53.252727 
L 314.479445 -53.252727 
L 313.546233 -53.252727 
L 312.613022 -53.252727 
L 311.67981 -53.252727 
L 310.746598 -53.252727 
L 309.813386 -53.252727 
L 308.880174 -53.252727 
L 307.946962 -53.252727 
L 307.01375 -53.252727 
L 306.080538 -53.252727 
L 305.147327 -53.252727 
L 304.214115 -53.252727 
L 303.280903 -53.252727 
L 302.347691 -53.252727 
L 301.414479 -53.252727 
L 300.481267 -53.252727 
L 299.548055 -53.252727 
L 298.614843 -53.252727 
L 297.681632 -53.252727 
L 296.74842 -53.252727 
L 295.815208 -53.252727 
L 294.881996 -53.252727 
L 293.948784 -53.252727 
L 293.015572 -53.252727 
L 292.08236 -53.252727 
L 291.149148 -53.252727 
L 290.215937 -53.252727 
L 289.282725 -53.252727 
L 288.349513 -53.252727 
L 287.416301 -53.252727 
L 286.483089 -53.252727 
L 285.549877 -53.252727 
L 284.616665 -53.252727 
L 283.683453 -53.252727 
L 282.750241 -53.252727 
L 281.81703 -53.252727 
L 280.883818 -53.252727 
L 279.950606 -53.252727 
L 279.017394 -53.252727 
L 278.084182 -53.252727 
L 277.15097 -53.252727 
L 276.217758 -53.252727 
L 275.284546 -53.252727 
L 274.351335 -53.252727 
L 273.418123 -53.252727 
L 272.484911 -53.252727 
L 271.551699 -53.252727 
L 270.618487 -53.252727 
L 269.685275 -53.252727 
L 268.752063 -53.252727 
L 267.818851 -53.252727 
L 266.88564 -53.252727 
L 265.952428 -53.252727 
L 265.019216 -53.252727 
L 264.086004 -53.252727 
L 263.152792 -53.252727 
L 262.21958 -53.252727 
L 261.286368 -53.252727 
L 260.353156 -53.252727 
L 259.419945 -53.252727 
L 258.486733 -53.252727 
L 257.553521 -53.252727 
L 256.620309 -53.252727 
L 255.687097 -53.252727 
L 254.753885 -53.252727 
L 253.820673 -53.252727 
L 252.887461 -53.252727 
L 251.95425 -53.252727 
L 251.021038 -53.252727 
L 250.087826 -53.252727 
L 249.154614 -53.252727 
L 248.221402 -53.252727 
L 247.28819 -53.252727 
L 246.354978 -53.252727 
L 245.421766 -53.252727 
L 244.488554 -53.252727 
L 243.555343 -53.252727 
L 242.622131 -53.252727 
L 241.688919 -53.252727 
L 240.755707 -53.252727 
L 239.822495 -53.252727 
L 238.889283 -53.252727 
L 237.956071 -53.252727 
L 237.022859 -53.252727 
L 236.089648 -53.252727 
L 235.156436 -53.252727 
L 234.223224 -53.252727 
L 233.290012 -53.252727 
L 232.3568 -53.252727 
L 231.423588 -53.252727 
L 230.490376 -53.252727 
L 229.557164 -53.252727 
L 228.623953 -53.252727 
L 227.690741 -53.252727 
L 226.757529 -53.252727 
L 225.824317 -53.252727 
L 224.891105 -53.252727 
L 223.957893 -53.252727 
L 223.024681 -53.252727 
L 222.091469 -53.252727 
L 221.158258 -53.252727 
L 220.225046 -53.252727 
L 219.291834 -53.252727 
L 218.358622 -53.252727 
L 217.42541 -53.252727 
L 216.492198 -53.252727 
L 215.558986 -53.252727 
L 214.625774 -53.252727 
L 213.692562 -53.252727 
L 212.759351 -53.252727 
L 211.826139 -53.252727 
L 210.892927 -53.252727 
L 209.959715 -53.252727 
L 209.026503 -53.252727 
L 208.093291 -53.252727 
L 207.160079 -53.252727 
L 206.226867 -53.252727 
L 205.293656 -53.252727 
L 204.360444 -53.252727 
L 203.427232 -53.252727 
L 202.49402 -53.252727 
L 201.560808 -53.252727 
L 200.627596 -53.252727 
L 199.694384 -53.252727 
L 198.761172 -53.252727 
L 197.827961 -53.252727 
L 196.894749 -53.252727 
L 195.961537 -53.252727 
L 195.028325 -53.252727 
L 194.095113 -53.252727 
L 193.161901 -53.252727 
L 192.228689 -53.252727 
L 191.295477 -53.252727 
L 190.362266 -53.252727 
L 189.429054 -53.252727 
L 188.495842 -53.252727 
L 187.56263 -53.252727 
L 186.629418 -53.252727 
L 185.696206 -53.252727 
L 184.762994 -53.252727 
L 183.829782 -53.252727 
L 182.896571 -53.252727 
L 181.963359 -53.252727 
L 181.030147 -53.252727 
L 180.096935 -53.252727 
L 179.163723 -53.252727 
L 178.230511 -53.252727 
L 177.297299 -53.252727 
L 176.364087 -53.252727 
L 175.430875 -53.252727 
L 174.497664 -53.252727 
L 173.564452 -53.252727 
L 172.63124 -53.252727 
L 171.698028 -53.252727 
L 170.764816 -53.252727 
L 169.831604 -53.252727 
L 168.898392 -53.252727 
L 167.96518 -53.252727 
L 167.031969 -53.252727 
L 166.098757 -53.252727 
L 165.165545 -53.252727 
L 164.232333 -53.252727 
L 163.299121 -53.252727 
L 162.365909 -53.252727 
L 161.432697 -53.252727 
L 160.499485 -53.252727 
L 159.566274 -53.252727 
L 158.633062 -53.252727 
L 157.69985 -53.252727 
L 156.766638 -53.252727 
L 155.833426 -53.252727 
L 154.900214 -53.252727 
L 153.967002 -53.252727 
L 153.03379 -53.252727 
L 152.100579 -53.252727 
L 151.167367 -53.252727 
L 150.234155 -53.252727 
L 149.300943 -53.252727 
L 148.367731 -53.252727 
L 147.434519 -53.252727 
L 146.501307 -53.252727 
L 145.568095 -53.252727 
L 144.634884 -53.252727 
L 143.701672 -53.252727 
L 142.76846 -53.252727 
L 141.835248 -53.252727 
L 140.902036 -53.252727 
L 139.968824 -53.252727 
L 139.035612 -53.252727 
L 138.1024 -53.252727 
L 137.169188 -53.252727 
L 136.235977 -53.252727 
L 135.302765 -53.252727 
L 134.369553 -53.252727 
L 133.436341 -53.252727 
L 132.503129 -53.252727 
L 131.569917 -53.252727 
L 130.636705 -53.252727 
L 129.703493 -53.252727 
L 128.770282 -53.252727 
L 127.83707 -53.252727 
L 126.903858 -53.252727 
L 125.970646 -53.252727 
L 125.037434 -53.252727 
L 124.104222 -53.252727 
L 123.17101 -53.252727 
L 122.237798 -53.252727 
L 121.304587 -53.252727 
L 120.371375 -53.252727 
L 119.438163 -53.252727 
L 118.504951 -53.252727 
L 117.571739 -53.252727 
L 116.638527 -53.252727 
L 115.705315 -53.252727 
L 114.772103 -53.252727 
L 113.838892 -53.252727 
L 112.90568 -53.252727 
L 111.972468 -53.252727 
L 111.039256 -53.252727 
L 110.106044 -53.252727 
L 109.172832 -53.252727 
L 108.23962 -53.252727 
L 107.306408 -53.252727 
L 106.373196 -53.252727 
L 105.439985 -53.252727 
L 104.506773 -53.252727 
L 103.573561 -53.252727 
L 102.640349 -53.252727 
L 101.707137 -53.252727 
L 100.773925 -53.252727 
L 99.840713 -53.252727 
L 98.907501 -53.252727 
L 97.97429 -53.252727 
L 97.041078 -53.252727 
L 96.107866 -53.252727 
L 95.174654 -53.252727 
L 94.241442 -53.252727 
L 93.30823 -53.252727 
L 92.375018 -53.252727 
L 91.441806 -53.252727 
L 90.508595 -53.252727 
L 89.575383 -53.252727 
L 88.642171 -53.252727 
L 87.708959 -53.252727 
L 86.775747 -53.252727 
L 85.842535 -53.252727 
L 84.909323 -53.252727 
L 83.976111 -53.252727 
L 83.0429 -53.252727 
L 82.109688 -53.252727 
L 81.176476 -53.252727 
L 80.243264 -53.252727 
L 79.310052 -53.252727 
L 78.37684 -53.252727 
L 77.443628 -53.252727 
L 76.510416 -53.252727 
L 75.577205 -53.252727 
L 74.643993 -53.252727 
L 73.710781 -53.252727 
L 72.777569 -53.252727 
L 71.844357 -53.252727 
L 70.911145 -53.252727 
L 69.977933 -53.252727 
z
" style="stroke: #ff7f0e; stroke-opacity: 0.2"/>
    </defs>
    <g clip-path="url(#p938631b6a7)">
     <use xlink:href="#m8921580f8f" x="0" y="350.437969" style="fill: #ff7f0e; fill-opacity: 0.2; stroke: #ff7f0e; stroke-opacity: 0.2"/>
    </g>
   </g>
   <g id="matplotlib.axis_1">
    <g id="xtick_1">
     <g id="line2d_1">
      <path d="M 69.977933 310.237969 
L 69.977933 23.077969 
" clip-path="url(#p938631b6a7)" style="fill: none; stroke: #b0b0b0; stroke-opacity: 0.3; stroke-width: 0.8; stroke-linecap: square"/>
     </g>
     <g id="line2d_2">
      <defs>
       <path id="m8a960b7be5" d="M 0 0 
L 0 3.5 
" style="stroke: #000000; stroke-width: 0.8"/>
      </defs>
      <g>
       <use xlink:href="#m8a960b7be5" x="69.977933" y="310.237969" style="stroke: #000000; stroke-width: 0.8"/>
      </g>
     </g>
     <g id="text_1">
      <text style="font-size: 11px; font-family: 'DejaVu Sans', 'Bitstream Vera Sans', 'Computer Modern Sans Serif', 'Lucida Grande', 'Verdana', 'Geneva', 'Lucid', 'Arial', 'Helvetica', 'Avant Garde', sans-serif; text-anchor: middle" x="69.977933" y="325.595391" transform="rotate(-0 69.977933 325.595391)">40</text>
     </g>
    </g>
    <g id="xtick_2">
     <g id="line2d_3">
      <path d="M 147.590054 310.237969 
L 147.590054 23.077969 
" clip-path="url(#p938631b6a7)" style="fill: none; stroke: #b0b0b0; stroke-opacity: 0.3; stroke-width: 0.8; stroke-linecap: square"/>
     </g>
     <g id="line2d_4">
      <g>
       <use xlink:href="#m8a960b7be5" x="147.590054" y="310.237969" style="stroke: #000000; stroke-width: 0.8"/>
      </g>
     </g>
     <g id="text_2">
      <text style="font-size: 11px; font-family: 'DejaVu Sans', 'Bitstream Vera Sans', 'Computer Modern Sans Serif', 'Lucida Grande', 'Verdana', 'Geneva', 'Lucid', 'Arial', 'Helvetica', 'Avant Garde', sans-serif; text-anchor: middle" x="147.590054" y="325.595391" transform="rotate(-0 147.590054 325.595391)">60</text>
     </g>
    </g>
    <g id="xtick_3">
     <g id="line2d_5">
      <path d="M 225.202176 310.237969 
L 225.202176 23.077969 
" clip-path="url(#p938631b6a7)" style="fill: none; stroke: #b0b0b0; stroke-opacity: 0.3; stroke-width: 0.8; stroke-linecap: square"/>
     </g>
     <g id="line2d_6">
      <g>
       <use xlink:href="#m8a960b7be5" x="225.202176" y="310.237969" style="stroke: #000000; stroke-width: 0.8"/>
      </g>
     </g>
     <g id="text_3">
      <text style="font-size: 11px; font-family: 'DejaVu Sans', 'Bitstream Vera Sans', 'Computer Modern Sans Serif', 'Lucida Grande', 'Verdana', 'Geneva', 'Lucid', 'Arial', 'Helvetica', 'Avant Garde', sans-serif; text-anchor: middle" x="225.202176" y="325.595391" transform="rotate(-0 225.202176 325.595391)">80</text>
     </g>
    </g>
    <g id="xtick_4">
     <g id="line2d_7">
      <path d="M 302.814297 310.237969 
L 302.814297 23.077969 
" clip-path="url(#p938631b6a7)" style="fill: none; stroke: #b0b0b0; stroke-opacity: 0.3; stroke-width: 0.8; stroke-linecap: square"/>
     </g>
     <g id="line2d_8">
      <g>
       <use xlink:href="#m8a960b7be5" x="302.814297" y="310.237969" style="stroke: #000000; stroke-width: 0.8"/>
      </g>
     </g>
     <g id="text_4">
      <text style="font-size: 11px; font-family: 'DejaVu Sans', 'Bitstream Vera Sans', 'Computer Modern Sans Serif', 'Lucida Grande', 'Verdana', 'Geneva', 'Lucid', 'Arial', 'Helvetica', 'Avant Garde', sans-serif; text-anchor: middle" x="302.814297" y="325.595391" transform="rotate(-0 302.814297 325.595391)">100</text>
     </g>
    </g>
    <g id="xtick_5">
     <g id="line2d_9">
      <path d="M 380.426418 310.237969 
L 380.426418 23.077969 
" clip-path="url(#p938631b6a7)" style="fill: none; stroke: #b0b0b0; stroke-opacity: 0.3; stroke-width: 0.8; stroke-linecap: square"/>
     </g>
     <g id="line2d_10">
      <g>
       <use xlink:href="#m8a960b7be5" x="380.426418" y="310.237969" style="stroke: #000000; stroke-width: 0.8"/>
      </g>
     </g>
     <g id="text_5">
      <text style="font-size: 11px; font-family: 'DejaVu Sans', 'Bitstream Vera Sans', 'Computer Modern Sans Serif', 'Lucida Grande', 'Verdana', 'Geneva', 'Lucid', 'Arial', 'Helvetica', 'Avant Garde', sans-serif; text-anchor: middle" x="380.426418" y="325.595391" transform="rotate(-0 380.426418 325.595391)">120</text>
     </g>
    </g>
    <g id="xtick_6">
     <g id="line2d_11">
      <path d="M 458.038539 310.237969 
L 458.038539 23.077969 
" clip-path="url(#p938631b6a7)" style="fill: none; stroke: #b0b0b0; stroke-opacity: 0.3; stroke-width: 0.8; stroke-linecap: square"/>
     </g>
     <g id="line2d_12">
      <g>
       <use xlink:href="#m8a960b7be5" x="458.038539" y="310.237969" style="stroke: #000000; stroke-width: 0.8"/>
      </g>
     </g>
     <g id="text_6">
      <text style="font-size: 11px; font-family: 'DejaVu Sans', 'Bitstream Vera Sans', 'Computer Modern Sans Serif', 'Lucida Grande', 'Verdana', 'Geneva', 'Lucid', 'Arial', 'Helvetica', 'Avant Garde', sans-serif; text-anchor: middle" x="458.038539" y="325.595391" transform="rotate(-0 458.038539 325.595391)">140</text>
     </g>
    </g>
    <g id="xtick_7">
     <g id="line2d_13">
      <path d="M 535.650661 310.237969 
L 535.650661 23.077969 
" clip-path="url(#p938631b6a7)" style="fill: none; stroke: #b0b0b0; stroke-opacity: 0.3; stroke-width: 0.8; stroke-linecap: square"/>
     </g>
     <g id="line2d_14">
      <g>
       <use xlink:href="#m8a960b7be5" x="535.650661" y="310.237969" style="stroke: #000000; stroke-width: 0.8"/>
      </g>
     </g>
     <g id="text_7">
      <text style="font-size: 11px; font-family: 'DejaVu Sans', 'Bitstream Vera Sans', 'Computer Modern Sans Serif', 'Lucida Grande', 'Verdana', 'Geneva', 'Lucid', 'Arial', 'Helvetica', 'Avant Garde', sans-serif; text-anchor: middle" x="535.650661" y="325.595391" transform="rotate(-0 535.650661 325.595391)">160</text>
     </g>
    </g>
    <g id="text_8">
     <text style="font-size: 11px; font-family: 'DejaVu Sans', 'Bitstream Vera Sans', 'Computer Modern Sans Serif', 'Lucida Grande', 'Verdana', 'Geneva', 'Lucid', 'Arial', 'Helvetica', 'Avant Garde', sans-serif; text-anchor: middle" x="302.814297" y="340.595391" transform="rotate(-0 302.814297 340.595391)">Цена актива на экспирации</text>
    </g>
   </g>
   <g id="matplotlib.axis_2">
    <g id="ytick_1">
     <g id="line2d_15">
      <path d="M 46.694297 297.185241 
L 558.934297 297.185241 
" clip-path="url(#p938631b6a7)" style="fill: none; stroke: #b0b0b0; stroke-opacity: 0.3; stroke-width: 0.8; stroke-linecap: square"/>
     </g>
     <g id="line2d_16">
      <defs>
       <path id="md94ae46e00" d="M 0 0 
L -3.5 0 
" style="stroke: #000000; stroke-width: 0.8"/>
      </defs>
      <g>
       <use xlink:href="#md94ae46e00" x="46.694297" y="297.185241" style="stroke: #000000; stroke-width: 0.8"/>
      </g>
     </g>
     <g id="text_9">
      <text style="font-size: 11px; font-family: 'DejaVu Sans', 'Bitstream Vera Sans', 'Computer Modern Sans Serif', 'Lucida Grande', 'Verdana', 'Geneva', 'Lucid', 'Arial', 'Helvetica', 'Avant Garde', sans-serif; text-anchor: end" x="39.694297" y="301.363952" transform="rotate(-0 39.694297 301.363952)">0.0</text>
     </g>
    </g>
    <g id="ytick_2">
     <g id="line2d_17">
      <path d="M 46.694297 244.974332 
L 558.934297 244.974332 
" clip-path="url(#p938631b6a7)" style="fill: none; stroke: #b0b0b0; stroke-opacity: 0.3; stroke-width: 0.8; stroke-linecap: square"/>
     </g>
     <g id="line2d_18">
      <g>
       <use xlink:href="#md94ae46e00" x="46.694297" y="244.974332" style="stroke: #000000; stroke-width: 0.8"/>
      </g>
     </g>
     <g id="text_10">
      <text style="font-size: 11px; font-family: 'DejaVu Sans', 'Bitstream Vera Sans', 'Computer Modern Sans Serif', 'Lucida Grande', 'Verdana', 'Geneva', 'Lucid', 'Arial', 'Helvetica', 'Avant Garde', sans-serif; text-anchor: end" x="39.694297" y="249.153043" transform="rotate(-0 39.694297 249.153043)">0.2</text>
     </g>
    </g>
    <g id="ytick_3">
     <g id="line2d_19">
      <path d="M 46.694297 192.763423 
L 558.934297 192.763423 
" clip-path="url(#p938631b6a7)" style="fill: none; stroke: #b0b0b0; stroke-opacity: 0.3; stroke-width: 0.8; stroke-linecap: square"/>
     </g>
     <g id="line2d_20">
      <g>
       <use xlink:href="#md94ae46e00" x="46.694297" y="192.763423" style="stroke: #000000; stroke-width: 0.8"/>
      </g>
     </g>
     <g id="text_11">
      <text style="font-size: 11px; font-family: 'DejaVu Sans', 'Bitstream Vera Sans', 'Computer Modern Sans Serif', 'Lucida Grande', 'Verdana', 'Geneva', 'Lucid', 'Arial', 'Helvetica', 'Avant Garde', sans-serif; text-anchor: end" x="39.694297" y="196.942134" transform="rotate(-0 39.694297 196.942134)">0.4</text>
     </g>
    </g>
    <g id="ytick_4">
     <g id="line2d_21">
      <path d="M 46.694297 140.552514 
L 558.934297 140.552514 
" clip-path="url(#p938631b6a7)" style="fill: none; stroke: #b0b0b0; stroke-opacity: 0.3; stroke-width: 0.8; stroke-linecap: square"/>
     </g>
     <g id="line2d_22">
      <g>
       <use xlink:href="#md94ae46e00" x="46.694297" y="140.552514" style="stroke: #000000; stroke-width: 0.8"/>
      </g>
     </g>
     <g id="text_12">
      <text style="font-size: 11px; font-family: 'DejaVu Sans', 'Bitstream Vera Sans', 'Computer Modern Sans Serif', 'Lucida Grande', 'Verdana', 'Geneva', 'Lucid', 'Arial', 'Helvetica', 'Avant Garde', sans-serif; text-anchor: end" x="39.694297" y="144.731225" transform="rotate(-0 39.694297 144.731225)">0.6</text>
     </g>
    </g>
    <g id="ytick_5">
     <g id="line2d_23">
      <path d="M 46.694297 88.341605 
L 558.934297 88.341605 
" clip-path="url(#p938631b6a7)" style="fill: none; stroke: #b0b0b0; stroke-opacity: 0.3; stroke-width: 0.8; stroke-linecap: square"/>
     </g>
     <g id="line2d_24">
      <g>
       <use xlink:href="#md94ae46e00" x="46.694297" y="88.341605" style="stroke: #000000; stroke-width: 0.8"/>
      </g>
     </g>
     <g id="text_13">
      <text style="font-size: 11px; font-family: 'DejaVu Sans', 'Bitstream Vera Sans', 'Computer Modern Sans Serif', 'Lucida Grande', 'Verdana', 'Geneva', 'Lucid', 'Arial', 'Helvetica', 'Avant Garde', sans-serif; text-anchor: end" x="39.694297" y="92.520316" transform="rotate(-0 39.694297 92.520316)">0.8</text>
     </g>
    </g>
    <g id="ytick_6">
     <g id="line2d_25">
      <path d="M 46.694297 36.130696 
L 558.934297 36.130696 
" clip-path="url(#p938631b6a7)" style="fill: none; stroke: #b0b0b0; stroke-opacity: 0.3; stroke-width: 0.8; stroke-linecap: square"/>
     </g>
     <g id="line2d_26">
      <g>
       <use xlink:href="#md94ae46e00" x="46.694297" y="36.130696" style="stroke: #000000; stroke-width: 0.8"/>
      </g>
     </g>
     <g id="text_14">
      <text style="font-size: 11px; font-family: 'DejaVu Sans', 'Bitstream Vera Sans', 'Computer Modern Sans Serif', 'Lucida Grande', 'Verdana', 'Geneva', 'Lucid', 'Arial', 'Helvetica', 'Avant Garde', sans-serif; text-anchor: end" x="39.694297" y="40.309407" transform="rotate(-0 39.694297 40.309407)">1.0</text>
     </g>
    </g>
    <g id="text_15">
     <text style="font-size: 11px; font-family: 'DejaVu Sans', 'Bitstream Vera Sans', 'Computer Modern Sans Serif', 'Lucida Grande', 'Verdana', 'Geneva', 'Lucid', 'Arial', 'Helvetica', 'Avant Garde', sans-serif; text-anchor: middle" x="15.558281" y="166.657969" transform="rotate(-90 15.558281 166.657969)">Payoff / плотность (нормировано)</text>
    </g>
   </g>
   <g id="line2d_27">
    <path d="M 69.977933 286.631396 
L 79.310052 284.463067 
L 88.642171 282.052805 
L 97.97429 279.413677 
L 107.306408 276.559197 
L 117.571739 273.17726 
L 126.903858 269.8673 
L 135.302765 266.655308 
L 142.76846 263.556322 
L 149.300943 260.593198 
L 154.900214 257.810043 
L 159.566274 255.276348 
L 164.232333 252.506922 
L 168.898392 249.458472 
L 172.63124 246.787027 
L 176.364087 243.880808 
L 180.096935 240.712987 
L 183.829782 237.256279 
L 187.56263 233.483533 
L 191.295477 229.368414 
L 195.028325 224.886175 
L 198.761172 220.014496 
L 202.49402 214.734387 
L 206.226867 209.031134 
L 209.959715 202.895251 
L 213.692562 196.323431 
L 217.42541 189.31945 
L 221.158258 181.894993 
L 225.824317 172.054955 
L 230.490376 161.650385 
L 236.089648 148.539147 
L 242.622131 132.625017 
L 258.486733 93.66238 
L 263.152792 82.887706 
L 266.88564 74.74037 
L 270.618487 67.125748 
L 273.418123 61.825745 
L 276.217758 56.924128 
L 279.017394 52.460377 
L 281.81703 48.471574 
L 284.616665 44.991923 
L 286.483089 42.970417 
L 288.349513 41.19725 
L 290.215937 39.679879 
L 292.08236 38.424933 
L 293.948784 37.438166 
L 295.815208 36.724425 
L 297.681632 36.28762 
L 299.548055 36.130696 
L 301.414479 36.255617 
L 303.280903 36.66335 
L 305.147327 37.353858 
L 307.01375 38.3261 
L 308.880174 39.578034 
L 310.746598 41.106626 
L 312.613022 42.907868 
L 314.479445 44.976801 
L 316.345869 47.307541 
L 318.212293 49.89331 
L 321.011929 54.23323 
L 323.811564 59.100482 
L 326.6112 64.462202 
L 329.410835 70.282201 
L 333.143683 78.687186 
L 336.87653 87.738091 
L 340.609378 97.330347 
L 345.275437 109.917349 
L 351.80792 128.271639 
L 367.672522 173.228607 
L 373.271794 188.255254 
L 377.937853 200.154956 
L 382.603912 211.38117 
L 386.33676 219.826042 
L 390.069607 227.764154 
L 393.802455 235.177579 
L 397.535303 242.057129 
L 401.26815 248.401604 
L 405.000998 254.216938 
L 408.733845 259.515295 
L 412.466693 264.314117 
L 415.266328 267.598377 
L 418.065964 270.624315 
L 420.865599 273.403287 
L 424.598447 276.745261 
L 428.331295 279.699343 
L 432.064142 282.296058 
L 435.79699 284.566085 
L 439.529837 286.539705 
L 443.262685 288.246341 
L 446.995532 289.714191 
L 450.72838 290.969938 
L 455.394439 292.27921 
L 460.060498 293.340602 
L 464.726558 294.19405 
L 470.325829 294.99294 
L 476.858312 295.679366 
L 484.324007 296.221579 
L 493.656126 296.647597 
L 505.78788 296.943801 
L 523.518906 297.116307 
L 535.650661 297.157564 
L 535.650661 297.157564 
" clip-path="url(#p938631b6a7)" style="fill: none; stroke: #1f77b4; stroke-opacity: 0.5; stroke-width: 1.5; stroke-linecap: square"/>
   </g>
   <g id="line2d_28">
    <path d="M 69.977933 297.185241 
L 302.347691 297.185241 
L 303.280903 294.569464 
L 349.008285 38.223318 
L 349.941497 39.269628 
L 395.668879 295.615775 
L 396.602091 297.185241 
L 535.650661 297.185241 
L 535.650661 297.185241 
" clip-path="url(#p938631b6a7)" style="fill: none; stroke: #ff7f0e; stroke-width: 1.5; stroke-linecap: square"/>
   </g>
   <g id="patch_3">
    <path d="M 46.694297 310.237969 
L 46.694297 23.077969 
" style="fill: none; stroke: #000000; stroke-width: 0.8; stroke-linejoin: miter; stroke-linecap: square"/>
   </g>
   <g id="patch_4">
    <path d="M 558.934297 310.237969 
L 558.934297 23.077969 
" style="fill: none; stroke: #000000; stroke-width: 0.8; stroke-linejoin: miter; stroke-linecap: square"/>
   </g>
   <g id="patch_5">
    <path d="M 46.694297 310.237969 
L 558.934297 310.237969 
" style="fill: none; stroke: #000000; stroke-width: 0.8; stroke-linejoin: miter; stroke-linecap: square"/>
   </g>
   <g id="patch_6">
    <path d="M 46.694297 23.077969 
L 558.934297 23.077969 
" style="fill: none; stroke: #000000; stroke-width: 0.8; stroke-linejoin: miter; stroke-linecap: square"/>
   </g>
   <g id="text_16">
    <text style="font-size: 9px; font-family: 'DejaVu Sans', 'Bitstream Vera Sans', 'Computer Modern Sans Serif', 'Lucida Grande', 'Verdana', 'Geneva', 'Lucid', 'Arial', 'Helvetica', 'Avant Garde', sans-serif" transform="translate(372.665206 142.803484)">цена бабочки ≈ вероятность</text>
    <text style="font-size: 9px; font-family: 'DejaVu Sans', 'Bitstream Vera Sans', 'Computer Modern Sans Serif', 'Lucida Grande', 'Verdana', 'Geneva', 'Lucid', 'Arial', 'Helvetica', 'Avant Garde', sans-serif" transform="translate(372.665206 153.605241)">попасть в диапазон</text>
   </g>
   <g id="text_17">
    <text style="font-size: 13px; font-family: 'DejaVu Sans', 'Bitstream Vera Sans', 'Computer Modern Sans Serif', 'Lucida Grande', 'Verdana', 'Geneva', 'Lucid', 'Arial', 'Helvetica', 'Avant Garde', sans-serif; text-anchor: middle" x="302.814297" y="17.077969" transform="rotate(-0 302.814297 17.077969)">Butterfly = ставка на вероятность узкого диапазона цены</text>
   </g>
   <g id="legend_1">
    <g id="patch_7">
     <path d="M 54.394297 184.808828 
L 292.320859 184.808828 
Q 294.520859 184.808828 294.520859 182.608828 
L 294.520859 150.707109 
Q 294.520859 148.507109 292.320859 148.507109 
L 54.394297 148.507109 
Q 52.194297 148.507109 52.194297 150.707109 
L 52.194297 182.608828 
Q 52.194297 184.808828 54.394297 184.808828 
z
" style="fill: #ffffff; opacity: 0.8; stroke: #cccccc; stroke-linejoin: miter"/>
    </g>
    <g id="line2d_29">
     <path d="M 56.594297 157.415391 
L 67.594297 157.415391 
L 78.594297 157.415391 
" style="fill: none; stroke: #1f77b4; stroke-opacity: 0.5; stroke-width: 1.5; stroke-linecap: square"/>
    </g>
    <g id="text_18">
     <text style="font-size: 11px; font-family: 'DejaVu Sans', 'Bitstream Vera Sans', 'Computer Modern Sans Serif', 'Lucida Grande', 'Verdana', 'Geneva', 'Lucid', 'Arial', 'Helvetica', 'Avant Garde', sans-serif; text-anchor: start" x="87.394297" y="161.265391" transform="rotate(-0 87.394297 161.265391)">Вменённое распределение (норм.)</text>
    </g>
    <g id="line2d_30">
     <path d="M 56.594297 173.91625 
L 67.594297 173.91625 
L 78.594297 173.91625 
" style="fill: none; stroke: #ff7f0e; stroke-width: 1.5; stroke-linecap: square"/>
    </g>
    <g id="text_19">
     <text style="font-size: 11px; font-family: 'DejaVu Sans', 'Bitstream Vera Sans', 'Computer Modern Sans Serif', 'Lucida Grande', 'Verdana', 'Geneva', 'Lucid', 'Arial', 'Helvetica', 'Avant Garde', sans-serif; text-anchor: start" x="87.394297" y="177.76625" transform="rotate(-0 87.394297 177.76625)">Butterfly payoff (центр 112, ±12)</text>
    </g>
   </g>
  </g>
 </g>
 <defs>
  <clipPath id="p938631b6a7">
   <rect x="46.694297" y="23.077969" width="512.24" height="287.16"/>
  </clipPath>
 </defs>
</svg>
