<?xml version="1.0" encoding="utf-8" standalone="no"?>
<!DOCTYPE svg PUBLIC "-//W3C//DTD SVG 1.1//EN"
  "http://www.w3.org/Graphics/SVG/1.1/DTD/svg11.dtd">
<svg xmlns:xlink="http://www.w3.org/1999/xlink" width="565.730937pt" height="350.546875pt" viewBox="0 0 565.730937 350.546875" xmlns="http://www.w3.org/2000/svg" version="1.1">
 <metadata>
  <rdf:RDF xmlns:dc="http://purl.org/dc/elements/1.1/" xmlns:cc="http://creativecommons.org/ns#" xmlns:rdf="http://www.w3.org/1999/02/22-rdf-syntax-ns#">
   <cc:Work>
    <dc:type rdf:resource="http://purl.org/dc/dcmitype/StillImage"/>
    <dc:date>2026-07-09T16:59:18.961623</dc:date>
    <dc:format>image/svg+xml</dc:format>
    <dc:creator>
     <cc:Agent>
      <dc:title>Matplotlib v3.11.0, https://matplotlib.org/</dc:title>
     </cc:Agent>
    </dc:creator>
   </cc:Work>
  </rdf:RDF>
 </metadata>
 <defs>
  <style type="text/css">*{stroke-linejoin: round; stroke-linecap: butt}</style>
 </defs>
 <g id="figure_1">
  <g id="patch_1">
   <path d="M 0 350.546875 
L 565.730937 350.546875 
L 565.730937 0 
L 0 0 
z
" style="fill: #ffffff"/>
  </g>
  <g id="axes_1">
   <g id="patch_2">
    <path d="M 60.690938 310.346875 
L 558.530937 310.346875 
L 558.530937 23.299375 
L 60.690938 23.299375 
z
" style="fill: #ffffff"/>
   </g>
   <g id="FillBetweenPolyCollection_1">
    <defs>
     <path id="mdcb486caf8" d="M 83.320028 -236.442379 
L 83.320028 -150.818173 
L 85.594309 -172.163178 
L 87.868589 -191.38857 
L 90.14287 -183.377886 
L 92.41715 -178.700429 
L 94.691431 -170.421672 
L 96.965711 -179.365106 
L 99.239992 -178.48502 
L 101.514272 -190.209459 
L 103.788553 -161.210577 
L 106.062833 -185.801901 
L 108.337114 -184.288131 
L 110.611394 -194.968557 
L 112.885675 -192.824769 
L 115.159955 -186.873767 
L 117.434236 -194.143564 
L 119.708516 -207.086589 
L 121.982797 -203.907321 
L 124.257077 -201.508919 
L 126.531358 -212.272859 
L 128.805638 -198.61045 
L 131.079919 -174.838005 
L 133.354199 -181.03834 
L 135.62848 -170.511951 
L 137.90276 -140.366884 
L 140.177041 -127.588056 
L 142.451321 -120.247816 
L 144.725602 -101.517197 
L 146.999882 -78.08884 
L 149.274163 -78.663972 
L 151.548443 -92.748786 
L 153.822724 -89.089132 
L 156.097004 -77.416331 
L 158.371285 -83.459876 
L 160.645565 -94.71888 
L 162.919846 -90.009382 
L 165.194126 -98.559453 
L 167.468407 -114.930273 
L 169.742687 -111.681518 
L 172.016968 -98.911138 
L 174.291248 -104.368477 
L 176.565529 -108.254394 
L 178.839809 -125.503305 
L 181.11409 -105.33825 
L 183.38837 -94.952401 
L 185.662651 -81.795048 
L 187.936931 -54.57488 
L 190.211212 -56.559621 
L 192.485492 -64.84497 
L 194.759773 -53.247614 
L 197.034053 -74.999184 
L 199.308334 -87.901565 
L 201.582614 -97.749977 
L 203.856895 -104.055883 
L 206.131175 -119.057765 
L 208.405456 -98.14865 
L 210.679736 -107.785978 
L 212.954017 -117.24823 
L 215.228297 -89.498989 
L 217.502578 -94.946588 
L 219.776858 -91.015531 
L 222.051139 -103.283695 
L 224.325419 -96.391398 
L 226.599699 -96.105057 
L 228.87398 -101.487061 
L 231.14826 -87.731706 
L 233.422541 -97.128339 
L 235.696821 -95.480651 
L 237.971102 -103.211531 
L 240.245382 -95.019845 
L 242.519663 -112.070788 
L 244.793943 -121.57111 
L 247.068224 -118.776514 
L 249.342504 -128.696833 
L 251.616785 -148.472181 
L 253.891065 -176.589645 
L 256.165346 -151.888003 
L 258.439626 -165.751204 
L 260.713907 -173.051743 
L 262.988187 -171.578338 
L 265.262468 -155.775942 
L 267.536748 -175.511001 
L 269.811029 -155.704527 
L 272.085309 -164.604307 
L 274.35959 -185.040733 
L 276.63387 -159.929491 
L 278.908151 -155.180635 
L 281.182431 -134.628849 
L 283.456712 -138.459954 
L 285.730992 -162.232269 
L 288.005273 -193.997588 
L 290.279553 -166.085154 
L 292.553834 -157.059736 
L 294.828114 -168.103826 
L 297.102395 -192.896457 
L 299.376675 -199.508525 
L 301.650956 -187.795602 
L 303.925236 -192.459904 
L 306.199517 -192.19902 
L 308.473797 -189.000745 
L 310.748078 -177.471185 
L 313.022358 -183.5503 
L 315.296639 -188.383324 
L 317.570919 -186.923681 
L 319.8452 -183.443674 
L 322.11948 -163.273348 
L 324.393761 -155.641474 
L 326.668041 -174.580044 
L 328.942322 -171.588705 
L 331.216602 -148.988665 
L 333.490883 -169.936443 
L 335.765163 -178.260428 
L 338.039444 -211.352696 
L 340.313724 -212.333998 
L 342.588005 -205.091288 
L 344.862285 -182.366493 
L 347.136566 -203.147805 
L 349.410846 -243.483409 
L 351.685127 -230.59656 
L 353.959407 -220.438726 
L 356.233688 -229.797562 
L 358.507968 -216.762989 
L 360.782249 -212.515826 
L 363.056529 -207.024153 
L 365.33081 -210.03748 
L 367.60509 -227.223689 
L 369.879371 -227.570101 
L 372.153651 -241.994942 
L 374.427932 -235.403622 
L 376.702212 -240.549328 
L 378.976493 -206.983952 
L 381.250773 -184.222999 
L 383.525054 -196.717066 
L 385.799334 -187.453036 
L 388.073615 -196.556408 
L 390.347895 -205.070004 
L 392.622176 -225.826835 
L 394.896456 -238.571212 
L 397.170736 -254.53571 
L 399.445017 -252.782719 
L 401.719297 -241.821198 
L 403.993578 -230.337356 
L 406.267858 -222.676154 
L 408.542139 -204.940355 
L 410.816419 -196.346711 
L 413.0907 -194.893583 
L 415.36498 -198.84333 
L 417.639261 -193.5235 
L 419.913541 -163.325966 
L 422.187822 -162.191285 
L 424.462102 -165.728711 
L 426.736383 -182.752561 
L 429.010663 -191.823736 
L 431.284944 -181.721268 
L 433.559224 -170.359589 
L 435.833505 -201.921489 
L 438.107785 -213.799019 
L 440.382066 -242.548542 
L 442.656346 -275.976075 
L 444.930627 -263.133985 
L 447.204907 -269.181854 
L 449.479188 -276.374055 
L 451.753468 -285.158719 
L 454.027749 -293.665376 
L 456.302029 -296.837184 
L 458.57631 -299.570625 
L 460.85059 -275.984725 
L 463.124871 -273.388295 
L 465.399151 -261.652332 
L 467.673432 -263.631621 
L 469.947712 -256.292187 
L 472.221993 -266.001584 
L 474.496273 -278.859248 
L 476.770554 -283.70503 
L 479.044834 -288.668165 
L 481.319115 -290.127221 
L 483.593395 -283.097792 
L 485.867676 -280.515489 
L 488.141956 -272.73495 
L 490.416237 -278.825483 
L 492.690517 -279.047032 
L 494.964798 -288.172009 
L 497.239078 -267.315191 
L 499.513359 -281.251342 
L 501.787639 -269.278711 
L 504.06192 -257.752117 
L 506.3362 -254.652702 
L 508.610481 -245.80882 
L 510.884761 -250.378837 
L 513.159042 -241.36573 
L 515.433322 -224.577316 
L 517.707603 -211.300097 
L 519.981883 -231.895311 
L 522.256164 -232.590068 
L 524.530444 -214.262445 
L 526.804725 -214.393951 
L 529.079005 -189.96906 
L 531.353286 -218.061267 
L 533.627566 -194.130357 
L 535.901847 -201.645708 
L 535.901847 -201.645708 
L 535.901847 -201.645708 
L 533.627566 -194.56063 
L 531.353286 -218.921811 
L 529.079005 -191.259878 
L 526.804725 -216.115041 
L 524.530444 -216.413807 
L 522.256164 -235.171702 
L 519.981883 -234.907217 
L 517.707603 -214.742276 
L 515.433322 -228.449767 
L 513.159042 -245.668453 
L 510.884761 -255.111833 
L 508.610481 -250.972089 
L 506.3362 -260.246244 
L 504.06192 -263.775931 
L 501.787639 -275.732797 
L 499.513359 -288.1357 
L 497.239078 -274.629822 
L 494.964798 -295.916912 
L 492.690517 -287.222208 
L 490.416237 -287.430931 
L 488.141956 -281.77067 
L 485.867676 -289.981481 
L 483.593395 -292.994057 
L 481.319115 -300.453758 
L 479.044834 -299.424975 
L 476.770554 -294.892112 
L 474.496273 -290.476602 
L 472.221993 -278.049211 
L 469.947712 -268.770087 
L 467.673432 -276.539793 
L 465.399151 -274.990776 
L 463.124871 -287.157011 
L 460.85059 -290.183714 
L 458.57631 -314.199886 
L 456.302029 -311.896718 
L 454.027749 -309.155183 
L 451.753468 -301.078798 
L 449.479188 -292.724406 
L 447.204907 -285.962477 
L 444.930627 -280.34488 
L 442.656346 -293.617243 
L 440.382066 -260.619982 
L 438.107785 -232.300731 
L 435.833505 -220.853474 
L 433.559224 -189.721847 
L 431.284944 -201.513798 
L 429.010663 -212.046539 
L 426.736383 -203.405636 
L 424.462102 -186.812059 
L 422.187822 -183.704905 
L 419.913541 -185.269858 
L 417.639261 -215.897664 
L 415.36498 -221.647767 
L 413.0907 -218.128292 
L 410.816419 -220.011692 
L 408.542139 -229.035609 
L 406.267858 -247.20168 
L 403.993578 -255.293154 
L 401.719297 -267.207269 
L 399.445017 -278.599062 
L 397.170736 -280.782326 
L 394.896456 -265.248101 
L 392.622176 -252.933995 
L 390.347895 -232.607437 
L 388.073615 -224.524113 
L 385.799334 -215.851014 
L 383.525054 -225.545317 
L 381.250773 -213.481522 
L 378.976493 -236.672748 
L 376.702212 -270.668396 
L 374.427932 -265.952962 
L 372.153651 -272.974554 
L 369.879371 -258.979986 
L 367.60509 -259.063847 
L 365.33081 -242.30791 
L 363.056529 -239.724855 
L 360.782249 -245.6468 
L 358.507968 -250.324236 
L 356.233688 -263.789081 
L 353.959407 -254.860518 
L 351.685127 -265.448624 
L 349.410846 -278.765745 
L 347.136566 -238.860414 
L 344.862285 -218.509374 
L 342.588005 -241.664442 
L 340.313724 -249.337424 
L 338.039444 -248.786394 
L 335.765163 -216.124399 
L 333.490883 -208.230686 
L 331.216602 -187.713181 
L 328.942322 -210.743492 
L 326.668041 -214.165105 
L 324.393761 -195.656806 
L 322.11948 -203.718953 
L 319.8452 -224.319552 
L 317.570919 -228.229831 
L 315.296639 -230.119747 
L 313.022358 -225.716995 
L 310.748078 -220.068152 
L 308.473797 -232.027984 
L 306.199517 -235.656532 
L 303.925236 -236.347688 
L 301.650956 -232.113658 
L 299.376675 -244.256854 
L 297.102395 -238.075058 
L 294.828114 -213.7127 
L 292.553834 -203.098883 
L 290.279553 -212.554573 
L 288.005273 -240.897279 
L 285.730992 -209.562232 
L 283.456712 -186.22019 
L 281.182431 -182.819357 
L 278.908151 -203.801415 
L 276.63387 -208.980543 
L 274.35959 -234.522058 
L 272.085309 -214.515905 
L 269.811029 -206.046397 
L 267.536748 -226.283144 
L 265.262468 -206.978357 
L 262.988187 -223.211025 
L 260.713907 -225.114703 
L 258.439626 -218.244436 
L 256.165346 -204.811507 
L 253.891065 -229.943421 
L 251.616785 -202.25623 
L 249.342504 -182.911155 
L 247.068224 -173.421108 
L 244.793943 -176.645977 
L 242.519663 -167.575927 
L 240.245382 -150.955256 
L 237.971102 -159.577214 
L 235.696821 -152.276607 
L 233.422541 -154.354568 
L 231.14826 -145.388207 
L 228.87398 -159.573835 
L 226.599699 -154.622102 
L 224.325419 -155.338716 
L 222.051139 -162.661286 
L 219.776858 -150.823394 
L 217.502578 -155.184723 
L 215.228297 -150.167396 
L 212.954017 -178.34691 
L 210.679736 -169.31493 
L 208.405456 -160.107875 
L 206.131175 -181.447262 
L 203.856895 -166.875652 
L 201.582614 -161.000019 
L 199.308334 -151.581879 
L 197.034053 -139.109771 
L 194.759773 -117.788473 
L 192.485492 -129.816102 
L 190.211212 -121.961025 
L 187.936931 -120.406556 
L 185.662651 -148.056997 
L 183.38837 -161.644623 
L 181.11409 -172.460743 
L 178.839809 -193.056071 
L 176.565529 -176.237432 
L 174.291248 -172.781788 
L 172.016968 -167.754721 
L 169.742687 -180.955374 
L 167.468407 -184.634401 
L 165.194126 -168.693853 
L 162.919846 -160.574055 
L 160.645565 -165.713825 
L 158.371285 -154.885094 
L 156.097004 -149.271821 
L 153.822724 -161.374894 
L 151.548443 -165.46482 
L 149.274163 -151.810279 
L 146.999882 -151.665419 
L 144.725602 -175.524048 
L 142.451321 -194.68494 
L 140.177041 -202.455452 
L 137.90276 -215.664553 
L 135.62848 -246.239892 
L 133.354199 -257.196553 
L 131.079919 -251.426491 
L 128.805638 -275.629209 
L 126.531358 -289.72189 
L 124.257077 -279.388222 
L 121.982797 -282.216897 
L 119.708516 -285.826437 
L 117.434236 -273.313685 
L 115.159955 -266.47416 
L 112.885675 -272.855435 
L 110.611394 -275.429494 
L 108.337114 -265.179341 
L 106.062833 -267.123384 
L 103.788553 -242.962332 
L 101.514272 -272.391486 
L 99.239992 -261.097319 
L 96.965711 -262.407678 
L 94.691431 -253.894517 
L 92.41715 -262.603545 
L 90.14287 -267.711275 
L 87.868589 -276.152231 
L 85.594309 -257.357112 
L 83.320028 -236.442379 
z
" style="stroke: #1f77b4; stroke-opacity: 0.15"/>
    </defs>
    <g clip-path="url(#p20d8593398)">
     <use xlink:href="#mdcb486caf8" x="0" y="350.546875" style="fill: #1f77b4; fill-opacity: 0.15; stroke: #1f77b4; stroke-opacity: 0.15"/>
    </g>
   </g>
   <g id="matplotlib.axis_1">
    <g id="xtick_1">
     <g id="line2d_1">
      <path d="M 83.320028 310.346875 
L 83.320028 23.299375 
" clip-path="url(#p20d8593398)" style="fill: none; stroke: #b0b0b0; stroke-opacity: 0.3; stroke-width: 0.8; stroke-linecap: square"/>
     </g>
     <g id="line2d_2">
      <defs>
       <path id="mb974deedba" d="M 0 0 
L 0 3.5 
" style="stroke: #000000; stroke-width: 0.8"/>
      </defs>
      <g>
       <use xlink:href="#mb974deedba" x="83.320028" y="310.346875" style="stroke: #000000; stroke-width: 0.8"/>
      </g>
     </g>
     <g id="text_1">
      <text style="font-size: 11px; font-family: 'DejaVu Sans', 'Bitstream Vera Sans', 'Computer Modern Sans Serif', 'Lucida Grande', 'Verdana', 'Geneva', 'Lucid', 'Arial', 'Helvetica', 'Avant Garde', sans-serif; text-anchor: middle" x="83.320028" y="325.704297" transform="rotate(-0 83.320028 325.704297)">0.0</text>
     </g>
    </g>
    <g id="xtick_2">
     <g id="line2d_3">
      <path d="M 173.836392 310.346875 
L 173.836392 23.299375 
" clip-path="url(#p20d8593398)" style="fill: none; stroke: #b0b0b0; stroke-opacity: 0.3; stroke-width: 0.8; stroke-linecap: square"/>
     </g>
     <g id="line2d_4">
      <g>
       <use xlink:href="#mb974deedba" x="173.836392" y="310.346875" style="stroke: #000000; stroke-width: 0.8"/>
      </g>
     </g>
     <g id="text_2">
      <text style="font-size: 11px; font-family: 'DejaVu Sans', 'Bitstream Vera Sans', 'Computer Modern Sans Serif', 'Lucida Grande', 'Verdana', 'Geneva', 'Lucid', 'Arial', 'Helvetica', 'Avant Garde', sans-serif; text-anchor: middle" x="173.836392" y="325.704297" transform="rotate(-0 173.836392 325.704297)">0.2</text>
     </g>
    </g>
    <g id="xtick_3">
     <g id="line2d_5">
      <path d="M 264.352756 310.346875 
L 264.352756 23.299375 
" clip-path="url(#p20d8593398)" style="fill: none; stroke: #b0b0b0; stroke-opacity: 0.3; stroke-width: 0.8; stroke-linecap: square"/>
     </g>
     <g id="line2d_6">
      <g>
       <use xlink:href="#mb974deedba" x="264.352756" y="310.346875" style="stroke: #000000; stroke-width: 0.8"/>
      </g>
     </g>
     <g id="text_3">
      <text style="font-size: 11px; font-family: 'DejaVu Sans', 'Bitstream Vera Sans', 'Computer Modern Sans Serif', 'Lucida Grande', 'Verdana', 'Geneva', 'Lucid', 'Arial', 'Helvetica', 'Avant Garde', sans-serif; text-anchor: middle" x="264.352756" y="325.704297" transform="rotate(-0 264.352756 325.704297)">0.4</text>
     </g>
    </g>
    <g id="xtick_4">
     <g id="line2d_7">
      <path d="M 354.869119 310.346875 
L 354.869119 23.299375 
" clip-path="url(#p20d8593398)" style="fill: none; stroke: #b0b0b0; stroke-opacity: 0.3; stroke-width: 0.8; stroke-linecap: square"/>
     </g>
     <g id="line2d_8">
      <g>
       <use xlink:href="#mb974deedba" x="354.869119" y="310.346875" style="stroke: #000000; stroke-width: 0.8"/>
      </g>
     </g>
     <g id="text_4">
      <text style="font-size: 11px; font-family: 'DejaVu Sans', 'Bitstream Vera Sans', 'Computer Modern Sans Serif', 'Lucida Grande', 'Verdana', 'Geneva', 'Lucid', 'Arial', 'Helvetica', 'Avant Garde', sans-serif; text-anchor: middle" x="354.869119" y="325.704297" transform="rotate(-0 354.869119 325.704297)">0.6</text>
     </g>
    </g>
    <g id="xtick_5">
     <g id="line2d_9">
      <path d="M 445.385483 310.346875 
L 445.385483 23.299375 
" clip-path="url(#p20d8593398)" style="fill: none; stroke: #b0b0b0; stroke-opacity: 0.3; stroke-width: 0.8; stroke-linecap: square"/>
     </g>
     <g id="line2d_10">
      <g>
       <use xlink:href="#mb974deedba" x="445.385483" y="310.346875" style="stroke: #000000; stroke-width: 0.8"/>
      </g>
     </g>
     <g id="text_5">
      <text style="font-size: 11px; font-family: 'DejaVu Sans', 'Bitstream Vera Sans', 'Computer Modern Sans Serif', 'Lucida Grande', 'Verdana', 'Geneva', 'Lucid', 'Arial', 'Helvetica', 'Avant Garde', sans-serif; text-anchor: middle" x="445.385483" y="325.704297" transform="rotate(-0 445.385483 325.704297)">0.8</text>
     </g>
    </g>
    <g id="xtick_6">
     <g id="line2d_11">
      <path d="M 535.901847 310.346875 
L 535.901847 23.299375 
" clip-path="url(#p20d8593398)" style="fill: none; stroke: #b0b0b0; stroke-opacity: 0.3; stroke-width: 0.8; stroke-linecap: square"/>
     </g>
     <g id="line2d_12">
      <g>
       <use xlink:href="#mb974deedba" x="535.901847" y="310.346875" style="stroke: #000000; stroke-width: 0.8"/>
      </g>
     </g>
     <g id="text_6">
      <text style="font-size: 11px; font-family: 'DejaVu Sans', 'Bitstream Vera Sans', 'Computer Modern Sans Serif', 'Lucida Grande', 'Verdana', 'Geneva', 'Lucid', 'Arial', 'Helvetica', 'Avant Garde', sans-serif; text-anchor: middle" x="535.901847" y="325.704297" transform="rotate(-0 535.901847 325.704297)">1.0</text>
     </g>
    </g>
    <g id="text_7">
     <text style="font-size: 11px; font-family: 'DejaVu Sans', 'Bitstream Vera Sans', 'Computer Modern Sans Serif', 'Lucida Grande', 'Verdana', 'Geneva', 'Lucid', 'Arial', 'Helvetica', 'Avant Garde', sans-serif; text-anchor: middle" x="309.610937" y="340.704297" transform="rotate(-0 309.610937 340.704297)">Доля прожитого срока (0 → экспирация)</text>
    </g>
   </g>
   <g id="matplotlib.axis_2">
    <g id="ytick_1">
     <g id="line2d_13">
      <path d="M 60.690938 307.295711 
L 558.530937 307.295711 
" clip-path="url(#p20d8593398)" style="fill: none; stroke: #b0b0b0; stroke-opacity: 0.3; stroke-width: 0.8; stroke-linecap: square"/>
     </g>
     <g id="line2d_14">
      <defs>
       <path id="mc793d098ee" d="M 0 0 
L -3.5 0 
" style="stroke: #000000; stroke-width: 0.8"/>
      </defs>
      <g>
       <use xlink:href="#mc793d098ee" x="60.690938" y="307.295711" style="stroke: #000000; stroke-width: 0.8"/>
      </g>
     </g>
     <g id="text_8">
      <text style="font-size: 11px; font-family: 'DejaVu Sans', 'Bitstream Vera Sans', 'Computer Modern Sans Serif', 'Lucida Grande', 'Verdana', 'Geneva', 'Lucid', 'Arial', 'Helvetica', 'Avant Garde', sans-serif; text-anchor: end" x="53.690938" y="311.474422" transform="rotate(-0 53.690938 311.474422)">92.5</text>
     </g>
    </g>
    <g id="ytick_2">
     <g id="line2d_15">
      <path d="M 60.690938 271.618958 
L 558.530937 271.618958 
" clip-path="url(#p20d8593398)" style="fill: none; stroke: #b0b0b0; stroke-opacity: 0.3; stroke-width: 0.8; stroke-linecap: square"/>
     </g>
     <g id="line2d_16">
      <g>
       <use xlink:href="#mc793d098ee" x="60.690938" y="271.618958" style="stroke: #000000; stroke-width: 0.8"/>
      </g>
     </g>
     <g id="text_9">
      <text style="font-size: 11px; font-family: 'DejaVu Sans', 'Bitstream Vera Sans', 'Computer Modern Sans Serif', 'Lucida Grande', 'Verdana', 'Geneva', 'Lucid', 'Arial', 'Helvetica', 'Avant Garde', sans-serif; text-anchor: end" x="53.690938" y="275.797669" transform="rotate(-0 53.690938 275.797669)">95.0</text>
     </g>
    </g>
    <g id="ytick_3">
     <g id="line2d_17">
      <path d="M 60.690938 235.942205 
L 558.530937 235.942205 
" clip-path="url(#p20d8593398)" style="fill: none; stroke: #b0b0b0; stroke-opacity: 0.3; stroke-width: 0.8; stroke-linecap: square"/>
     </g>
     <g id="line2d_18">
      <g>
       <use xlink:href="#mc793d098ee" x="60.690938" y="235.942205" style="stroke: #000000; stroke-width: 0.8"/>
      </g>
     </g>
     <g id="text_10">
      <text style="font-size: 11px; font-family: 'DejaVu Sans', 'Bitstream Vera Sans', 'Computer Modern Sans Serif', 'Lucida Grande', 'Verdana', 'Geneva', 'Lucid', 'Arial', 'Helvetica', 'Avant Garde', sans-serif; text-anchor: end" x="53.690938" y="240.120916" transform="rotate(-0 53.690938 240.120916)">97.5</text>
     </g>
    </g>
    <g id="ytick_4">
     <g id="line2d_19">
      <path d="M 60.690938 200.265453 
L 558.530937 200.265453 
" clip-path="url(#p20d8593398)" style="fill: none; stroke: #b0b0b0; stroke-opacity: 0.3; stroke-width: 0.8; stroke-linecap: square"/>
     </g>
     <g id="line2d_20">
      <g>
       <use xlink:href="#mc793d098ee" x="60.690938" y="200.265453" style="stroke: #000000; stroke-width: 0.8"/>
      </g>
     </g>
     <g id="text_11">
      <text style="font-size: 11px; font-family: 'DejaVu Sans', 'Bitstream Vera Sans', 'Computer Modern Sans Serif', 'Lucida Grande', 'Verdana', 'Geneva', 'Lucid', 'Arial', 'Helvetica', 'Avant Garde', sans-serif; text-anchor: end" x="53.690938" y="204.444164" transform="rotate(-0 53.690938 204.444164)">100.0</text>
     </g>
    </g>
    <g id="ytick_5">
     <g id="line2d_21">
      <path d="M 60.690938 164.5887 
L 558.530937 164.5887 
" clip-path="url(#p20d8593398)" style="fill: none; stroke: #b0b0b0; stroke-opacity: 0.3; stroke-width: 0.8; stroke-linecap: square"/>
     </g>
     <g id="line2d_22">
      <g>
       <use xlink:href="#mc793d098ee" x="60.690938" y="164.5887" style="stroke: #000000; stroke-width: 0.8"/>
      </g>
     </g>
     <g id="text_12">
      <text style="font-size: 11px; font-family: 'DejaVu Sans', 'Bitstream Vera Sans', 'Computer Modern Sans Serif', 'Lucida Grande', 'Verdana', 'Geneva', 'Lucid', 'Arial', 'Helvetica', 'Avant Garde', sans-serif; text-anchor: end" x="53.690938" y="168.767411" transform="rotate(-0 53.690938 168.767411)">102.5</text>
     </g>
    </g>
    <g id="ytick_6">
     <g id="line2d_23">
      <path d="M 60.690938 128.911947 
L 558.530937 128.911947 
" clip-path="url(#p20d8593398)" style="fill: none; stroke: #b0b0b0; stroke-opacity: 0.3; stroke-width: 0.8; stroke-linecap: square"/>
     </g>
     <g id="line2d_24">
      <g>
       <use xlink:href="#mc793d098ee" x="60.690938" y="128.911947" style="stroke: #000000; stroke-width: 0.8"/>
      </g>
     </g>
     <g id="text_13">
      <text style="font-size: 11px; font-family: 'DejaVu Sans', 'Bitstream Vera Sans', 'Computer Modern Sans Serif', 'Lucida Grande', 'Verdana', 'Geneva', 'Lucid', 'Arial', 'Helvetica', 'Avant Garde', sans-serif; text-anchor: end" x="53.690938" y="133.090658" transform="rotate(-0 53.690938 133.090658)">105.0</text>
     </g>
    </g>
    <g id="ytick_7">
     <g id="line2d_25">
      <path d="M 60.690938 93.235195 
L 558.530937 93.235195 
" clip-path="url(#p20d8593398)" style="fill: none; stroke: #b0b0b0; stroke-opacity: 0.3; stroke-width: 0.8; stroke-linecap: square"/>
     </g>
     <g id="line2d_26">
      <g>
       <use xlink:href="#mc793d098ee" x="60.690938" y="93.235195" style="stroke: #000000; stroke-width: 0.8"/>
      </g>
     </g>
     <g id="text_14">
      <text style="font-size: 11px; font-family: 'DejaVu Sans', 'Bitstream Vera Sans', 'Computer Modern Sans Serif', 'Lucida Grande', 'Verdana', 'Geneva', 'Lucid', 'Arial', 'Helvetica', 'Avant Garde', sans-serif; text-anchor: end" x="53.690938" y="97.413906" transform="rotate(-0 53.690938 97.413906)">107.5</text>
     </g>
    </g>
    <g id="ytick_8">
     <g id="line2d_27">
      <path d="M 60.690938 57.558442 
L 558.530937 57.558442 
" clip-path="url(#p20d8593398)" style="fill: none; stroke: #b0b0b0; stroke-opacity: 0.3; stroke-width: 0.8; stroke-linecap: square"/>
     </g>
     <g id="line2d_28">
      <g>
       <use xlink:href="#mc793d098ee" x="60.690938" y="57.558442" style="stroke: #000000; stroke-width: 0.8"/>
      </g>
     </g>
     <g id="text_15">
      <text style="font-size: 11px; font-family: 'DejaVu Sans', 'Bitstream Vera Sans', 'Computer Modern Sans Serif', 'Lucida Grande', 'Verdana', 'Geneva', 'Lucid', 'Arial', 'Helvetica', 'Avant Garde', sans-serif; text-anchor: end" x="53.690938" y="61.737153" transform="rotate(-0 53.690938 61.737153)">110.0</text>
     </g>
    </g>
    <g id="text_16">
     <text style="font-size: 11px; font-family: 'DejaVu Sans', 'Bitstream Vera Sans', 'Computer Modern Sans Serif', 'Lucida Grande', 'Verdana', 'Geneva', 'Lucid', 'Arial', 'Helvetica', 'Avant Garde', sans-serif; text-anchor: middle" x="15.557422" y="166.823125" transform="rotate(-90 15.557422 166.823125)">Цена</text>
    </g>
   </g>
   <g id="line2d_29">
    <path d="M 83.320028 199.728702 
L 85.594309 178.383697 
L 87.868589 159.158305 
L 90.14287 167.168989 
L 92.41715 171.846446 
L 94.691431 180.125203 
L 96.965711 171.181769 
L 99.239992 172.061855 
L 101.514272 160.337416 
L 103.788553 189.336298 
L 106.062833 164.744974 
L 108.337114 166.258744 
L 110.611394 155.578318 
L 112.885675 157.722106 
L 115.159955 163.673108 
L 117.434236 156.403311 
L 119.708516 143.460286 
L 121.982797 146.639554 
L 124.257077 149.037956 
L 126.531358 138.274016 
L 128.805638 151.936425 
L 131.079919 175.70887 
L 133.354199 169.508535 
L 135.62848 180.034924 
L 137.90276 210.179991 
L 140.177041 222.958819 
L 142.451321 230.299059 
L 144.725602 249.029678 
L 146.999882 272.458035 
L 149.274163 271.882903 
L 151.548443 257.798089 
L 153.822724 261.457743 
L 156.097004 273.130544 
L 158.371285 267.086999 
L 160.645565 255.827995 
L 162.919846 260.537493 
L 165.194126 251.987422 
L 167.468407 235.616602 
L 169.742687 238.865357 
L 172.016968 251.635737 
L 174.291248 246.178398 
L 176.565529 242.292481 
L 178.839809 225.04357 
L 181.11409 245.208625 
L 183.38837 255.594474 
L 185.662651 268.751827 
L 187.936931 295.971995 
L 190.211212 293.987254 
L 192.485492 285.701905 
L 194.759773 297.299261 
L 197.034053 275.547691 
L 199.308334 262.64531 
L 201.582614 252.796898 
L 203.856895 246.490992 
L 206.131175 231.48911 
L 208.405456 252.398225 
L 212.954017 233.298645 
L 215.228297 261.047886 
L 217.502578 255.600287 
L 219.776858 259.531344 
L 222.051139 247.26318 
L 224.325419 254.155477 
L 226.599699 254.441818 
L 228.87398 249.059814 
L 231.14826 262.815169 
L 233.422541 253.418536 
L 235.696821 255.066224 
L 237.971102 247.335344 
L 240.245382 255.52703 
L 242.519663 238.476087 
L 244.793943 228.975765 
L 247.068224 231.770361 
L 249.342504 221.850042 
L 251.616785 202.074694 
L 253.891065 173.95723 
L 256.165346 198.658872 
L 258.439626 184.795671 
L 260.713907 177.495132 
L 262.988187 178.968537 
L 265.262468 194.770933 
L 267.536748 175.035874 
L 269.811029 194.842348 
L 272.085309 185.942568 
L 274.35959 165.506142 
L 276.63387 190.617384 
L 278.908151 195.36624 
L 281.182431 215.918026 
L 283.456712 212.086921 
L 285.730992 188.314606 
L 288.005273 156.549287 
L 290.279553 184.461721 
L 292.553834 193.487139 
L 294.828114 182.443049 
L 297.102395 157.650418 
L 299.376675 151.03835 
L 301.650956 162.751273 
L 303.925236 158.086971 
L 306.199517 158.347855 
L 308.473797 161.54613 
L 310.748078 173.07569 
L 313.022358 166.996575 
L 315.296639 162.163551 
L 317.570919 163.623194 
L 319.8452 167.103201 
L 322.11948 187.273527 
L 324.393761 194.905401 
L 326.668041 175.966831 
L 328.942322 178.95817 
L 331.216602 201.55821 
L 333.490883 180.610432 
L 335.765163 172.286447 
L 338.039444 139.194179 
L 340.313724 138.212877 
L 342.588005 145.455587 
L 344.862285 168.180382 
L 347.136566 147.39907 
L 349.410846 107.063466 
L 351.685127 119.950315 
L 353.959407 130.108149 
L 356.233688 120.749313 
L 358.507968 133.783886 
L 360.782249 138.031049 
L 363.056529 143.522722 
L 365.33081 140.509395 
L 367.60509 123.323186 
L 369.879371 122.976774 
L 372.153651 108.551933 
L 374.427932 115.143253 
L 376.702212 109.997547 
L 378.976493 143.562923 
L 381.250773 166.323876 
L 383.525054 153.829809 
L 385.799334 163.093839 
L 388.073615 153.990467 
L 390.347895 145.476871 
L 392.622176 124.72004 
L 394.896456 111.975663 
L 397.170736 96.011165 
L 399.445017 97.764156 
L 403.993578 120.209519 
L 406.267858 127.870721 
L 408.542139 145.60652 
L 410.816419 154.200164 
L 413.0907 155.653292 
L 415.36498 151.703545 
L 417.639261 157.023375 
L 419.913541 187.220909 
L 422.187822 188.35559 
L 424.462102 184.818164 
L 426.736383 167.794314 
L 429.010663 158.723139 
L 431.284944 168.825607 
L 433.559224 180.187286 
L 435.833505 148.625386 
L 438.107785 136.747856 
L 440.382066 107.998333 
L 442.656346 74.5708 
L 444.930627 87.41289 
L 447.204907 81.365021 
L 449.479188 74.17282 
L 454.027749 56.881499 
L 456.302029 53.709691 
L 458.57631 50.97625 
L 460.85059 74.56215 
L 463.124871 77.15858 
L 465.399151 88.894543 
L 467.673432 86.915254 
L 469.947712 94.254688 
L 472.221993 84.545291 
L 474.496273 71.687627 
L 479.044834 61.87871 
L 481.319115 60.419654 
L 483.593395 67.449083 
L 485.867676 70.031386 
L 488.141956 77.811925 
L 490.416237 71.721392 
L 492.690517 71.499843 
L 494.964798 62.374866 
L 497.239078 83.231684 
L 499.513359 69.295533 
L 504.06192 92.794758 
L 506.3362 95.894173 
L 508.610481 104.738055 
L 510.884761 100.168038 
L 513.159042 109.181145 
L 515.433322 125.969559 
L 517.707603 139.246778 
L 519.981883 118.651564 
L 522.256164 117.956807 
L 524.530444 136.28443 
L 526.804725 136.152924 
L 529.079005 160.577815 
L 531.353286 132.485608 
L 533.627566 156.416518 
L 535.901847 148.901167 
L 535.901847 148.901167 
" clip-path="url(#p20d8593398)" style="fill: none; stroke: #ff7f0e; stroke-width: 1.5; stroke-linecap: square"/>
   </g>
   <g id="line2d_30">
    <path d="M 83.320028 114.104496 
L 85.594309 93.189763 
L 87.868589 74.394644 
L 90.14287 82.8356 
L 92.41715 87.94333 
L 94.691431 96.652358 
L 96.965711 88.139197 
L 99.239992 89.449556 
L 101.514272 78.155389 
L 103.788553 107.584543 
L 106.062833 83.423491 
L 108.337114 85.367534 
L 110.611394 75.117381 
L 112.885675 77.69144 
L 115.159955 84.072715 
L 117.434236 77.23319 
L 119.708516 64.720438 
L 121.982797 68.329978 
L 124.257077 71.158653 
L 126.531358 60.824985 
L 128.805638 74.917666 
L 131.079919 99.120384 
L 133.354199 93.350322 
L 135.62848 104.306983 
L 137.90276 134.882322 
L 140.177041 148.091423 
L 142.451321 155.861935 
L 144.725602 175.022827 
L 146.999882 198.881456 
L 149.274163 198.736596 
L 151.548443 185.082055 
L 153.822724 189.171981 
L 156.097004 201.275054 
L 158.371285 195.661781 
L 160.645565 184.83305 
L 162.919846 189.97282 
L 165.194126 181.853022 
L 167.468407 165.912474 
L 169.742687 169.591501 
L 172.016968 182.792154 
L 174.291248 177.765087 
L 176.565529 174.309443 
L 178.839809 157.490804 
L 181.11409 178.086132 
L 183.38837 188.902252 
L 185.662651 202.489878 
L 187.936931 230.140319 
L 190.211212 228.58585 
L 192.485492 220.730773 
L 194.759773 232.758402 
L 197.034053 211.437104 
L 199.308334 198.964996 
L 201.582614 189.546856 
L 203.856895 183.671223 
L 206.131175 169.099613 
L 208.405456 190.439 
L 212.954017 172.199965 
L 215.228297 200.379479 
L 217.502578 195.362152 
L 219.776858 199.723481 
L 222.051139 187.885589 
L 224.325419 195.208159 
L 226.599699 195.924773 
L 228.87398 190.97304 
L 231.14826 205.158668 
L 233.422541 196.192307 
L 235.696821 198.270268 
L 237.971102 190.969661 
L 240.245382 199.591619 
L 242.519663 182.970948 
L 244.793943 173.900898 
L 247.068224 177.125767 
L 249.342504 167.63572 
L 251.616785 148.290645 
L 253.891065 120.603454 
L 256.165346 145.735368 
L 258.439626 132.302439 
L 260.713907 125.432172 
L 262.988187 127.33585 
L 265.262468 143.568518 
L 267.536748 124.263731 
L 269.811029 144.500478 
L 272.085309 136.03097 
L 274.35959 116.024817 
L 276.63387 141.566332 
L 278.908151 146.74546 
L 281.182431 167.727518 
L 283.456712 164.326685 
L 285.730992 140.984643 
L 288.005273 109.649596 
L 290.279553 137.992302 
L 292.553834 147.447992 
L 294.828114 136.834175 
L 297.102395 112.471817 
L 299.376675 106.290021 
L 301.650956 118.433217 
L 303.925236 114.199187 
L 306.199517 114.890343 
L 308.473797 118.518891 
L 310.748078 130.478723 
L 313.022358 124.82988 
L 315.296639 120.427128 
L 317.570919 122.317044 
L 319.8452 126.227323 
L 322.11948 146.827922 
L 324.393761 154.890069 
L 326.668041 136.38177 
L 328.942322 139.803383 
L 331.216602 162.833694 
L 333.490883 142.316189 
L 335.765163 134.422476 
L 338.039444 101.760481 
L 340.313724 101.209451 
L 342.588005 108.882433 
L 344.862285 132.037501 
L 347.136566 111.686461 
L 349.410846 71.78113 
L 351.685127 85.098251 
L 353.959407 95.686357 
L 356.233688 86.757794 
L 358.507968 100.222639 
L 360.782249 104.900075 
L 363.056529 110.82202 
L 365.33081 108.238965 
L 367.60509 91.483028 
L 369.879371 91.566889 
L 372.153651 77.572321 
L 374.427932 84.593913 
L 376.702212 79.878479 
L 378.976493 113.874127 
L 381.250773 137.065353 
L 383.525054 125.001558 
L 385.799334 134.695861 
L 388.073615 126.022762 
L 390.347895 117.939438 
L 392.622176 97.61288 
L 394.896456 85.298774 
L 397.170736 69.764549 
L 399.445017 71.947813 
L 403.993578 95.253721 
L 406.267858 103.345195 
L 408.542139 121.511266 
L 410.816419 130.535183 
L 413.0907 132.418583 
L 415.36498 128.899108 
L 417.639261 134.649211 
L 419.913541 165.277017 
L 422.187822 166.84197 
L 424.462102 163.734816 
L 426.736383 147.141239 
L 429.010663 138.500336 
L 431.284944 149.033077 
L 433.559224 160.825028 
L 435.833505 129.693401 
L 438.107785 118.246144 
L 440.382066 89.926893 
L 442.656346 56.929632 
L 444.930627 70.201995 
L 447.204907 64.584398 
L 449.479188 57.822469 
L 454.027749 41.391692 
L 456.302029 38.650157 
L 458.57631 36.346989 
L 460.85059 60.363161 
L 463.124871 63.389864 
L 465.399151 75.556099 
L 467.673432 74.007082 
L 469.947712 81.776788 
L 472.221993 72.497664 
L 474.496273 60.070273 
L 479.044834 51.1219 
L 481.319115 50.093117 
L 483.593395 57.552818 
L 485.867676 60.565394 
L 488.141956 68.776205 
L 490.416237 63.115944 
L 492.690517 63.324667 
L 494.964798 54.629963 
L 497.239078 75.917053 
L 499.513359 62.411175 
L 504.06192 86.770944 
L 506.3362 90.300631 
L 508.610481 99.574786 
L 510.884761 95.435042 
L 513.159042 104.878422 
L 515.433322 122.097108 
L 517.707603 135.804599 
L 519.981883 115.639658 
L 522.256164 115.375173 
L 524.530444 134.133068 
L 526.804725 134.431834 
L 529.079005 159.286997 
L 531.353286 131.625064 
L 533.627566 155.986245 
L 535.901847 148.901167 
L 535.901847 148.901167 
" clip-path="url(#p20d8593398)" style="fill: none; stroke: #1f77b4; stroke-width: 1.5; stroke-linecap: square"/>
   </g>
   <g id="line2d_31">
    <path d="M 60.690938 114.104496 
L 558.530937 114.104496 
" clip-path="url(#p20d8593398)" style="fill: none; stroke-dasharray: 0.9,1.485; stroke-dashoffset: 0; stroke: #808080; stroke-width: 0.9"/>
   </g>
   <g id="patch_3">
    <path d="M 60.690938 310.346875 
L 60.690938 23.299375 
" style="fill: none; stroke: #000000; stroke-width: 0.8; stroke-linejoin: miter; stroke-linecap: square"/>
   </g>
   <g id="patch_4">
    <path d="M 558.530937 310.346875 
L 558.530937 23.299375 
" style="fill: none; stroke: #000000; stroke-width: 0.8; stroke-linejoin: miter; stroke-linecap: square"/>
   </g>
   <g id="patch_5">
    <path d="M 60.690938 310.346875 
L 558.530937 310.346875 
" style="fill: none; stroke: #000000; stroke-width: 0.8; stroke-linejoin: miter; stroke-linecap: square"/>
   </g>
   <g id="patch_6">
    <path d="M 60.690938 23.299375 
L 558.530937 23.299375 
" style="fill: none; stroke: #000000; stroke-width: 0.8; stroke-linejoin: miter; stroke-linecap: square"/>
   </g>
   <g id="text_17">
    <text style="font-size: 9px; font-family: 'DejaVu Sans', 'Bitstream Vera Sans', 'Computer Modern Sans Serif', 'Lucida Grande', 'Verdana', 'Geneva', 'Lucid', 'Arial', 'Helvetica', 'Avant Garde', sans-serif; text-anchor: start" x="105.949119" y="106.969145" transform="rotate(-0 105.949119 106.969145)">зафиксированная доходность = базис</text>
   </g>
   <g id="text_18">
    <text style="font-size: 13px; font-family: 'DejaVu Sans', 'Bitstream Vera Sans', 'Computer Modern Sans Serif', 'Lucida Grande', 'Verdana', 'Geneva', 'Lucid', 'Arial', 'Helvetica', 'Avant Garde', sans-serif; text-anchor: middle" x="309.610937" y="17.299375" transform="rotate(-0 309.610937 17.299375)">Cash-and-carry: long спот + short фьючерс фиксирует базис</text>
   </g>
   <g id="legend_1">
    <g id="patch_7">
     <path d="M 409.597812 304.846875 
L 550.830937 304.846875 
Q 553.030937 304.846875 553.030937 302.646875 
L 553.030937 254.244297 
Q 553.030937 252.044297 550.830937 252.044297 
L 409.597812 252.044297 
Q 407.397812 252.044297 407.397812 254.244297 
L 407.397812 302.646875 
Q 407.397812 304.846875 409.597812 304.846875 
z
" style="fill: #ffffff; opacity: 0.8; stroke: #cccccc; stroke-linejoin: miter"/>
    </g>
    <g id="line2d_32">
     <path d="M 411.797812 260.952578 
L 422.797812 260.952578 
L 433.797812 260.952578 
" style="fill: none; stroke: #ff7f0e; stroke-width: 1.5; stroke-linecap: square"/>
    </g>
    <g id="text_19">
     <text style="font-size: 11px; font-family: 'DejaVu Sans', 'Bitstream Vera Sans', 'Computer Modern Sans Serif', 'Lucida Grande', 'Verdana', 'Geneva', 'Lucid', 'Arial', 'Helvetica', 'Avant Garde', sans-serif; text-anchor: start" x="442.597812" y="264.802578" transform="rotate(-0 442.597812 264.802578)">Спот</text>
    </g>
    <g id="line2d_33">
     <path d="M 411.797812 277.453437 
L 422.797812 277.453437 
L 433.797812 277.453437 
" style="fill: none; stroke: #1f77b4; stroke-width: 1.5; stroke-linecap: square"/>
    </g>
    <g id="text_20">
     <text style="font-size: 11px; font-family: 'DejaVu Sans', 'Bitstream Vera Sans', 'Computer Modern Sans Serif', 'Lucida Grande', 'Verdana', 'Geneva', 'Lucid', 'Arial', 'Helvetica', 'Avant Garde', sans-serif; text-anchor: start" x="442.597812" y="281.303437" transform="rotate(-0 442.597812 281.303437)">Фьючерс (продан)</text>
    </g>
    <g id="patch_8">
     <path d="M 411.797812 297.804297 
L 433.797812 297.804297 
L 433.797812 290.104297 
L 411.797812 290.104297 
z
" style="fill: #1f77b4; fill-opacity: 0.15; stroke: #1f77b4; stroke-opacity: 0.15; stroke-linejoin: miter"/>
    </g>
    <g id="text_21">
     <text style="font-size: 11px; font-family: 'DejaVu Sans', 'Bitstream Vera Sans', 'Computer Modern Sans Serif', 'Lucida Grande', 'Verdana', 'Geneva', 'Lucid', 'Arial', 'Helvetica', 'Avant Garde', sans-serif; text-anchor: start" x="442.597812" y="297.804297" transform="rotate(-0 442.597812 297.804297)">Базис → 0</text>
    </g>
   </g>
  </g>
 </g>
 <defs>
  <clipPath id="p20d8593398">
   <rect x="60.690938" y="23.299375" width="497.84" height="287.0475"/>
  </clipPath>
 </defs>
</svg>
