<?xml version="1.0" encoding="utf-8" standalone="no"?>
<!DOCTYPE svg PUBLIC "-//W3C//DTD SVG 1.1//EN"
  "http://www.w3.org/Graphics/SVG/1.1/DTD/svg11.dtd">
<svg xmlns:xlink="http://www.w3.org/1999/xlink" width="566.03625pt" height="350.546875pt" viewBox="0 0 566.03625 350.546875" xmlns="http://www.w3.org/2000/svg" version="1.1">
 <metadata>
  <rdf:RDF xmlns:dc="http://purl.org/dc/elements/1.1/" xmlns:cc="http://creativecommons.org/ns#" xmlns:rdf="http://www.w3.org/1999/02/22-rdf-syntax-ns#">
   <cc:Work>
    <dc:type rdf:resource="http://purl.org/dc/dcmitype/StillImage"/>
    <dc:date>2026-07-06T16:51:31.055959</dc:date>
    <dc:format>image/svg+xml</dc:format>
    <dc:creator>
     <cc:Agent>
      <dc:title>Matplotlib v3.11.0, https://matplotlib.org/</dc:title>
     </cc:Agent>
    </dc:creator>
   </cc:Work>
  </rdf:RDF>
 </metadata>
 <defs>
  <style type="text/css">*{stroke-linejoin: round; stroke-linecap: butt}</style>
 </defs>
 <g id="figure_1">
  <g id="patch_1">
   <path d="M 0 350.546875 
L 566.03625 350.546875 
L 566.03625 0 
L 0 0 
z
" style="fill: #ffffff"/>
  </g>
  <g id="axes_1">
   <g id="patch_2">
    <path d="M 50.19625 310.346875 
L 558.83625 310.346875 
L 558.83625 23.299375 
L 50.19625 23.299375 
z
" style="fill: #ffffff"/>
   </g>
   <g id="FillBetweenPolyCollection_1">
    <path d="M 73.31625 197.295594 
L 73.31625 174.437613 
L 75.158481 174.182612 
L 77.000712 174.726131 
L 78.842943 176.905991 
L 80.685174 179.506914 
L 82.527405 183.292328 
L 84.369636 186.080624 
L 86.211868 185.888368 
L 88.054099 186.641336 
L 89.89633 188.298221 
L 91.738561 188.688904 
L 93.580792 188.366028 
L 95.423023 187.95347 
L 97.265254 189.258016 
L 99.107485 190.261303 
L 100.949716 189.782063 
L 102.791947 191.713788 
L 104.634178 193.870096 
L 106.476409 198.628177 
L 108.31864 204.17208 
L 110.160872 211.142788 
L 112.003103 216.286658 
L 113.845334 221.759548 
L 115.687565 224.738857 
L 117.529796 226.020591 
L 119.372027 226.615635 
L 121.214258 230.687328 
L 123.056489 233.860402 
L 124.89872 235.472821 
L 126.740951 235.627053 
L 128.583182 237.519805 
L 130.425413 238.857364 
L 132.267644 240.619603 
L 134.109875 242.37264 
L 135.952107 240.881953 
L 137.794338 240.227377 
L 139.636569 238.872989 
L 139.636569 249.541483 
L 139.636569 249.541483 
L 137.794338 257.194168 
L 135.952107 250.323755 
L 134.109875 281.007957 
L 132.267644 279.337729 
L 130.425413 273.75338 
L 128.583182 277.412553 
L 126.740951 259.873125 
L 124.89872 272.842568 
L 123.056489 285.276053 
L 121.214258 290.190547 
L 119.372027 254.829004 
L 117.529796 260.414178 
L 115.687565 274.41062 
L 113.845334 293.873545 
L 112.003103 285.439468 
L 110.160872 296.737143 
L 108.31864 276.925188 
L 106.476409 264.308886 
L 104.634178 236.134843 
L 102.791947 231.957297 
L 100.949716 208.326883 
L 99.107485 222.148871 
L 97.265254 223.856906 
L 95.423023 207.098427 
L 93.580792 208.318128 
L 91.738561 215.063031 
L 89.89633 226.068172 
L 88.054099 216.276024 
L 86.211868 207.016048 
L 84.369636 234.033267 
L 82.527405 240.219034 
L 80.685174 225.773202 
L 78.842943 219.382719 
L 77.000712 202.475782 
L 75.158481 194.745577 
L 73.31625 197.295594 
z
" clip-path="url(#pd7c513603b)" style="fill: #1f77b4; fill-opacity: 0.15; stroke: #1f77b4; stroke-opacity: 0.15"/>
    <path d="M 143.321031 234.678397 
L 143.321031 233.091194 
L 145.163262 230.739874 
L 145.163262 232.435976 
L 145.163262 232.435976 
L 143.321031 234.678397 
z
" clip-path="url(#pd7c513603b)" style="fill: #1f77b4; fill-opacity: 0.15; stroke: #1f77b4; stroke-opacity: 0.15"/>
    <path d="M 150.689955 241.911893 
L 150.689955 224.642119 
L 152.532186 223.406826 
L 152.532186 235.147174 
L 152.532186 235.147174 
L 150.689955 241.911893 
z
" clip-path="url(#pd7c513603b)" style="fill: #1f77b4; fill-opacity: 0.15; stroke: #1f77b4; stroke-opacity: 0.15"/>
    <path d="M 156.216648 234.848745 
L 156.216648 218.786327 
L 156.216648 234.848745 
L 156.216648 234.848745 
z
" clip-path="url(#pd7c513603b)" style="fill: #1f77b4; fill-opacity: 0.15; stroke: #1f77b4; stroke-opacity: 0.15"/>
    <path d="M 161.743342 223.823319 
L 161.743342 212.352161 
L 161.743342 223.823319 
L 161.743342 223.823319 
z
" clip-path="url(#pd7c513603b)" style="fill: #1f77b4; fill-opacity: 0.15; stroke: #1f77b4; stroke-opacity: 0.15"/>
    <path d="M 167.270035 205.116441 
L 167.270035 200.371406 
L 169.112266 198.548741 
L 170.954497 196.03812 
L 172.796728 194.377263 
L 174.638959 191.879042 
L 176.48119 190.092595 
L 178.323421 187.605661 
L 178.323421 188.081241 
L 178.323421 188.081241 
L 176.48119 196.872547 
L 174.638959 192.253037 
L 172.796728 202.287529 
L 170.954497 196.300509 
L 169.112266 205.002743 
L 167.270035 205.116441 
z
" clip-path="url(#pd7c513603b)" style="fill: #1f77b4; fill-opacity: 0.15; stroke: #1f77b4; stroke-opacity: 0.15"/>
    <path d="M 182.007883 187.140759 
L 182.007883 181.420144 
L 183.850115 179.798058 
L 185.692346 179.555809 
L 187.534577 179.323687 
L 189.376808 181.356461 
L 191.219039 183.981587 
L 193.06127 186.339048 
L 194.903501 186.577903 
L 196.745732 184.823692 
L 198.587963 185.85766 
L 200.430194 188.015751 
L 202.272425 188.479586 
L 204.114656 192.187387 
L 205.956887 195.566487 
L 207.799119 197.963174 
L 209.64135 197.19452 
L 211.483581 194.97054 
L 213.325812 193.311025 
L 215.168043 191.97971 
L 217.010274 190.473104 
L 217.010274 199.771629 
L 217.010274 199.771629 
L 215.168043 202.855851 
L 213.325812 201.233373 
L 211.483581 197.812703 
L 209.64135 213.134614 
L 207.799119 242.391339 
L 205.956887 248.836371 
L 204.114656 248.415573 
L 202.272425 215.512082 
L 200.430194 230.296551 
L 198.587963 218.021355 
L 196.745732 191.893773 
L 194.903501 211.58558 
L 193.06127 230.414177 
L 191.219039 230.465704 
L 189.376808 222.5094 
L 187.534577 200.092572 
L 185.692346 200.233548 
L 183.850115 188.057269 
L 182.007883 187.140759 
z
" clip-path="url(#pd7c513603b)" style="fill: #1f77b4; fill-opacity: 0.15; stroke: #1f77b4; stroke-opacity: 0.15"/>
    <path d="M 250.170433 115.438387 
L 250.170433 78.064179 
L 252.012664 80.510927 
L 253.854895 87.222791 
L 255.697126 97.688231 
L 257.539358 107.837343 
L 259.381589 118.612119 
L 261.22382 127.818212 
L 263.066051 132.101388 
L 264.908282 137.906889 
L 266.750513 144.332238 
L 268.592744 149.638337 
L 270.434975 153.496823 
L 272.277206 157.339081 
L 274.119437 161.131357 
L 275.961668 163.247331 
L 277.803899 164.391636 
L 279.64613 167.455463 
L 281.488362 170.24053 
L 283.330593 172.571147 
L 285.172824 176.391298 
L 287.015055 178.987976 
L 288.857286 182.550854 
L 290.699517 183.625134 
L 292.541748 184.179404 
L 294.383979 184.517203 
L 296.22621 185.85547 
L 298.068441 187.09809 
L 299.910672 191.469246 
L 301.752903 196.58537 
L 303.595134 199.597529 
L 305.437366 205.273882 
L 307.279597 207.713749 
L 309.121828 212.16597 
L 310.964059 213.732438 
L 312.80629 215.887813 
L 314.648521 215.654066 
L 316.490752 214.772321 
L 318.332983 216.287392 
L 320.175214 214.767894 
L 320.175214 223.950393 
L 320.175214 223.950393 
L 318.332983 252.781008 
L 316.490752 229.694598 
L 314.648521 236.408327 
L 312.80629 258.14417 
L 310.964059 250.688627 
L 309.121828 275.093942 
L 307.279597 252.530526 
L 305.437366 279.219045 
L 303.595134 249.564943 
L 301.752903 265.488469 
L 299.910672 253.667626 
L 298.068441 221.139656 
L 296.22621 220.757852 
L 294.383979 210.415374 
L 292.541748 212.025811 
L 290.699517 216.151636 
L 288.857286 237.474741 
L 287.015055 225.216054 
L 285.172824 233.630645 
L 283.330593 216.40468 
L 281.488362 218.164111 
L 279.64613 217.887889 
L 277.803899 197.548357 
L 275.961668 205.149083 
L 274.119437 218.11982 
L 272.277206 214.777384 
L 270.434975 211.081182 
L 268.592744 220.25121 
L 266.750513 225.018357 
L 264.908282 213.014374 
L 263.066051 193.507956 
L 261.22382 233.531029 
L 259.381589 238.443084 
L 257.539358 222.037332 
L 255.697126 214.73517 
L 253.854895 170.487557 
L 252.012664 125.389633 
L 250.170433 115.438387 
z
" clip-path="url(#pd7c513603b)" style="fill: #1f77b4; fill-opacity: 0.15; stroke: #1f77b4; stroke-opacity: 0.15"/>
    <path d="M 325.701907 207.403442 
L 325.701907 205.137647 
L 327.544138 203.427707 
L 329.38637 203.572853 
L 331.228601 201.529328 
L 333.070832 200.721414 
L 334.913063 199.996976 
L 336.755294 200.61941 
L 338.597525 201.937955 
L 340.439756 204.863653 
L 342.281987 204.577247 
L 344.124218 204.344678 
L 345.966449 202.23594 
L 347.80868 200.413632 
L 349.650911 200.048801 
L 351.493142 200.135759 
L 353.335374 200.95495 
L 355.177605 201.325705 
L 357.019836 202.015815 
L 358.862067 202.800002 
L 360.704298 205.48864 
L 362.546529 208.554106 
L 364.38876 207.623368 
L 366.230991 207.745918 
L 368.073222 209.298597 
L 369.915453 209.490613 
L 369.915453 234.076746 
L 369.915453 234.076746 
L 368.073222 246.130688 
L 366.230991 231.706841 
L 364.38876 222.104708 
L 362.546529 259.001285 
L 360.704298 252.544363 
L 358.862067 232.715663 
L 357.019836 231.084792 
L 355.177605 227.520476 
L 353.335374 231.185648 
L 351.493142 223.776364 
L 349.650911 219.62331 
L 347.80868 206.870834 
L 345.966449 206.115287 
L 344.124218 225.109537 
L 342.281987 224.857572 
L 340.439756 254.052917 
L 338.597525 236.662835 
L 336.755294 229.079304 
L 334.913063 216.335011 
L 333.070832 216.308169 
L 331.228601 205.995584 
L 329.38637 227.737148 
L 327.544138 210.896229 
L 325.701907 207.403442 
z
" clip-path="url(#pd7c513603b)" style="fill: #1f77b4; fill-opacity: 0.15; stroke: #1f77b4; stroke-opacity: 0.15"/>
    <path d="M 373.599915 231.554734 
L 373.599915 207.021439 
L 375.442146 207.147584 
L 377.284377 207.921652 
L 379.126609 211.043702 
L 380.96884 211.482915 
L 382.811071 211.115104 
L 384.653302 209.827938 
L 386.495533 209.074468 
L 386.495533 225.151217 
L 386.495533 225.151217 
L 384.653302 221.101428 
L 382.811071 230.662782 
L 380.96884 238.293815 
L 379.126609 262.000133 
L 377.284377 237.746242 
L 375.442146 231.140872 
L 373.599915 231.554734 
z
" clip-path="url(#pd7c513603b)" style="fill: #1f77b4; fill-opacity: 0.15; stroke: #1f77b4; stroke-opacity: 0.15"/>
    <path d="M 412.286768 141.019494 
L 412.286768 138.681307 
L 414.128999 137.734624 
L 415.97123 136.058013 
L 417.813461 134.874331 
L 419.655692 134.653799 
L 421.497923 136.774385 
L 423.340154 141.95156 
L 425.182385 145.238438 
L 427.024617 146.981854 
L 428.866848 149.398028 
L 430.709079 151.052373 
L 432.55131 151.670682 
L 434.393541 151.404822 
L 436.235772 150.321493 
L 438.078003 151.005742 
L 439.920234 149.598464 
L 441.762465 151.404268 
L 443.604696 151.932866 
L 445.446927 152.139107 
L 447.289158 151.452446 
L 447.289158 168.13048 
L 447.289158 168.13048 
L 445.446927 176.85326 
L 443.604696 179.548227 
L 441.762465 190.51449 
L 439.920234 159.790936 
L 438.078003 180.02197 
L 436.235772 163.429509 
L 434.393541 171.870065 
L 432.55131 180.093443 
L 430.709079 188.799458 
L 428.866848 194.001577 
L 427.024617 185.530576 
L 425.182385 197.678322 
L 423.340154 211.404115 
L 421.497923 178.717641 
L 419.655692 155.526992 
L 417.813461 147.079171 
L 415.97123 143.826498 
L 414.128999 152.072462 
L 412.286768 141.019494 
z
" clip-path="url(#pd7c513603b)" style="fill: #1f77b4; fill-opacity: 0.15; stroke: #1f77b4; stroke-opacity: 0.15"/>
    <path d="M 452.815852 164.730238 
L 452.815852 144.07563 
L 454.658083 147.5936 
L 456.500314 149.529777 
L 458.342545 153.404255 
L 460.184776 156.920639 
L 462.027007 158.648604 
L 463.869238 163.283237 
L 465.711469 170.77877 
L 467.5537 176.188956 
L 469.395931 180.331208 
L 471.238162 183.96065 
L 473.080393 186.658854 
L 474.922625 190.162522 
L 476.764856 195.31699 
L 478.607087 199.288015 
L 480.449318 203.694324 
L 482.291549 209.494212 
L 484.13378 212.533749 
L 485.976011 214.453607 
L 487.818242 214.710396 
L 489.660473 216.128144 
L 491.502704 217.809308 
L 493.344935 220.239176 
L 495.187166 222.985156 
L 497.029397 224.059989 
L 498.871628 225.559456 
L 500.71386 225.3926 
L 502.556091 224.026963 
L 502.556091 234.594211 
L 502.556091 234.594211 
L 500.71386 246.74888 
L 498.871628 261.912644 
L 497.029397 256.591463 
L 495.187166 270.556959 
L 493.344935 264.965971 
L 491.502704 255.797758 
L 489.660473 251.745862 
L 487.818242 239.879474 
L 485.976011 254.590317 
L 484.13378 262.747562 
L 482.291549 284.551181 
L 480.449318 266.209088 
L 478.607087 257.885224 
L 476.764856 264.565182 
L 474.922625 244.553515 
L 473.080393 233.800669 
L 471.238162 239.483608 
L 469.395931 240.46946 
L 467.5537 247.738608 
L 465.711469 261.096546 
L 463.869238 227.852922 
L 462.027007 197.058263 
L 460.184776 211.426083 
L 458.342545 211.132535 
L 456.500314 189.813348 
L 454.658083 202.113315 
L 452.815852 164.730238 
z
" clip-path="url(#pd7c513603b)" style="fill: #1f77b4; fill-opacity: 0.15; stroke: #1f77b4; stroke-opacity: 0.15"/>
    <path d="M 506.240553 222.463594 
L 506.240553 216.981213 
L 506.240553 222.463594 
L 506.240553 222.463594 
z
" clip-path="url(#pd7c513603b)" style="fill: #1f77b4; fill-opacity: 0.15; stroke: #1f77b4; stroke-opacity: 0.15"/>
    <path d="M 511.767246 208.845098 
L 511.767246 208.212829 
L 513.609477 208.525091 
L 515.451708 209.18805 
L 517.293939 208.03486 
L 519.13617 206.977604 
L 520.978401 205.729826 
L 522.820632 205.001248 
L 522.820632 221.302027 
L 522.820632 221.302027 
L 520.978401 217.357805 
L 519.13617 220.32028 
L 517.293939 220.514126 
L 515.451708 238.012669 
L 513.609477 234.19343 
L 511.767246 208.845098 
z
" clip-path="url(#pd7c513603b)" style="fill: #1f77b4; fill-opacity: 0.15; stroke: #1f77b4; stroke-opacity: 0.15"/>
    <path d="M 526.505095 202.255259 
L 526.505095 199.911834 
L 528.347326 201.800536 
L 530.189557 204.145472 
L 532.031788 208.973649 
L 533.874019 215.520412 
L 535.71625 221.412499 
L 535.71625 297.299261 
L 535.71625 297.299261 
L 533.874019 297.299261 
L 532.031788 275.285222 
L 530.189557 248.107872 
L 528.347326 241.656837 
L 526.505095 202.255259 
z
" clip-path="url(#pd7c513603b)" style="fill: #1f77b4; fill-opacity: 0.15; stroke: #1f77b4; stroke-opacity: 0.15"/>
   </g>
   <g id="FillBetweenPolyCollection_2">
    <path d="M 141.4788 227.547221 
L 141.4788 235.454614 
L 141.4788 227.547221 
L 141.4788 227.547221 
z
" clip-path="url(#pd7c513603b)" style="fill: #d62728; fill-opacity: 0.25; stroke: #d62728; stroke-opacity: 0.25"/>
    <path d="M 147.005493 226.78849 
L 147.005493 228.058938 
L 148.847724 225.263031 
L 148.847724 222.957849 
L 148.847724 222.957849 
L 147.005493 226.78849 
z
" clip-path="url(#pd7c513603b)" style="fill: #d62728; fill-opacity: 0.25; stroke: #d62728; stroke-opacity: 0.25"/>
    <path d="M 154.374417 207.610442 
L 154.374417 219.54139 
L 154.374417 207.610442 
L 154.374417 207.610442 
z
" clip-path="url(#pd7c513603b)" style="fill: #d62728; fill-opacity: 0.25; stroke: #d62728; stroke-opacity: 0.25"/>
    <path d="M 158.058879 215.927886 
L 158.058879 216.214685 
L 159.901111 213.617364 
L 159.901111 213.099452 
L 159.901111 213.099452 
L 158.058879 215.927886 
z
" clip-path="url(#pd7c513603b)" style="fill: #d62728; fill-opacity: 0.25; stroke: #d62728; stroke-opacity: 0.25"/>
    <path d="M 163.585573 187.325739 
L 163.585573 207.563721 
L 165.427804 202.383955 
L 165.427804 178.624047 
L 165.427804 178.624047 
L 163.585573 187.325739 
z
" clip-path="url(#pd7c513603b)" style="fill: #d62728; fill-opacity: 0.25; stroke: #d62728; stroke-opacity: 0.25"/>
    <path d="M 180.165652 167.649986 
L 180.165652 183.324296 
L 180.165652 167.649986 
L 180.165652 167.649986 
z
" clip-path="url(#pd7c513603b)" style="fill: #d62728; fill-opacity: 0.25; stroke: #d62728; stroke-opacity: 0.25"/>
    <path d="M 218.852505 163.946273 
L 218.852505 185.534622 
L 220.694736 181.162994 
L 222.536967 176.704772 
L 224.379198 170.749446 
L 226.221429 164.225673 
L 228.06366 157.1835 
L 229.905891 151.174989 
L 231.748123 143.958863 
L 233.590354 136.64972 
L 235.432585 126.700154 
L 237.274816 116.045882 
L 239.117047 106.52621 
L 240.959278 97.22249 
L 242.801509 90.42885 
L 244.64374 83.702236 
L 246.485971 79.426183 
L 248.328202 76.451265 
L 248.328202 72.534983 
L 248.328202 72.534983 
L 246.485971 63.799687 
L 244.64374 46.020693 
L 242.801509 52.144076 
L 240.959278 36.346989 
L 239.117047 43.707144 
L 237.274816 43.015411 
L 235.432585 60.012045 
L 233.590354 93.725409 
L 231.748123 101.871712 
L 229.905891 119.956371 
L 228.06366 116.66192 
L 226.221429 128.369699 
L 224.379198 140.009498 
L 222.536967 159.438755 
L 220.694736 164.676317 
L 218.852505 163.946273 
z
" clip-path="url(#pd7c513603b)" style="fill: #d62728; fill-opacity: 0.25; stroke: #d62728; stroke-opacity: 0.25"/>
    <path d="M 322.017445 197.008166 
L 322.017445 210.706123 
L 323.859676 207.425667 
L 323.859676 200.759551 
L 323.859676 200.759551 
L 322.017445 197.008166 
z
" clip-path="url(#pd7c513603b)" style="fill: #d62728; fill-opacity: 0.25; stroke: #d62728; stroke-opacity: 0.25"/>
    <path d="M 371.757684 205.795394 
L 371.757684 206.835293 
L 371.757684 205.795394 
L 371.757684 205.795394 
z
" clip-path="url(#pd7c513603b)" style="fill: #d62728; fill-opacity: 0.25; stroke: #d62728; stroke-opacity: 0.25"/>
    <path d="M 388.337764 204.977633 
L 388.337764 206.378986 
L 390.179995 203.673448 
L 392.022226 199.968929 
L 393.864457 196.886771 
L 395.706688 194.179728 
L 397.548919 187.179275 
L 399.39115 180.169104 
L 401.233381 171.927217 
L 403.075613 163.653526 
L 404.917844 156.512293 
L 406.760075 150.861785 
L 408.602306 144.928956 
L 410.444537 140.961284 
L 410.444537 128.110213 
L 410.444537 128.110213 
L 408.602306 114.391479 
L 406.760075 122.865187 
L 404.917844 115.099179 
L 403.075613 112.048294 
L 401.233381 120.608207 
L 399.39115 139.935553 
L 397.548919 147.033171 
L 395.706688 192.674324 
L 393.864457 192.005332 
L 392.022226 189.48624 
L 390.179995 202.181584 
L 388.337764 204.977633 
z
" clip-path="url(#pd7c513603b)" style="fill: #d62728; fill-opacity: 0.25; stroke: #d62728; stroke-opacity: 0.25"/>
    <path d="M 449.131389 143.740219 
L 449.131389 148.395426 
L 450.973621 144.320449 
L 450.973621 130.503644 
L 450.973621 130.503644 
L 449.131389 143.740219 
z
" clip-path="url(#pd7c513603b)" style="fill: #d62728; fill-opacity: 0.25; stroke: #d62728; stroke-opacity: 0.25"/>
    <path d="M 504.398322 195.733664 
L 504.398322 218.911835 
L 504.398322 195.733664 
L 504.398322 195.733664 
z
" clip-path="url(#pd7c513603b)" style="fill: #d62728; fill-opacity: 0.25; stroke: #d62728; stroke-opacity: 0.25"/>
    <path d="M 508.082784 205.283135 
L 508.082784 213.525607 
L 509.925015 210.682352 
L 509.925015 207.951036 
L 509.925015 207.951036 
L 508.082784 205.283135 
z
" clip-path="url(#pd7c513603b)" style="fill: #d62728; fill-opacity: 0.25; stroke: #d62728; stroke-opacity: 0.25"/>
    <path d="M 524.662864 199.759042 
L 524.662864 202.191229 
L 524.662864 199.759042 
L 524.662864 199.759042 
z
" clip-path="url(#pd7c513603b)" style="fill: #d62728; fill-opacity: 0.25; stroke: #d62728; stroke-opacity: 0.25"/>
   </g>
   <g id="matplotlib.axis_1">
    <g id="xtick_1">
     <g id="line2d_1">
      <path d="M 73.31625 310.346875 
L 73.31625 23.299375 
" clip-path="url(#pd7c513603b)" style="fill: none; stroke: #b0b0b0; stroke-opacity: 0.3; stroke-width: 0.8; stroke-linecap: square"/>
     </g>
     <g id="line2d_2">
      <defs>
       <path id="m2af76da05b" d="M 0 0 
L 0 3.5 
" style="stroke: #000000; stroke-width: 0.8"/>
      </defs>
      <g>
       <use xlink:href="#m2af76da05b" x="73.31625" y="310.346875" style="stroke: #000000; stroke-width: 0.8"/>
      </g>
     </g>
     <g id="text_1">
      <text style="font-size: 11px; font-family: 'DejaVu Sans', 'Bitstream Vera Sans', 'Computer Modern Sans Serif', 'Lucida Grande', 'Verdana', 'Geneva', 'Lucid', 'Arial', 'Helvetica', 'Avant Garde', sans-serif; text-anchor: middle" x="73.31625" y="325.704297" transform="rotate(-0 73.31625 325.704297)">0</text>
     </g>
    </g>
    <g id="xtick_2">
     <g id="line2d_3">
      <path d="M 165.427804 310.346875 
L 165.427804 23.299375 
" clip-path="url(#pd7c513603b)" style="fill: none; stroke: #b0b0b0; stroke-opacity: 0.3; stroke-width: 0.8; stroke-linecap: square"/>
     </g>
     <g id="line2d_4">
      <g>
       <use xlink:href="#m2af76da05b" x="165.427804" y="310.346875" style="stroke: #000000; stroke-width: 0.8"/>
      </g>
     </g>
     <g id="text_2">
      <text style="font-size: 11px; font-family: 'DejaVu Sans', 'Bitstream Vera Sans', 'Computer Modern Sans Serif', 'Lucida Grande', 'Verdana', 'Geneva', 'Lucid', 'Arial', 'Helvetica', 'Avant Garde', sans-serif; text-anchor: middle" x="165.427804" y="325.704297" transform="rotate(-0 165.427804 325.704297)">50</text>
     </g>
    </g>
    <g id="xtick_3">
     <g id="line2d_5">
      <path d="M 257.539358 310.346875 
L 257.539358 23.299375 
" clip-path="url(#pd7c513603b)" style="fill: none; stroke: #b0b0b0; stroke-opacity: 0.3; stroke-width: 0.8; stroke-linecap: square"/>
     </g>
     <g id="line2d_6">
      <g>
       <use xlink:href="#m2af76da05b" x="257.539358" y="310.346875" style="stroke: #000000; stroke-width: 0.8"/>
      </g>
     </g>
     <g id="text_3">
      <text style="font-size: 11px; font-family: 'DejaVu Sans', 'Bitstream Vera Sans', 'Computer Modern Sans Serif', 'Lucida Grande', 'Verdana', 'Geneva', 'Lucid', 'Arial', 'Helvetica', 'Avant Garde', sans-serif; text-anchor: middle" x="257.539358" y="325.704297" transform="rotate(-0 257.539358 325.704297)">100</text>
     </g>
    </g>
    <g id="xtick_4">
     <g id="line2d_7">
      <path d="M 349.650911 310.346875 
L 349.650911 23.299375 
" clip-path="url(#pd7c513603b)" style="fill: none; stroke: #b0b0b0; stroke-opacity: 0.3; stroke-width: 0.8; stroke-linecap: square"/>
     </g>
     <g id="line2d_8">
      <g>
       <use xlink:href="#m2af76da05b" x="349.650911" y="310.346875" style="stroke: #000000; stroke-width: 0.8"/>
      </g>
     </g>
     <g id="text_4">
      <text style="font-size: 11px; font-family: 'DejaVu Sans', 'Bitstream Vera Sans', 'Computer Modern Sans Serif', 'Lucida Grande', 'Verdana', 'Geneva', 'Lucid', 'Arial', 'Helvetica', 'Avant Garde', sans-serif; text-anchor: middle" x="349.650911" y="325.704297" transform="rotate(-0 349.650911 325.704297)">150</text>
     </g>
    </g>
    <g id="xtick_5">
     <g id="line2d_9">
      <path d="M 441.762465 310.346875 
L 441.762465 23.299375 
" clip-path="url(#pd7c513603b)" style="fill: none; stroke: #b0b0b0; stroke-opacity: 0.3; stroke-width: 0.8; stroke-linecap: square"/>
     </g>
     <g id="line2d_10">
      <g>
       <use xlink:href="#m2af76da05b" x="441.762465" y="310.346875" style="stroke: #000000; stroke-width: 0.8"/>
      </g>
     </g>
     <g id="text_5">
      <text style="font-size: 11px; font-family: 'DejaVu Sans', 'Bitstream Vera Sans', 'Computer Modern Sans Serif', 'Lucida Grande', 'Verdana', 'Geneva', 'Lucid', 'Arial', 'Helvetica', 'Avant Garde', sans-serif; text-anchor: middle" x="441.762465" y="325.704297" transform="rotate(-0 441.762465 325.704297)">200</text>
     </g>
    </g>
    <g id="xtick_6">
     <g id="line2d_11">
      <path d="M 533.874019 310.346875 
L 533.874019 23.299375 
" clip-path="url(#pd7c513603b)" style="fill: none; stroke: #b0b0b0; stroke-opacity: 0.3; stroke-width: 0.8; stroke-linecap: square"/>
     </g>
     <g id="line2d_12">
      <g>
       <use xlink:href="#m2af76da05b" x="533.874019" y="310.346875" style="stroke: #000000; stroke-width: 0.8"/>
      </g>
     </g>
     <g id="text_6">
      <text style="font-size: 11px; font-family: 'DejaVu Sans', 'Bitstream Vera Sans', 'Computer Modern Sans Serif', 'Lucida Grande', 'Verdana', 'Geneva', 'Lucid', 'Arial', 'Helvetica', 'Avant Garde', sans-serif; text-anchor: middle" x="533.874019" y="325.704297" transform="rotate(-0 533.874019 325.704297)">250</text>
     </g>
    </g>
    <g id="text_7">
     <text style="font-size: 11px; font-family: 'DejaVu Sans', 'Bitstream Vera Sans', 'Computer Modern Sans Serif', 'Lucida Grande', 'Verdana', 'Geneva', 'Lucid', 'Arial', 'Helvetica', 'Avant Garde', sans-serif; text-anchor: middle" x="304.51625" y="340.704297" transform="rotate(-0 304.51625 340.704297)">Дни</text>
    </g>
   </g>
   <g id="matplotlib.axis_2">
    <g id="ytick_1">
     <g id="line2d_13">
      <path d="M 50.19625 297.299261 
L 558.83625 297.299261 
" clip-path="url(#pd7c513603b)" style="fill: none; stroke: #b0b0b0; stroke-opacity: 0.3; stroke-width: 0.8; stroke-linecap: square"/>
     </g>
     <g id="line2d_14">
      <defs>
       <path id="m1a6bfb24d2" d="M 0 0 
L -3.5 0 
" style="stroke: #000000; stroke-width: 0.8"/>
      </defs>
      <g>
       <use xlink:href="#m1a6bfb24d2" x="50.19625" y="297.299261" style="stroke: #000000; stroke-width: 0.8"/>
      </g>
     </g>
     <g id="text_8">
      <text style="font-size: 11px; font-family: 'DejaVu Sans', 'Bitstream Vera Sans', 'Computer Modern Sans Serif', 'Lucida Grande', 'Verdana', 'Geneva', 'Lucid', 'Arial', 'Helvetica', 'Avant Garde', sans-serif; text-anchor: end" x="43.19625" y="301.477972" transform="rotate(-0 43.19625 301.477972)">20</text>
     </g>
    </g>
    <g id="ytick_2">
     <g id="line2d_15">
      <path d="M 50.19625 240.154309 
L 558.83625 240.154309 
" clip-path="url(#pd7c513603b)" style="fill: none; stroke: #b0b0b0; stroke-opacity: 0.3; stroke-width: 0.8; stroke-linecap: square"/>
     </g>
     <g id="line2d_16">
      <g>
       <use xlink:href="#m1a6bfb24d2" x="50.19625" y="240.154309" style="stroke: #000000; stroke-width: 0.8"/>
      </g>
     </g>
     <g id="text_9">
      <text style="font-size: 11px; font-family: 'DejaVu Sans', 'Bitstream Vera Sans', 'Computer Modern Sans Serif', 'Lucida Grande', 'Verdana', 'Geneva', 'Lucid', 'Arial', 'Helvetica', 'Avant Garde', sans-serif; text-anchor: end" x="43.19625" y="244.33302" transform="rotate(-0 43.19625 244.33302)">40</text>
     </g>
    </g>
    <g id="ytick_3">
     <g id="line2d_17">
      <path d="M 50.19625 183.009356 
L 558.83625 183.009356 
" clip-path="url(#pd7c513603b)" style="fill: none; stroke: #b0b0b0; stroke-opacity: 0.3; stroke-width: 0.8; stroke-linecap: square"/>
     </g>
     <g id="line2d_18">
      <g>
       <use xlink:href="#m1a6bfb24d2" x="50.19625" y="183.009356" style="stroke: #000000; stroke-width: 0.8"/>
      </g>
     </g>
     <g id="text_10">
      <text style="font-size: 11px; font-family: 'DejaVu Sans', 'Bitstream Vera Sans', 'Computer Modern Sans Serif', 'Lucida Grande', 'Verdana', 'Geneva', 'Lucid', 'Arial', 'Helvetica', 'Avant Garde', sans-serif; text-anchor: end" x="43.19625" y="187.188067" transform="rotate(-0 43.19625 187.188067)">60</text>
     </g>
    </g>
    <g id="ytick_4">
     <g id="line2d_19">
      <path d="M 50.19625 125.864404 
L 558.83625 125.864404 
" clip-path="url(#pd7c513603b)" style="fill: none; stroke: #b0b0b0; stroke-opacity: 0.3; stroke-width: 0.8; stroke-linecap: square"/>
     </g>
     <g id="line2d_20">
      <g>
       <use xlink:href="#m1a6bfb24d2" x="50.19625" y="125.864404" style="stroke: #000000; stroke-width: 0.8"/>
      </g>
     </g>
     <g id="text_11">
      <text style="font-size: 11px; font-family: 'DejaVu Sans', 'Bitstream Vera Sans', 'Computer Modern Sans Serif', 'Lucida Grande', 'Verdana', 'Geneva', 'Lucid', 'Arial', 'Helvetica', 'Avant Garde', sans-serif; text-anchor: end" x="43.19625" y="130.043115" transform="rotate(-0 43.19625 130.043115)">80</text>
     </g>
    </g>
    <g id="ytick_5">
     <g id="line2d_21">
      <path d="M 50.19625 68.719451 
L 558.83625 68.719451 
" clip-path="url(#pd7c513603b)" style="fill: none; stroke: #b0b0b0; stroke-opacity: 0.3; stroke-width: 0.8; stroke-linecap: square"/>
     </g>
     <g id="line2d_22">
      <g>
       <use xlink:href="#m1a6bfb24d2" x="50.19625" y="68.719451" style="stroke: #000000; stroke-width: 0.8"/>
      </g>
     </g>
     <g id="text_12">
      <text style="font-size: 11px; font-family: 'DejaVu Sans', 'Bitstream Vera Sans', 'Computer Modern Sans Serif', 'Lucida Grande', 'Verdana', 'Geneva', 'Lucid', 'Arial', 'Helvetica', 'Avant Garde', sans-serif; text-anchor: end" x="43.19625" y="72.898162" transform="rotate(-0 43.19625 72.898162)">100</text>
     </g>
    </g>
    <g id="text_13">
     <text style="font-size: 11px; font-family: 'DejaVu Sans', 'Bitstream Vera Sans', 'Computer Modern Sans Serif', 'Lucida Grande', 'Verdana', 'Geneva', 'Lucid', 'Arial', 'Helvetica', 'Avant Garde', sans-serif; text-anchor: middle" x="15.557422" y="166.823125" transform="rotate(-90 15.557422 166.823125)">Волатильность, %</text>
    </g>
   </g>
   <g id="line2d_23">
    <path d="M 73.31625 174.437613 
L 75.158481 174.182612 
L 77.000712 174.726131 
L 78.842943 176.905991 
L 80.685174 179.506914 
L 82.527405 183.292328 
L 84.369636 186.080624 
L 86.211868 185.888368 
L 88.054099 186.641336 
L 89.89633 188.298221 
L 91.738561 188.688904 
L 95.423023 187.95347 
L 97.265254 189.258016 
L 99.107485 190.261303 
L 100.949716 189.782063 
L 102.791947 191.713788 
L 104.634178 193.870096 
L 106.476409 198.628177 
L 108.31864 204.17208 
L 110.160872 211.142788 
L 113.845334 221.759548 
L 115.687565 224.738857 
L 117.529796 226.020591 
L 119.372027 226.615635 
L 121.214258 230.687328 
L 123.056489 233.860402 
L 124.89872 235.472821 
L 126.740951 235.627053 
L 128.583182 237.519805 
L 130.425413 238.857364 
L 134.109875 242.37264 
L 135.952107 240.881953 
L 137.794338 240.227377 
L 139.636569 238.872989 
L 141.4788 235.454614 
L 145.163262 230.739874 
L 148.847724 225.263031 
L 150.689955 224.642119 
L 152.532186 223.406826 
L 154.374417 219.54139 
L 156.216648 218.786327 
L 159.901111 213.617364 
L 161.743342 212.352161 
L 163.585573 207.563721 
L 165.427804 202.383955 
L 167.270035 200.371406 
L 169.112266 198.548741 
L 170.954497 196.03812 
L 172.796728 194.377263 
L 174.638959 191.879042 
L 176.48119 190.092595 
L 178.323421 187.605661 
L 180.165652 183.324296 
L 182.007883 181.420144 
L 183.850115 179.798058 
L 187.534577 179.323687 
L 189.376808 181.356461 
L 191.219039 183.981587 
L 193.06127 186.339048 
L 194.903501 186.577903 
L 196.745732 184.823692 
L 198.587963 185.85766 
L 200.430194 188.015751 
L 202.272425 188.479586 
L 204.114656 192.187387 
L 205.956887 195.566487 
L 207.799119 197.963174 
L 209.64135 197.19452 
L 211.483581 194.97054 
L 213.325812 193.311025 
L 215.168043 191.97971 
L 217.010274 190.473104 
L 218.852505 185.534622 
L 222.536967 176.704772 
L 224.379198 170.749446 
L 226.221429 164.225673 
L 228.06366 157.1835 
L 229.905891 151.174989 
L 233.590354 136.64972 
L 235.432585 126.700154 
L 237.274816 116.045882 
L 240.959278 97.22249 
L 244.64374 83.702236 
L 246.485971 79.426183 
L 248.328202 76.451265 
L 250.170433 78.064179 
L 252.012664 80.510927 
L 253.854895 87.222791 
L 259.381589 118.612119 
L 261.22382 127.818212 
L 263.066051 132.101388 
L 264.908282 137.906889 
L 266.750513 144.332238 
L 268.592744 149.638337 
L 274.119437 161.131357 
L 275.961668 163.247331 
L 277.803899 164.391636 
L 279.64613 167.455463 
L 281.488362 170.24053 
L 283.330593 172.571147 
L 285.172824 176.391298 
L 287.015055 178.987976 
L 288.857286 182.550854 
L 290.699517 183.625134 
L 292.541748 184.179404 
L 294.383979 184.517203 
L 298.068441 187.09809 
L 299.910672 191.469246 
L 301.752903 196.58537 
L 303.595134 199.597529 
L 305.437366 205.273882 
L 307.279597 207.713749 
L 309.121828 212.16597 
L 310.964059 213.732438 
L 312.80629 215.887813 
L 314.648521 215.654066 
L 316.490752 214.772321 
L 318.332983 216.287392 
L 320.175214 214.767894 
L 322.017445 210.706123 
L 323.859676 207.425667 
L 325.701907 205.137647 
L 327.544138 203.427707 
L 329.38637 203.572853 
L 331.228601 201.529328 
L 334.913063 199.996976 
L 336.755294 200.61941 
L 338.597525 201.937955 
L 340.439756 204.863653 
L 344.124218 204.344678 
L 345.966449 202.23594 
L 347.80868 200.413632 
L 349.650911 200.048801 
L 351.493142 200.135759 
L 353.335374 200.95495 
L 355.177605 201.325705 
L 358.862067 202.800002 
L 360.704298 205.48864 
L 362.546529 208.554106 
L 364.38876 207.623368 
L 366.230991 207.745918 
L 368.073222 209.298597 
L 369.915453 209.490613 
L 371.757684 206.835293 
L 375.442146 207.147584 
L 377.284377 207.921652 
L 379.126609 211.043702 
L 380.96884 211.482915 
L 382.811071 211.115104 
L 384.653302 209.827938 
L 386.495533 209.074468 
L 390.179995 203.673448 
L 392.022226 199.968929 
L 393.864457 196.886771 
L 395.706688 194.179728 
L 399.39115 180.169104 
L 403.075613 163.653526 
L 404.917844 156.512293 
L 408.602306 144.928956 
L 410.444537 140.961284 
L 412.286768 138.681307 
L 414.128999 137.734624 
L 415.97123 136.058013 
L 417.813461 134.874331 
L 419.655692 134.653799 
L 421.497923 136.774385 
L 423.340154 141.95156 
L 425.182385 145.238438 
L 427.024617 146.981854 
L 428.866848 149.398028 
L 430.709079 151.052373 
L 432.55131 151.670682 
L 434.393541 151.404822 
L 436.235772 150.321493 
L 438.078003 151.005742 
L 439.920234 149.598464 
L 441.762465 151.404268 
L 443.604696 151.932866 
L 445.446927 152.139107 
L 447.289158 151.452446 
L 449.131389 148.395426 
L 450.973621 144.320449 
L 452.815852 144.07563 
L 454.658083 147.5936 
L 456.500314 149.529777 
L 458.342545 153.404255 
L 460.184776 156.920639 
L 462.027007 158.648604 
L 463.869238 163.283237 
L 465.711469 170.77877 
L 467.5537 176.188956 
L 469.395931 180.331208 
L 471.238162 183.96065 
L 473.080393 186.658854 
L 474.922625 190.162522 
L 476.764856 195.31699 
L 478.607087 199.288015 
L 480.449318 203.694324 
L 482.291549 209.494212 
L 484.13378 212.533749 
L 485.976011 214.453607 
L 487.818242 214.710396 
L 489.660473 216.128144 
L 491.502704 217.809308 
L 493.344935 220.239176 
L 495.187166 222.985156 
L 497.029397 224.059989 
L 498.871628 225.559456 
L 500.71386 225.3926 
L 502.556091 224.026963 
L 504.398322 218.911835 
L 506.240553 216.981213 
L 508.082784 213.525607 
L 509.925015 210.682352 
L 511.767246 208.212829 
L 513.609477 208.525091 
L 515.451708 209.18805 
L 520.978401 205.729826 
L 522.820632 205.001248 
L 524.662864 202.191229 
L 526.505095 199.911834 
L 528.347326 201.800536 
L 530.189557 204.145472 
L 532.031788 208.973649 
L 533.874019 215.520412 
L 535.71625 221.412499 
L 535.71625 221.412499 
" clip-path="url(#pd7c513603b)" style="fill: none; stroke: #1f77b4; stroke-width: 1.5; stroke-linecap: square"/>
   </g>
   <g id="line2d_24">
    <path d="M 73.31625 197.295594 
L 75.158481 194.745577 
L 77.000712 202.475782 
L 78.842943 219.382719 
L 80.685174 225.773202 
L 82.527405 240.219034 
L 84.369636 234.033267 
L 86.211868 207.016048 
L 89.89633 226.068172 
L 91.738561 215.063031 
L 93.580792 208.318128 
L 95.423023 207.098427 
L 97.265254 223.856906 
L 99.107485 222.148871 
L 100.949716 208.326883 
L 102.791947 231.957297 
L 104.634178 236.134843 
L 106.476409 264.308886 
L 108.31864 276.925188 
L 110.160872 296.737143 
L 112.003103 285.439468 
L 113.845334 293.873545 
L 115.687565 274.41062 
L 117.529796 260.414178 
L 119.372027 254.829004 
L 121.214258 290.190547 
L 123.056489 285.276053 
L 126.740951 259.873125 
L 128.583182 277.412553 
L 130.425413 273.75338 
L 132.267644 279.337729 
L 134.109875 281.007957 
L 135.952107 250.323755 
L 137.794338 257.194168 
L 139.636569 249.541483 
L 141.4788 227.547221 
L 143.321031 234.678397 
L 145.163262 232.435976 
L 147.005493 226.78849 
L 148.847724 222.957849 
L 150.689955 241.911893 
L 152.532186 235.147174 
L 154.374417 207.610442 
L 156.216648 234.848745 
L 158.058879 215.927886 
L 159.901111 213.099452 
L 161.743342 223.823319 
L 163.585573 187.325739 
L 165.427804 178.624047 
L 167.270035 205.116441 
L 169.112266 205.002743 
L 170.954497 196.300509 
L 172.796728 202.287529 
L 174.638959 192.253037 
L 176.48119 196.872547 
L 178.323421 188.081241 
L 180.165652 167.649986 
L 182.007883 187.140759 
L 183.850115 188.057269 
L 185.692346 200.233548 
L 187.534577 200.092572 
L 189.376808 222.5094 
L 191.219039 230.465704 
L 193.06127 230.414177 
L 196.745732 191.893773 
L 198.587963 218.021355 
L 200.430194 230.296551 
L 202.272425 215.512082 
L 204.114656 248.415573 
L 205.956887 248.836371 
L 207.799119 242.391339 
L 209.64135 213.134614 
L 211.483581 197.812703 
L 213.325812 201.233373 
L 215.168043 202.855851 
L 217.010274 199.771629 
L 218.852505 163.946273 
L 220.694736 164.676317 
L 222.536967 159.438755 
L 224.379198 140.009498 
L 228.06366 116.66192 
L 229.905891 119.956371 
L 231.748123 101.871712 
L 233.590354 93.725409 
L 235.432585 60.012045 
L 237.274816 43.015411 
L 239.117047 43.707144 
L 240.959278 36.346989 
L 242.801509 52.144076 
L 244.64374 46.020693 
L 246.485971 63.799687 
L 248.328202 72.534983 
L 250.170433 115.438387 
L 252.012664 125.389633 
L 255.697126 214.73517 
L 257.539358 222.037332 
L 259.381589 238.443084 
L 261.22382 233.531029 
L 263.066051 193.507956 
L 264.908282 213.014374 
L 266.750513 225.018357 
L 268.592744 220.25121 
L 270.434975 211.081182 
L 272.277206 214.777384 
L 274.119437 218.11982 
L 275.961668 205.149083 
L 277.803899 197.548357 
L 279.64613 217.887889 
L 281.488362 218.164111 
L 283.330593 216.40468 
L 285.172824 233.630645 
L 287.015055 225.216054 
L 288.857286 237.474741 
L 290.699517 216.151636 
L 292.541748 212.025811 
L 294.383979 210.415374 
L 296.22621 220.757852 
L 298.068441 221.139656 
L 299.910672 253.667626 
L 301.752903 265.488469 
L 303.595134 249.564943 
L 305.437366 279.219045 
L 307.279597 252.530526 
L 309.121828 275.093942 
L 310.964059 250.688627 
L 312.80629 258.14417 
L 314.648521 236.408327 
L 316.490752 229.694598 
L 318.332983 252.781008 
L 320.175214 223.950393 
L 322.017445 197.008166 
L 323.859676 200.759551 
L 325.701907 207.403442 
L 327.544138 210.896229 
L 329.38637 227.737148 
L 331.228601 205.995584 
L 333.070832 216.308169 
L 334.913063 216.335011 
L 336.755294 229.079304 
L 338.597525 236.662835 
L 340.439756 254.052917 
L 342.281987 224.857572 
L 344.124218 225.109537 
L 345.966449 206.115287 
L 347.80868 206.870834 
L 349.650911 219.62331 
L 351.493142 223.776364 
L 353.335374 231.185648 
L 355.177605 227.520476 
L 357.019836 231.084792 
L 358.862067 232.715663 
L 360.704298 252.544363 
L 362.546529 259.001285 
L 364.38876 222.104708 
L 366.230991 231.706841 
L 368.073222 246.130688 
L 369.915453 234.076746 
L 371.757684 205.795394 
L 373.599915 231.554734 
L 375.442146 231.140872 
L 377.284377 237.746242 
L 379.126609 262.000133 
L 380.96884 238.293815 
L 382.811071 230.662782 
L 384.653302 221.101428 
L 386.495533 225.151217 
L 388.337764 204.977633 
L 390.179995 202.181584 
L 392.022226 189.48624 
L 393.864457 192.005332 
L 395.706688 192.674324 
L 397.548919 147.033171 
L 399.39115 139.935553 
L 401.233381 120.608207 
L 403.075613 112.048294 
L 404.917844 115.099179 
L 406.760075 122.865187 
L 408.602306 114.391479 
L 412.286768 141.019494 
L 414.128999 152.072462 
L 415.97123 143.826498 
L 417.813461 147.079171 
L 419.655692 155.526992 
L 421.497923 178.717641 
L 423.340154 211.404115 
L 425.182385 197.678322 
L 427.024617 185.530576 
L 428.866848 194.001577 
L 430.709079 188.799458 
L 434.393541 171.870065 
L 436.235772 163.429509 
L 438.078003 180.02197 
L 439.920234 159.790936 
L 441.762465 190.51449 
L 443.604696 179.548227 
L 445.446927 176.85326 
L 447.289158 168.13048 
L 449.131389 143.740219 
L 450.973621 130.503644 
L 452.815852 164.730238 
L 454.658083 202.113315 
L 456.500314 189.813348 
L 458.342545 211.132535 
L 460.184776 211.426083 
L 462.027007 197.058263 
L 463.869238 227.852922 
L 465.711469 261.096546 
L 467.5537 247.738608 
L 469.395931 240.46946 
L 471.238162 239.483608 
L 473.080393 233.800669 
L 474.922625 244.553515 
L 476.764856 264.565182 
L 478.607087 257.885224 
L 480.449318 266.209088 
L 482.291549 284.551181 
L 484.13378 262.747562 
L 485.976011 254.590317 
L 487.818242 239.879474 
L 489.660473 251.745862 
L 491.502704 255.797758 
L 493.344935 264.965971 
L 495.187166 270.556959 
L 497.029397 256.591463 
L 498.871628 261.912644 
L 500.71386 246.74888 
L 502.556091 234.594211 
L 504.398322 195.733664 
L 506.240553 222.463594 
L 508.082784 205.283135 
L 509.925015 207.951036 
L 511.767246 208.845098 
L 513.609477 234.19343 
L 515.451708 238.012669 
L 517.293939 220.514126 
L 519.13617 220.32028 
L 520.978401 217.357805 
L 522.820632 221.302027 
L 524.662864 199.759042 
L 526.505095 202.255259 
L 528.347326 241.656837 
L 530.189557 248.107872 
L 532.031788 275.285222 
L 533.874019 297.299261 
L 535.71625 297.299261 
L 535.71625 297.299261 
" clip-path="url(#pd7c513603b)" style="fill: none; stroke: #d62728; stroke-width: 1.5; stroke-linecap: square"/>
   </g>
   <g id="patch_3">
    <path d="M 50.19625 310.346875 
L 50.19625 23.299375 
" style="fill: none; stroke: #000000; stroke-width: 0.8; stroke-linejoin: miter; stroke-linecap: square"/>
   </g>
   <g id="patch_4">
    <path d="M 558.83625 310.346875 
L 558.83625 23.299375 
" style="fill: none; stroke: #000000; stroke-width: 0.8; stroke-linejoin: miter; stroke-linecap: square"/>
   </g>
   <g id="patch_5">
    <path d="M 50.19625 310.346875 
L 558.83625 310.346875 
" style="fill: none; stroke: #000000; stroke-width: 0.8; stroke-linejoin: miter; stroke-linecap: square"/>
   </g>
   <g id="patch_6">
    <path d="M 50.19625 23.299375 
L 558.83625 23.299375 
" style="fill: none; stroke: #000000; stroke-width: 0.8; stroke-linejoin: miter; stroke-linecap: square"/>
   </g>
   <g id="text_14">
    <text style="font-size: 13px; font-family: 'DejaVu Sans', 'Bitstream Vera Sans', 'Computer Modern Sans Serif', 'Lucida Grande', 'Verdana', 'Geneva', 'Lucid', 'Arial', 'Helvetica', 'Avant Garde', sans-serif; text-anchor: middle" x="304.51625" y="17.299375" transform="rotate(-0 304.51625 17.299375)">Volatility risk premium: IV обычно выше RV, но схлопывается в стресс</text>
   </g>
   <g id="legend_1">
    <g id="patch_7">
     <path d="M 355.285781 84.502187 
L 552.53625 84.502187 
Q 554.33625 84.502187 554.33625 82.702187 
L 554.33625 29.599375 
Q 554.33625 27.799375 552.53625 27.799375 
L 355.285781 27.799375 
Q 353.485781 27.799375 353.485781 29.599375 
L 353.485781 82.702187 
Q 353.485781 84.502187 355.285781 84.502187 
z
" style="fill: #ffffff; opacity: 0.8; stroke: #cccccc; stroke-linejoin: miter"/>
    </g>
    <g id="line2d_25">
     <path d="M 357.085781 35.087969 
L 366.085781 35.087969 
L 375.085781 35.087969 
" style="fill: none; stroke: #1f77b4; stroke-width: 1.5; stroke-linecap: square"/>
    </g>
    <g id="text_15">
     <text style="font-size: 9px; font-family: 'DejaVu Sans', 'Bitstream Vera Sans', 'Computer Modern Sans Serif', 'Lucida Grande', 'Verdana', 'Geneva', 'Lucid', 'Arial', 'Helvetica', 'Avant Garde', sans-serif; text-anchor: start" x="382.285781" y="38.237969" transform="rotate(-0 382.285781 38.237969)">Implied vol (IV)</text>
    </g>
    <g id="line2d_26">
     <path d="M 357.085781 48.588672 
L 366.085781 48.588672 
L 375.085781 48.588672 
" style="fill: none; stroke: #d62728; stroke-width: 1.5; stroke-linecap: square"/>
    </g>
    <g id="text_16">
     <text style="font-size: 9px; font-family: 'DejaVu Sans', 'Bitstream Vera Sans', 'Computer Modern Sans Serif', 'Lucida Grande', 'Verdana', 'Geneva', 'Lucid', 'Arial', 'Helvetica', 'Avant Garde', sans-serif; text-anchor: start" x="382.285781" y="51.738672" transform="rotate(-0 382.285781 51.738672)">Realized vol (RV)</text>
    </g>
    <g id="patch_8">
     <path d="M 357.085781 65.239375 
L 375.085781 65.239375 
L 375.085781 58.939375 
L 357.085781 58.939375 
z
" style="fill: #1f77b4; fill-opacity: 0.15; stroke: #1f77b4; stroke-opacity: 0.15; stroke-linejoin: miter"/>
    </g>
    <g id="text_17">
     <text style="font-size: 9px; font-family: 'DejaVu Sans', 'Bitstream Vera Sans', 'Computer Modern Sans Serif', 'Lucida Grande', 'Verdana', 'Geneva', 'Lucid', 'Arial', 'Helvetica', 'Avant Garde', sans-serif; text-anchor: start" x="382.285781" y="65.239375" transform="rotate(-0 382.285781 65.239375)">VRP &gt; 0 (продавец воли в плюсе)</text>
    </g>
    <g id="patch_9">
     <path d="M 357.085781 78.740078 
L 375.085781 78.740078 
L 375.085781 72.440078 
L 357.085781 72.440078 
z
" style="fill: #d62728; fill-opacity: 0.25; stroke: #d62728; stroke-opacity: 0.25; stroke-linejoin: miter"/>
    </g>
    <g id="text_18">
     <text style="font-size: 9px; font-family: 'DejaVu Sans', 'Bitstream Vera Sans', 'Computer Modern Sans Serif', 'Lucida Grande', 'Verdana', 'Geneva', 'Lucid', 'Arial', 'Helvetica', 'Avant Garde', sans-serif; text-anchor: start" x="382.285781" y="78.740078" transform="rotate(-0 382.285781 78.740078)">VRP &lt; 0 (стресс, short vol в минусе)</text>
    </g>
   </g>
  </g>
 </g>
 <defs>
  <clipPath id="pd7c513603b">
   <rect x="50.19625" y="23.299375" width="508.64" height="287.0475"/>
  </clipPath>
 </defs>
</svg>
