<?xml version="1.0" encoding="utf-8" standalone="no"?>
<!DOCTYPE svg PUBLIC "-//W3C//DTD SVG 1.1//EN"
  "http://www.w3.org/Graphics/SVG/1.1/DTD/svg11.dtd">
<svg xmlns:xlink="http://www.w3.org/1999/xlink" width="566.296406pt" height="350.438828pt" viewBox="0 0 566.296406 350.438828" xmlns="http://www.w3.org/2000/svg" version="1.1">
 <metadata>
  <rdf:RDF xmlns:dc="http://purl.org/dc/elements/1.1/" xmlns:cc="http://creativecommons.org/ns#" xmlns:rdf="http://www.w3.org/1999/02/22-rdf-syntax-ns#">
   <cc:Work>
    <dc:type rdf:resource="http://purl.org/dc/dcmitype/StillImage"/>
    <dc:date>2026-07-09T16:59:14.519288</dc:date>
    <dc:format>image/svg+xml</dc:format>
    <dc:creator>
     <cc:Agent>
      <dc:title>Matplotlib v3.11.0, https://matplotlib.org/</dc:title>
     </cc:Agent>
    </dc:creator>
   </cc:Work>
  </rdf:RDF>
 </metadata>
 <defs>
  <style type="text/css">*{stroke-linejoin: round; stroke-linecap: butt}</style>
 </defs>
 <g id="figure_1">
  <g id="patch_1">
   <path d="M 0 350.438828 
L 566.296406 350.438828 
L 566.296406 0 
L 0 0 
z
" style="fill: #ffffff"/>
  </g>
  <g id="axes_1">
   <g id="patch_2">
    <path d="M 45.416406 310.237969 
L 559.096406 310.237969 
L 559.096406 23.077969 
L 45.416406 23.077969 
z
" style="fill: #ffffff"/>
   </g>
   <g id="matplotlib.axis_1">
    <g id="xtick_1">
     <g id="line2d_1">
      <path d="M 68.765497 310.237969 
L 68.765497 23.077969 
" clip-path="url(#p71e70751b1)" style="fill: none; stroke: #b0b0b0; stroke-opacity: 0.3; stroke-width: 0.8; stroke-linecap: square"/>
     </g>
     <g id="line2d_2">
      <defs>
       <path id="mfa1f0105c9" d="M 0 0 
L 0 3.5 
" style="stroke: #000000; stroke-width: 0.8"/>
      </defs>
      <g>
       <use xlink:href="#mfa1f0105c9" x="68.765497" y="310.237969" style="stroke: #000000; stroke-width: 0.8"/>
      </g>
     </g>
     <g id="text_1">
      <text style="font-size: 11px; font-family: 'DejaVu Sans', 'Bitstream Vera Sans', 'Computer Modern Sans Serif', 'Lucida Grande', 'Verdana', 'Geneva', 'Lucid', 'Arial', 'Helvetica', 'Avant Garde', sans-serif; text-anchor: middle" x="68.765497" y="325.595391" transform="rotate(-0 68.765497 325.595391)">−40</text>
     </g>
    </g>
    <g id="xtick_2">
     <g id="line2d_3">
      <path d="M 127.138224 310.237969 
L 127.138224 23.077969 
" clip-path="url(#p71e70751b1)" style="fill: none; stroke: #b0b0b0; stroke-opacity: 0.3; stroke-width: 0.8; stroke-linecap: square"/>
     </g>
     <g id="line2d_4">
      <g>
       <use xlink:href="#mfa1f0105c9" x="127.138224" y="310.237969" style="stroke: #000000; stroke-width: 0.8"/>
      </g>
     </g>
     <g id="text_2">
      <text style="font-size: 11px; font-family: 'DejaVu Sans', 'Bitstream Vera Sans', 'Computer Modern Sans Serif', 'Lucida Grande', 'Verdana', 'Geneva', 'Lucid', 'Arial', 'Helvetica', 'Avant Garde', sans-serif; text-anchor: middle" x="127.138224" y="325.595391" transform="rotate(-0 127.138224 325.595391)">−30</text>
     </g>
    </g>
    <g id="xtick_3">
     <g id="line2d_5">
      <path d="M 185.510952 310.237969 
L 185.510952 23.077969 
" clip-path="url(#p71e70751b1)" style="fill: none; stroke: #b0b0b0; stroke-opacity: 0.3; stroke-width: 0.8; stroke-linecap: square"/>
     </g>
     <g id="line2d_6">
      <g>
       <use xlink:href="#mfa1f0105c9" x="185.510952" y="310.237969" style="stroke: #000000; stroke-width: 0.8"/>
      </g>
     </g>
     <g id="text_3">
      <text style="font-size: 11px; font-family: 'DejaVu Sans', 'Bitstream Vera Sans', 'Computer Modern Sans Serif', 'Lucida Grande', 'Verdana', 'Geneva', 'Lucid', 'Arial', 'Helvetica', 'Avant Garde', sans-serif; text-anchor: middle" x="185.510952" y="325.595391" transform="rotate(-0 185.510952 325.595391)">−20</text>
     </g>
    </g>
    <g id="xtick_4">
     <g id="line2d_7">
      <path d="M 243.883679 310.237969 
L 243.883679 23.077969 
" clip-path="url(#p71e70751b1)" style="fill: none; stroke: #b0b0b0; stroke-opacity: 0.3; stroke-width: 0.8; stroke-linecap: square"/>
     </g>
     <g id="line2d_8">
      <g>
       <use xlink:href="#mfa1f0105c9" x="243.883679" y="310.237969" style="stroke: #000000; stroke-width: 0.8"/>
      </g>
     </g>
     <g id="text_4">
      <text style="font-size: 11px; font-family: 'DejaVu Sans', 'Bitstream Vera Sans', 'Computer Modern Sans Serif', 'Lucida Grande', 'Verdana', 'Geneva', 'Lucid', 'Arial', 'Helvetica', 'Avant Garde', sans-serif; text-anchor: middle" x="243.883679" y="325.595391" transform="rotate(-0 243.883679 325.595391)">−10</text>
     </g>
    </g>
    <g id="xtick_5">
     <g id="line2d_9">
      <path d="M 302.256406 310.237969 
L 302.256406 23.077969 
" clip-path="url(#p71e70751b1)" style="fill: none; stroke: #b0b0b0; stroke-opacity: 0.3; stroke-width: 0.8; stroke-linecap: square"/>
     </g>
     <g id="line2d_10">
      <g>
       <use xlink:href="#mfa1f0105c9" x="302.256406" y="310.237969" style="stroke: #000000; stroke-width: 0.8"/>
      </g>
     </g>
     <g id="text_5">
      <text style="font-size: 11px; font-family: 'DejaVu Sans', 'Bitstream Vera Sans', 'Computer Modern Sans Serif', 'Lucida Grande', 'Verdana', 'Geneva', 'Lucid', 'Arial', 'Helvetica', 'Avant Garde', sans-serif; text-anchor: middle" x="302.256406" y="325.595391" transform="rotate(-0 302.256406 325.595391)">0</text>
     </g>
    </g>
    <g id="xtick_6">
     <g id="line2d_11">
      <path d="M 360.629134 310.237969 
L 360.629134 23.077969 
" clip-path="url(#p71e70751b1)" style="fill: none; stroke: #b0b0b0; stroke-opacity: 0.3; stroke-width: 0.8; stroke-linecap: square"/>
     </g>
     <g id="line2d_12">
      <g>
       <use xlink:href="#mfa1f0105c9" x="360.629134" y="310.237969" style="stroke: #000000; stroke-width: 0.8"/>
      </g>
     </g>
     <g id="text_6">
      <text style="font-size: 11px; font-family: 'DejaVu Sans', 'Bitstream Vera Sans', 'Computer Modern Sans Serif', 'Lucida Grande', 'Verdana', 'Geneva', 'Lucid', 'Arial', 'Helvetica', 'Avant Garde', sans-serif; text-anchor: middle" x="360.629134" y="325.595391" transform="rotate(-0 360.629134 325.595391)">10</text>
     </g>
    </g>
    <g id="xtick_7">
     <g id="line2d_13">
      <path d="M 419.001861 310.237969 
L 419.001861 23.077969 
" clip-path="url(#p71e70751b1)" style="fill: none; stroke: #b0b0b0; stroke-opacity: 0.3; stroke-width: 0.8; stroke-linecap: square"/>
     </g>
     <g id="line2d_14">
      <g>
       <use xlink:href="#mfa1f0105c9" x="419.001861" y="310.237969" style="stroke: #000000; stroke-width: 0.8"/>
      </g>
     </g>
     <g id="text_7">
      <text style="font-size: 11px; font-family: 'DejaVu Sans', 'Bitstream Vera Sans', 'Computer Modern Sans Serif', 'Lucida Grande', 'Verdana', 'Geneva', 'Lucid', 'Arial', 'Helvetica', 'Avant Garde', sans-serif; text-anchor: middle" x="419.001861" y="325.595391" transform="rotate(-0 419.001861 325.595391)">20</text>
     </g>
    </g>
    <g id="xtick_8">
     <g id="line2d_15">
      <path d="M 477.374588 310.237969 
L 477.374588 23.077969 
" clip-path="url(#p71e70751b1)" style="fill: none; stroke: #b0b0b0; stroke-opacity: 0.3; stroke-width: 0.8; stroke-linecap: square"/>
     </g>
     <g id="line2d_16">
      <g>
       <use xlink:href="#mfa1f0105c9" x="477.374588" y="310.237969" style="stroke: #000000; stroke-width: 0.8"/>
      </g>
     </g>
     <g id="text_8">
      <text style="font-size: 11px; font-family: 'DejaVu Sans', 'Bitstream Vera Sans', 'Computer Modern Sans Serif', 'Lucida Grande', 'Verdana', 'Geneva', 'Lucid', 'Arial', 'Helvetica', 'Avant Garde', sans-serif; text-anchor: middle" x="477.374588" y="325.595391" transform="rotate(-0 477.374588 325.595391)">30</text>
     </g>
    </g>
    <g id="xtick_9">
     <g id="line2d_17">
      <path d="M 535.747315 310.237969 
L 535.747315 23.077969 
" clip-path="url(#p71e70751b1)" style="fill: none; stroke: #b0b0b0; stroke-opacity: 0.3; stroke-width: 0.8; stroke-linecap: square"/>
     </g>
     <g id="line2d_18">
      <g>
       <use xlink:href="#mfa1f0105c9" x="535.747315" y="310.237969" style="stroke: #000000; stroke-width: 0.8"/>
      </g>
     </g>
     <g id="text_9">
      <text style="font-size: 11px; font-family: 'DejaVu Sans', 'Bitstream Vera Sans', 'Computer Modern Sans Serif', 'Lucida Grande', 'Verdana', 'Geneva', 'Lucid', 'Arial', 'Helvetica', 'Avant Garde', sans-serif; text-anchor: middle" x="535.747315" y="325.595391" transform="rotate(-0 535.747315 325.595391)">40</text>
     </g>
    </g>
    <g id="text_10">
     <text style="font-size: 11px; font-family: 'DejaVu Sans', 'Bitstream Vera Sans', 'Computer Modern Sans Serif', 'Lucida Grande', 'Verdana', 'Geneva', 'Lucid', 'Arial', 'Helvetica', 'Avant Garde', sans-serif; text-anchor: middle" x="302.256406" y="340.59625" transform="rotate(-0 302.256406 340.59625)">Движение актива за период, dS</text>
    </g>
   </g>
   <g id="matplotlib.axis_2">
    <g id="ytick_1">
     <g id="line2d_19">
      <path d="M 45.416406 264.553423 
L 559.096406 264.553423 
" clip-path="url(#p71e70751b1)" style="fill: none; stroke: #b0b0b0; stroke-opacity: 0.3; stroke-width: 0.8; stroke-linecap: square"/>
     </g>
     <g id="line2d_20">
      <defs>
       <path id="mc171f66881" d="M 0 0 
L -3.5 0 
" style="stroke: #000000; stroke-width: 0.8"/>
      </defs>
      <g>
       <use xlink:href="#mc171f66881" x="45.416406" y="264.553423" style="stroke: #000000; stroke-width: 0.8"/>
      </g>
     </g>
     <g id="text_11">
      <text style="font-size: 11px; font-family: 'DejaVu Sans', 'Bitstream Vera Sans', 'Computer Modern Sans Serif', 'Lucida Grande', 'Verdana', 'Geneva', 'Lucid', 'Arial', 'Helvetica', 'Avant Garde', sans-serif; text-anchor: end" x="38.416406" y="268.732134" transform="rotate(-0 38.416406 268.732134)">−5</text>
     </g>
    </g>
    <g id="ytick_2">
     <g id="line2d_21">
      <path d="M 45.416406 210.16706 
L 559.096406 210.16706 
" clip-path="url(#p71e70751b1)" style="fill: none; stroke: #b0b0b0; stroke-opacity: 0.3; stroke-width: 0.8; stroke-linecap: square"/>
     </g>
     <g id="line2d_22">
      <g>
       <use xlink:href="#mc171f66881" x="45.416406" y="210.16706" style="stroke: #000000; stroke-width: 0.8"/>
      </g>
     </g>
     <g id="text_12">
      <text style="font-size: 11px; font-family: 'DejaVu Sans', 'Bitstream Vera Sans', 'Computer Modern Sans Serif', 'Lucida Grande', 'Verdana', 'Geneva', 'Lucid', 'Arial', 'Helvetica', 'Avant Garde', sans-serif; text-anchor: end" x="38.416406" y="214.345771" transform="rotate(-0 38.416406 214.345771)">0</text>
     </g>
    </g>
    <g id="ytick_3">
     <g id="line2d_23">
      <path d="M 45.416406 155.780696 
L 559.096406 155.780696 
" clip-path="url(#p71e70751b1)" style="fill: none; stroke: #b0b0b0; stroke-opacity: 0.3; stroke-width: 0.8; stroke-linecap: square"/>
     </g>
     <g id="line2d_24">
      <g>
       <use xlink:href="#mc171f66881" x="45.416406" y="155.780696" style="stroke: #000000; stroke-width: 0.8"/>
      </g>
     </g>
     <g id="text_13">
      <text style="font-size: 11px; font-family: 'DejaVu Sans', 'Bitstream Vera Sans', 'Computer Modern Sans Serif', 'Lucida Grande', 'Verdana', 'Geneva', 'Lucid', 'Arial', 'Helvetica', 'Avant Garde', sans-serif; text-anchor: end" x="38.416406" y="159.959407" transform="rotate(-0 38.416406 159.959407)">5</text>
     </g>
    </g>
    <g id="ytick_4">
     <g id="line2d_25">
      <path d="M 45.416406 101.394332 
L 559.096406 101.394332 
" clip-path="url(#p71e70751b1)" style="fill: none; stroke: #b0b0b0; stroke-opacity: 0.3; stroke-width: 0.8; stroke-linecap: square"/>
     </g>
     <g id="line2d_26">
      <g>
       <use xlink:href="#mc171f66881" x="45.416406" y="101.394332" style="stroke: #000000; stroke-width: 0.8"/>
      </g>
     </g>
     <g id="text_14">
      <text style="font-size: 11px; font-family: 'DejaVu Sans', 'Bitstream Vera Sans', 'Computer Modern Sans Serif', 'Lucida Grande', 'Verdana', 'Geneva', 'Lucid', 'Arial', 'Helvetica', 'Avant Garde', sans-serif; text-anchor: end" x="38.416406" y="105.573043" transform="rotate(-0 38.416406 105.573043)">10</text>
     </g>
    </g>
    <g id="ytick_5">
     <g id="line2d_27">
      <path d="M 45.416406 47.007969 
L 559.096406 47.007969 
" clip-path="url(#p71e70751b1)" style="fill: none; stroke: #b0b0b0; stroke-opacity: 0.3; stroke-width: 0.8; stroke-linecap: square"/>
     </g>
     <g id="line2d_28">
      <g>
       <use xlink:href="#mc171f66881" x="45.416406" y="47.007969" style="stroke: #000000; stroke-width: 0.8"/>
      </g>
     </g>
     <g id="text_15">
      <text style="font-size: 11px; font-family: 'DejaVu Sans', 'Bitstream Vera Sans', 'Computer Modern Sans Serif', 'Lucida Grande', 'Verdana', 'Geneva', 'Lucid', 'Arial', 'Helvetica', 'Avant Garde', sans-serif; text-anchor: end" x="38.416406" y="51.18668" transform="rotate(-0 38.416406 51.18668)">15</text>
     </g>
    </g>
    <g id="text_16">
     <text style="font-size: 11px; font-family: 'DejaVu Sans', 'Bitstream Vera Sans', 'Computer Modern Sans Serif', 'Lucida Grande', 'Verdana', 'Geneva', 'Lucid', 'Arial', 'Helvetica', 'Avant Garde', sans-serif; text-anchor: middle" x="15.557422" y="166.657969" transform="rotate(-90 15.557422 166.657969)">PnL</text>
    </g>
   </g>
   <g id="line2d_29">
    <path d="M 68.765497 36.130696 
L 76.958161 48.12951 
L 85.150824 59.699794 
L 93.343488 70.84155 
L 101.536151 81.554776 
L 108.558434 90.396468 
L 115.580717 98.923321 
L 122.603 107.135337 
L 129.625283 115.032516 
L 136.647566 122.614856 
L 143.669849 129.882359 
L 150.692132 136.835025 
L 157.714415 143.472852 
L 164.736698 149.795842 
L 171.758981 155.803995 
L 178.781264 161.497309 
L 185.803547 166.875786 
L 192.82583 171.939425 
L 199.848113 176.688227 
L 206.870396 181.122191 
L 212.722298 184.57666 
L 218.574201 187.812492 
L 224.426103 190.829686 
L 230.278006 193.628243 
L 236.129908 196.208163 
L 241.981811 198.569445 
L 247.833713 200.712091 
L 253.685616 202.636099 
L 259.537518 204.341469 
L 265.389421 205.828203 
L 271.241323 207.096299 
L 277.093226 208.145758 
L 282.945128 208.97658 
L 288.797031 209.588764 
L 294.648933 209.982311 
L 300.500836 210.157221 
L 306.352738 210.113494 
L 312.20464 209.851129 
L 318.056543 209.370127 
L 323.908445 208.670488 
L 329.760348 207.752211 
L 335.61225 206.615297 
L 341.464153 205.259746 
L 347.316055 203.685558 
L 353.167958 201.892732 
L 359.01986 199.881269 
L 364.871763 197.651169 
L 370.723665 195.202431 
L 376.575568 192.535057 
L 382.42747 189.649045 
L 388.279373 186.544395 
L 394.131275 183.221109 
L 399.983178 179.679185 
L 407.005461 175.140275 
L 414.027744 170.286528 
L 421.050027 165.117942 
L 428.07231 159.63452 
L 435.094593 153.836259 
L 442.116876 147.723161 
L 449.139159 141.295225 
L 456.161442 134.552451 
L 463.183725 127.49484 
L 470.206008 120.122391 
L 477.228291 112.435105 
L 484.250573 104.432981 
L 491.272856 96.116019 
L 498.295139 87.484219 
L 505.317422 78.537582 
L 512.339705 69.276107 
L 520.532369 58.073133 
L 528.725032 46.44163 
L 535.747315 36.130696 
L 535.747315 36.130696 
" clip-path="url(#p71e70751b1)" style="fill: none; stroke: #2ca02c; stroke-width: 1.5; stroke-linecap: square"/>
   </g>
   <g id="line2d_30">
    <path d="M 68.765497 297.185241 
L 535.747315 297.185241 
L 535.747315 297.185241 
" clip-path="url(#p71e70751b1)" style="fill: none; stroke: #9467bd; stroke-width: 1.5; stroke-linecap: square"/>
   </g>
   <g id="line2d_31">
    <path d="M 68.765497 123.148878 
L 76.958161 135.147691 
L 85.150824 146.717976 
L 93.343488 157.859732 
L 101.536151 168.572958 
L 108.558434 177.414649 
L 115.580717 185.941503 
L 122.603 194.153519 
L 129.625283 202.050697 
L 136.647566 209.633038 
L 143.669849 216.900541 
L 150.692132 223.853206 
L 157.714415 230.491034 
L 164.736698 236.814024 
L 171.758981 242.822176 
L 178.781264 248.515491 
L 185.803547 253.893968 
L 192.82583 258.957607 
L 199.848113 263.706409 
L 206.870396 268.140373 
L 212.722298 271.594842 
L 218.574201 274.830673 
L 224.426103 277.847868 
L 230.278006 280.646425 
L 236.129908 283.226345 
L 241.981811 285.587627 
L 247.833713 287.730273 
L 253.685616 289.654281 
L 259.537518 291.359651 
L 265.389421 292.846385 
L 271.241323 294.114481 
L 277.093226 295.16394 
L 282.945128 295.994762 
L 288.797031 296.606946 
L 294.648933 297.000493 
L 300.500836 297.175403 
L 306.352738 297.131675 
L 312.20464 296.869311 
L 318.056543 296.388309 
L 323.908445 295.688669 
L 329.760348 294.770393 
L 335.61225 293.633479 
L 341.464153 292.277928 
L 347.316055 290.703739 
L 353.167958 288.910914 
L 359.01986 286.899451 
L 364.871763 284.669351 
L 370.723665 282.220613 
L 376.575568 279.553238 
L 382.42747 276.667226 
L 388.279373 273.562577 
L 394.131275 270.239291 
L 399.983178 266.697367 
L 407.005461 262.158457 
L 414.027744 257.304709 
L 421.050027 252.136124 
L 428.07231 246.652701 
L 435.094593 240.854441 
L 442.116876 234.741343 
L 449.139159 228.313407 
L 456.161442 221.570633 
L 463.183725 214.513022 
L 470.206008 207.140573 
L 477.228291 199.453287 
L 484.250573 191.451162 
L 491.272856 183.1342 
L 498.295139 174.502401 
L 505.317422 165.555764 
L 512.339705 156.294289 
L 520.532369 145.091315 
L 528.725032 133.459812 
L 535.747315 123.148878 
L 535.747315 123.148878 
" clip-path="url(#p71e70751b1)" style="fill: none; stroke: #1f77b4; stroke-width: 2; stroke-linecap: square"/>
   </g>
   <g id="line2d_32">
    <path d="M 45.416406 210.16706 
L 559.096406 210.16706 
" clip-path="url(#p71e70751b1)" style="fill: none; stroke: #000000; stroke-width: 0.8; stroke-linecap: square"/>
   </g>
   <g id="line2d_33">
    <path d="M 467.359411 310.237969 
L 467.359411 23.077969 
" clip-path="url(#p71e70751b1)" style="fill: none; stroke-dasharray: 0.9,1.485; stroke-dashoffset: 0; stroke: #808080; stroke-width: 0.9"/>
   </g>
   <g id="line2d_34">
    <path d="M 137.153401 310.237969 
L 137.153401 23.077969 
" clip-path="url(#p71e70751b1)" style="fill: none; stroke-dasharray: 0.9,1.485; stroke-dashoffset: 0; stroke: #808080; stroke-width: 0.9"/>
   </g>
   <g id="patch_3">
    <path d="M 45.416406 310.237969 
L 45.416406 23.077969 
" style="fill: none; stroke: #000000; stroke-width: 0.8; stroke-linejoin: miter; stroke-linecap: square"/>
   </g>
   <g id="patch_4">
    <path d="M 559.096406 310.237969 
L 559.096406 23.077969 
" style="fill: none; stroke: #000000; stroke-width: 0.8; stroke-linejoin: miter; stroke-linecap: square"/>
   </g>
   <g id="patch_5">
    <path d="M 45.416406 310.237969 
L 559.096406 310.237969 
" style="fill: none; stroke: #000000; stroke-width: 0.8; stroke-linejoin: miter; stroke-linecap: square"/>
   </g>
   <g id="patch_6">
    <path d="M 45.416406 23.077969 
L 559.096406 23.077969 
" style="fill: none; stroke: #000000; stroke-width: 0.8; stroke-linejoin: miter; stroke-linecap: square"/>
   </g>
   <g id="text_17">
    <text style="font-size: 9px; font-family: 'DejaVu Sans', 'Bitstream Vera Sans', 'Computer Modern Sans Serif', 'Lucida Grande', 'Verdana', 'Geneva', 'Lucid', 'Arial', 'Helvetica', 'Avant Garde', sans-serif; text-anchor: start" x="473.196684" y="155.780696" transform="rotate(-0 473.196684 155.780696)">порог: RV = IV</text>
   </g>
   <g id="text_18">
    <text style="font-size: 13px; font-family: 'DejaVu Sans', 'Bitstream Vera Sans', 'Computer Modern Sans Serif', 'Lucida Grande', 'Verdana', 'Geneva', 'Lucid', 'Arial', 'Helvetica', 'Avant Garde', sans-serif; text-anchor: middle" x="302.256406" y="17.077969" transform="rotate(-0 302.256406 17.077969)">Дельта-хедж: gamma против theta (в плюсе, если RV &gt; IV)</text>
   </g>
   <g id="legend_1">
    <g id="patch_7">
     <path d="M 210.966719 81.380547 
L 393.546094 81.380547 
Q 395.746094 81.380547 395.746094 79.180547 
L 395.746094 30.777969 
Q 395.746094 28.577969 393.546094 28.577969 
L 210.966719 28.577969 
Q 208.766719 28.577969 208.766719 30.777969 
L 208.766719 79.180547 
Q 208.766719 81.380547 210.966719 81.380547 
z
" style="fill: #ffffff; opacity: 0.8; stroke: #cccccc; stroke-linejoin: miter"/>
    </g>
    <g id="line2d_35">
     <path d="M 213.166719 37.48625 
L 224.166719 37.48625 
L 235.166719 37.48625 
" style="fill: none; stroke: #2ca02c; stroke-width: 1.5; stroke-linecap: square"/>
    </g>
    <g id="text_19">
     <text style="font-size: 11px; font-family: 'DejaVu Sans', 'Bitstream Vera Sans', 'Computer Modern Sans Serif', 'Lucida Grande', 'Verdana', 'Geneva', 'Lucid', 'Arial', 'Helvetica', 'Avant Garde', sans-serif; text-anchor: start" x="243.966719" y="41.33625" transform="rotate(-0 243.966719 41.33625)">Gamma-PnL = ½·Γ·dS²</text>
    </g>
    <g id="line2d_36">
     <path d="M 213.166719 53.987109 
L 224.166719 53.987109 
L 235.166719 53.987109 
" style="fill: none; stroke: #9467bd; stroke-width: 1.5; stroke-linecap: square"/>
    </g>
    <g id="text_20">
     <text style="font-size: 11px; font-family: 'DejaVu Sans', 'Bitstream Vera Sans', 'Computer Modern Sans Serif', 'Lucida Grande', 'Verdana', 'Geneva', 'Lucid', 'Arial', 'Helvetica', 'Avant Garde', sans-serif; text-anchor: start" x="243.966719" y="57.837109" transform="rotate(-0 243.966719 57.837109)">Theta-PnL = Θ·dt (расход)</text>
    </g>
    <g id="line2d_37">
     <path d="M 213.166719 70.487969 
L 224.166719 70.487969 
L 235.166719 70.487969 
" style="fill: none; stroke: #1f77b4; stroke-width: 2; stroke-linecap: square"/>
    </g>
    <g id="text_21">
     <text style="font-size: 11px; font-family: 'DejaVu Sans', 'Bitstream Vera Sans', 'Computer Modern Sans Serif', 'Lucida Grande', 'Verdana', 'Geneva', 'Lucid', 'Arial', 'Helvetica', 'Avant Garde', sans-serif; text-anchor: start" x="243.966719" y="74.337969" transform="rotate(-0 243.966719 74.337969)">Итог (long gamma)</text>
    </g>
   </g>
  </g>
 </g>
 <defs>
  <clipPath id="p71e70751b1">
   <rect x="45.416406" y="23.077969" width="513.68" height="287.16"/>
  </clipPath>
 </defs>
</svg>
