<?xml version="1.0" encoding="utf-8" standalone="no"?>
<!DOCTYPE svg PUBLIC "-//W3C//DTD SVG 1.1//EN"
  "http://www.w3.org/Graphics/SVG/1.1/DTD/svg11.dtd">
<svg xmlns:xlink="http://www.w3.org/1999/xlink" width="566.2375pt" height="350.436953pt" viewBox="0 0 566.2375 350.436953" xmlns="http://www.w3.org/2000/svg" version="1.1">
 <metadata>
  <rdf:RDF xmlns:dc="http://purl.org/dc/elements/1.1/" xmlns:cc="http://creativecommons.org/ns#" xmlns:rdf="http://www.w3.org/1999/02/22-rdf-syntax-ns#">
   <cc:Work>
    <dc:type rdf:resource="http://purl.org/dc/dcmitype/StillImage"/>
    <dc:date>2026-07-09T16:59:11.857707</dc:date>
    <dc:format>image/svg+xml</dc:format>
    <dc:creator>
     <cc:Agent>
      <dc:title>Matplotlib v3.11.0, https://matplotlib.org/</dc:title>
     </cc:Agent>
    </dc:creator>
   </cc:Work>
  </rdf:RDF>
 </metadata>
 <defs>
  <style type="text/css">*{stroke-linejoin: round; stroke-linecap: butt}</style>
 </defs>
 <g id="figure_1">
  <g id="patch_1">
   <path d="M 0 350.436953 
L 566.2375 350.436953 
L 566.2375 0 
L 0 0 
z
" style="fill: #ffffff"/>
  </g>
  <g id="axes_1">
   <g id="patch_2">
    <path d="M 43.1975 310.236953 
L 559.0375 310.236953 
L 559.0375 23.076953 
L 43.1975 23.076953 
z
" style="fill: #ffffff"/>
   </g>
   <g id="FillBetweenPolyCollection_1">
    <defs>
     <path id="m5cedac7a14" d="M 66.644773 -63.467419 
L 66.644773 -53.252727 
L 67.820075 -53.252727 
L 68.995377 -53.252727 
L 70.170678 -53.252727 
L 71.34598 -53.252727 
L 72.521282 -53.252727 
L 73.696584 -53.252727 
L 74.871886 -53.252727 
L 76.047188 -53.252727 
L 77.22249 -53.252727 
L 78.397792 -53.252727 
L 79.573094 -53.252727 
L 80.748395 -53.252727 
L 81.923697 -53.252727 
L 83.098999 -53.252727 
L 84.274301 -53.252727 
L 85.449603 -53.252727 
L 86.624905 -53.252727 
L 87.800207 -53.252727 
L 88.975509 -53.252727 
L 90.150811 -53.252727 
L 91.326112 -53.252727 
L 92.501414 -53.252727 
L 93.676716 -53.252727 
L 94.852018 -53.252727 
L 96.02732 -53.252727 
L 97.202622 -53.252727 
L 98.377924 -53.252727 
L 99.553226 -53.252727 
L 100.728528 -53.252727 
L 101.903829 -53.252727 
L 103.079131 -53.252727 
L 104.254433 -53.252727 
L 105.429735 -53.252727 
L 106.605037 -53.252727 
L 107.780339 -53.252727 
L 108.955641 -53.252727 
L 110.130943 -53.252727 
L 111.306245 -53.252727 
L 112.481546 -53.252727 
L 113.656848 -53.252727 
L 114.83215 -53.252727 
L 116.007452 -53.252727 
L 117.182754 -53.252727 
L 118.358056 -53.252727 
L 119.533358 -53.252727 
L 120.70866 -53.252727 
L 121.883962 -53.252727 
L 123.059263 -53.252727 
L 124.234565 -53.252727 
L 125.409867 -53.252727 
L 126.585169 -53.252727 
L 127.760471 -53.252727 
L 128.935773 -53.252727 
L 130.111075 -53.252727 
L 131.286377 -53.252727 
L 132.461679 -53.252727 
L 133.636981 -53.252727 
L 134.812282 -53.252727 
L 135.987584 -53.252727 
L 137.162886 -53.252727 
L 138.338188 -53.252727 
L 139.51349 -53.252727 
L 140.688792 -53.252727 
L 141.864094 -53.252727 
L 143.039396 -53.252727 
L 144.214698 -53.252727 
L 145.389999 -53.252727 
L 146.565301 -53.252727 
L 147.740603 -53.252727 
L 148.915905 -53.252727 
L 150.091207 -53.252727 
L 151.266509 -53.252727 
L 152.441811 -53.252727 
L 153.617113 -53.252727 
L 154.792415 -53.252727 
L 155.967716 -53.252727 
L 157.143018 -53.252727 
L 158.31832 -53.252727 
L 159.493622 -53.252727 
L 160.668924 -53.252727 
L 161.844226 -53.252727 
L 163.019528 -53.252727 
L 164.19483 -53.252727 
L 165.370132 -53.252727 
L 166.545433 -53.252727 
L 167.720735 -53.252727 
L 168.896037 -53.252727 
L 170.071339 -53.252727 
L 171.246641 -53.252727 
L 172.421943 -53.252727 
L 173.597245 -53.252727 
L 174.772547 -53.252727 
L 175.947849 -53.252727 
L 177.12315 -53.252727 
L 178.298452 -53.252727 
L 179.473754 -53.252727 
L 180.649056 -53.252727 
L 181.824358 -53.252727 
L 182.99966 -53.252727 
L 184.174962 -53.252727 
L 185.350264 -53.252727 
L 186.525566 -53.252727 
L 187.700868 -53.252727 
L 188.876169 -53.252727 
L 190.051471 -53.252727 
L 191.226773 -53.252727 
L 192.402075 -53.252727 
L 193.577377 -53.252727 
L 194.752679 -53.252727 
L 195.927981 -53.252727 
L 197.103283 -53.252727 
L 198.278585 -53.252727 
L 199.453886 -53.252727 
L 200.629188 -53.252727 
L 201.80449 -53.252727 
L 202.979792 -53.252727 
L 204.155094 -53.252727 
L 205.330396 -53.252727 
L 206.505698 -53.252727 
L 207.681 -53.252727 
L 208.856302 -53.252727 
L 210.031603 -53.252727 
L 211.206905 -53.252727 
L 212.382207 -53.252727 
L 213.557509 -53.252727 
L 214.732811 -53.252727 
L 215.908113 -53.252727 
L 217.083415 -53.252727 
L 218.258717 -53.252727 
L 219.434019 -53.252727 
L 220.60932 -53.252727 
L 221.784622 -53.252727 
L 222.959924 -53.252727 
L 224.135226 -53.252727 
L 225.310528 -53.252727 
L 226.48583 -53.252727 
L 227.661132 -53.252727 
L 228.836434 -53.252727 
L 230.011736 -53.252727 
L 231.187037 -53.252727 
L 232.362339 -53.252727 
L 233.537641 -53.252727 
L 234.712943 -53.252727 
L 235.888245 -53.252727 
L 237.063547 -53.252727 
L 238.238849 -53.252727 
L 239.414151 -53.252727 
L 240.589453 -53.252727 
L 241.764754 -53.252727 
L 242.940056 -53.252727 
L 244.115358 -53.252727 
L 245.29066 -53.252727 
L 246.465962 -53.252727 
L 247.641264 -53.252727 
L 248.816566 -53.252727 
L 249.991868 -53.252727 
L 251.16717 -53.252727 
L 252.342472 -53.252727 
L 253.517773 -53.252727 
L 254.693075 -53.252727 
L 255.868377 -53.252727 
L 257.043679 -53.252727 
L 258.218981 -53.252727 
L 259.394283 -53.252727 
L 260.569585 -53.252727 
L 261.744887 -53.252727 
L 262.920189 -53.252727 
L 264.09549 -53.252727 
L 265.270792 -53.252727 
L 266.446094 -53.252727 
L 267.621396 -53.252727 
L 268.796698 -53.252727 
L 269.972 -53.252727 
L 271.147302 -53.252727 
L 272.322604 -53.252727 
L 273.497906 -53.252727 
L 274.673207 -53.252727 
L 275.848509 -53.252727 
L 277.023811 -53.252727 
L 278.199113 -53.252727 
L 279.374415 -53.252727 
L 280.549717 -53.252727 
L 281.725019 -53.252727 
L 282.900321 -53.252727 
L 284.075623 -53.252727 
L 285.250924 -53.252727 
L 286.426226 -53.252727 
L 287.601528 -53.252727 
L 288.77683 -53.252727 
L 289.952132 -53.252727 
L 291.127434 -53.252727 
L 292.302736 -53.252727 
L 293.478038 -53.252727 
L 294.65334 -53.252727 
L 295.828641 -53.252727 
L 297.003943 -53.252727 
L 298.179245 -53.252727 
L 299.354547 -53.252727 
L 300.529849 -53.252727 
L 301.705151 -53.821312 
L 302.880453 -54.95848 
L 304.055755 -56.095649 
L 305.231057 -57.232818 
L 306.406359 -58.369986 
L 307.58166 -59.507155 
L 308.756962 -60.644324 
L 309.932264 -61.781493 
L 311.107566 -62.918661 
L 312.282868 -64.05583 
L 313.45817 -65.192999 
L 314.633472 -66.330167 
L 315.808774 -67.467336 
L 316.984076 -68.604505 
L 318.159377 -69.741673 
L 319.334679 -70.878842 
L 320.509981 -72.016011 
L 321.685283 -73.15318 
L 322.860585 -74.290348 
L 324.035887 -75.427517 
L 325.211189 -76.564686 
L 326.386491 -77.701854 
L 327.561793 -78.839023 
L 328.737094 -79.976192 
L 329.912396 -81.11336 
L 331.087698 -82.250529 
L 332.263 -83.387698 
L 333.438302 -84.524867 
L 334.613604 -85.662035 
L 335.788906 -86.799204 
L 336.964208 -87.936373 
L 338.13951 -89.073541 
L 339.314811 -90.21071 
L 340.490113 -91.347879 
L 341.665415 -92.485048 
L 342.840717 -93.622216 
L 344.016019 -94.759385 
L 345.191321 -95.896554 
L 346.366623 -97.033722 
L 347.541925 -98.170891 
L 348.717227 -99.30806 
L 349.892528 -100.445228 
L 351.06783 -101.582397 
L 352.243132 -102.719566 
L 353.418434 -103.856735 
L 354.593736 -104.993903 
L 355.769038 -106.131072 
L 356.94434 -107.268241 
L 358.119642 -108.405409 
L 359.294944 -109.542578 
L 360.470246 -110.679747 
L 361.645547 -111.816915 
L 362.820849 -112.954084 
L 363.996151 -114.091253 
L 365.171453 -115.228422 
L 366.346755 -116.36559 
L 367.522057 -117.502759 
L 368.697359 -118.639928 
L 369.872661 -119.777096 
L 371.047963 -120.914265 
L 372.223264 -122.051434 
L 373.398566 -123.188602 
L 374.573868 -124.325771 
L 375.74917 -125.46294 
L 376.924472 -126.600109 
L 378.099774 -127.737277 
L 379.275076 -128.874446 
L 380.450378 -130.011615 
L 381.62568 -131.148783 
L 382.800981 -132.285952 
L 383.976283 -133.423121 
L 385.151585 -134.560289 
L 386.326887 -135.697458 
L 387.502189 -136.834627 
L 388.677491 -137.971796 
L 389.852793 -139.108964 
L 391.028095 -140.246133 
L 392.203397 -141.383302 
L 393.378698 -142.52047 
L 394.554 -143.657639 
L 395.729302 -144.794808 
L 396.904604 -145.931977 
L 398.079906 -147.069145 
L 399.255208 -148.206314 
L 400.43051 -149.343483 
L 401.605812 -150.480651 
L 402.781114 -151.61782 
L 403.956415 -152.754989 
L 405.131717 -153.892157 
L 406.307019 -155.029326 
L 407.482321 -156.166495 
L 408.657623 -157.303664 
L 409.832925 -158.440832 
L 411.008227 -159.578001 
L 412.183529 -160.71517 
L 413.358831 -161.852338 
L 414.534132 -162.989507 
L 415.709434 -164.126676 
L 416.884736 -165.263844 
L 418.060038 -166.401013 
L 419.23534 -167.538182 
L 420.410642 -168.675351 
L 421.585944 -169.812519 
L 422.761246 -170.949688 
L 423.936548 -172.086857 
L 425.11185 -173.224025 
L 426.287151 -174.361194 
L 427.462453 -175.498363 
L 428.637755 -176.635531 
L 429.813057 -177.7727 
L 430.988359 -178.909869 
L 432.163661 -180.047038 
L 433.338963 -181.184206 
L 434.514265 -182.321375 
L 435.689567 -183.458544 
L 436.864868 -184.595712 
L 438.04017 -185.732881 
L 439.215472 -186.87005 
L 440.390774 -188.007219 
L 441.566076 -189.144387 
L 442.741378 -190.281556 
L 443.91668 -191.418725 
L 445.091982 -192.555893 
L 446.267284 -193.693062 
L 447.442585 -194.830231 
L 448.617887 -195.967399 
L 449.793189 -197.104568 
L 450.968491 -198.241737 
L 452.143793 -199.378906 
L 453.319095 -200.516074 
L 454.494397 -201.653243 
L 455.669699 -202.790412 
L 456.845001 -203.92758 
L 458.020302 -205.064749 
L 459.195604 -206.201918 
L 460.370906 -207.339086 
L 461.546208 -208.476255 
L 462.72151 -209.613424 
L 463.896812 -210.750593 
L 465.072114 -211.887761 
L 466.247416 -213.02493 
L 467.422718 -214.162099 
L 468.598019 -215.299267 
L 469.773321 -216.436436 
L 470.948623 -217.573605 
L 472.123925 -218.710773 
L 473.299227 -219.847942 
L 474.474529 -220.985111 
L 475.649831 -222.12228 
L 476.825133 -223.259448 
L 478.000435 -224.396617 
L 479.175737 -225.533786 
L 480.351038 -226.670954 
L 481.52634 -227.808123 
L 482.701642 -228.945292 
L 483.876944 -230.08246 
L 485.052246 -231.219629 
L 486.227548 -232.356798 
L 487.40285 -233.493967 
L 488.578152 -234.631135 
L 489.753454 -235.768304 
L 490.928755 -236.905473 
L 492.104057 -238.042641 
L 493.279359 -239.17981 
L 494.454661 -240.316979 
L 495.629963 -241.454148 
L 496.805265 -242.591316 
L 497.980567 -243.728485 
L 499.155869 -244.865654 
L 500.331171 -246.002822 
L 501.506472 -247.139991 
L 502.681774 -248.27716 
L 503.857076 -249.414328 
L 505.032378 -250.551497 
L 506.20768 -251.688666 
L 507.382982 -252.825835 
L 508.558284 -253.963003 
L 509.733586 -255.100172 
L 510.908888 -256.237341 
L 512.084189 -257.374509 
L 513.259491 -258.511678 
L 514.434793 -259.648847 
L 515.610095 -260.786015 
L 516.785397 -261.923184 
L 517.960699 -263.060353 
L 519.136001 -264.197522 
L 520.311303 -265.33469 
L 521.486605 -266.471859 
L 522.661906 -267.609028 
L 523.837208 -268.746196 
L 525.01251 -269.883365 
L 526.187812 -271.020534 
L 527.363114 -272.157702 
L 528.538416 -273.294871 
L 529.713718 -274.43204 
L 530.88902 -275.569209 
L 532.064322 -276.706377 
L 533.239623 -277.843546 
L 534.414925 -278.980715 
L 535.590227 -280.117883 
L 535.590227 -314.307273 
L 535.590227 -314.307273 
L 534.414925 -313.349556 
L 533.239623 -312.392768 
L 532.064322 -311.436913 
L 530.88902 -310.481995 
L 529.713718 -309.52802 
L 528.538416 -308.57499 
L 527.363114 -307.622912 
L 526.187812 -306.67179 
L 525.01251 -305.721628 
L 523.837208 -304.77243 
L 522.661906 -303.824202 
L 521.486605 -302.876948 
L 520.311303 -301.930673 
L 519.136001 -300.985382 
L 517.960699 -300.041078 
L 516.785397 -299.097768 
L 515.610095 -298.155454 
L 514.434793 -297.214144 
L 513.259491 -296.27384 
L 512.084189 -295.334548 
L 510.908888 -294.396273 
L 509.733586 -293.45902 
L 508.558284 -292.522792 
L 507.382982 -291.587596 
L 506.20768 -290.653436 
L 505.032378 -289.720317 
L 503.857076 -288.788244 
L 502.681774 -287.857221 
L 501.506472 -286.927254 
L 500.331171 -285.998348 
L 499.155869 -285.070508 
L 497.980567 -284.143738 
L 496.805265 -283.218043 
L 495.629963 -282.29343 
L 494.454661 -281.369902 
L 493.279359 -280.447465 
L 492.104057 -279.526123 
L 490.928755 -278.605883 
L 489.753454 -277.686749 
L 488.578152 -276.768726 
L 487.40285 -275.851819 
L 486.227548 -274.936034 
L 485.052246 -274.021375 
L 483.876944 -273.107848 
L 482.701642 -272.195459 
L 481.52634 -271.284212 
L 480.351038 -270.374112 
L 479.175737 -269.465165 
L 478.000435 -268.557377 
L 476.825133 -267.650752 
L 475.649831 -266.745295 
L 474.474529 -265.841013 
L 473.299227 -264.937911 
L 472.123925 -264.035993 
L 470.948623 -263.135265 
L 469.773321 -262.235733 
L 468.598019 -261.337402 
L 467.422718 -260.440278 
L 466.247416 -259.544366 
L 465.072114 -258.649671 
L 463.896812 -257.756199 
L 462.72151 -256.863956 
L 461.546208 -255.972946 
L 460.370906 -255.083176 
L 459.195604 -254.194651 
L 458.020302 -253.307377 
L 456.845001 -252.421359 
L 455.669699 -251.536603 
L 454.494397 -250.653114 
L 453.319095 -249.770898 
L 452.143793 -248.889961 
L 450.968491 -248.010309 
L 449.793189 -247.131947 
L 448.617887 -246.25488 
L 447.442585 -245.379115 
L 446.267284 -244.504658 
L 445.091982 -243.631513 
L 443.91668 -242.759687 
L 442.741378 -241.889186 
L 441.566076 -241.020015 
L 440.390774 -240.152181 
L 439.215472 -239.285688 
L 438.04017 -238.420543 
L 436.864868 -237.556752 
L 435.689567 -236.694321 
L 434.514265 -235.833255 
L 433.338963 -234.97356 
L 432.163661 -234.115243 
L 430.988359 -233.258309 
L 429.813057 -232.402764 
L 428.637755 -231.548614 
L 427.462453 -230.695865 
L 426.287151 -229.844524 
L 425.11185 -228.994596 
L 423.936548 -228.146086 
L 422.761246 -227.299002 
L 421.585944 -226.45335 
L 420.410642 -225.609134 
L 419.23534 -224.766362 
L 418.060038 -223.925039 
L 416.884736 -223.085172 
L 415.709434 -222.246766 
L 414.534132 -221.409829 
L 413.358831 -220.574365 
L 412.183529 -219.740381 
L 411.008227 -218.907884 
L 409.832925 -218.076879 
L 408.657623 -217.247373 
L 407.482321 -216.419371 
L 406.307019 -215.59288 
L 405.131717 -214.767907 
L 403.956415 -213.944458 
L 402.781114 -213.122538 
L 401.605812 -212.302154 
L 400.43051 -211.483312 
L 399.255208 -210.666019 
L 398.079906 -209.850281 
L 396.904604 -209.036104 
L 395.729302 -208.223494 
L 394.554 -207.412459 
L 393.378698 -206.603003 
L 392.203397 -205.795135 
L 391.028095 -204.988859 
L 389.852793 -204.184182 
L 388.677491 -203.381111 
L 387.502189 -202.579652 
L 386.326887 -201.779811 
L 385.151585 -200.981595 
L 383.976283 -200.18501 
L 382.800981 -199.390063 
L 381.62568 -198.596761 
L 380.450378 -197.805108 
L 379.275076 -197.015113 
L 378.099774 -196.226781 
L 376.924472 -195.440119 
L 375.74917 -194.655134 
L 374.573868 -193.871831 
L 373.398566 -193.090218 
L 372.223264 -192.3103 
L 371.047963 -191.532085 
L 369.872661 -190.755579 
L 368.697359 -189.980788 
L 367.522057 -189.207719 
L 366.346755 -188.436378 
L 365.171453 -187.666772 
L 363.996151 -186.898908 
L 362.820849 -186.132791 
L 361.645547 -185.36843 
L 360.470246 -184.605829 
L 359.294944 -183.844996 
L 358.119642 -183.085937 
L 356.94434 -182.328659 
L 355.769038 -181.573168 
L 354.593736 -180.819471 
L 353.418434 -180.067574 
L 352.243132 -179.317485 
L 351.06783 -178.569209 
L 349.892528 -177.822753 
L 348.717227 -177.078124 
L 347.541925 -176.335328 
L 346.366623 -175.594372 
L 345.191321 -174.855262 
L 344.016019 -174.118006 
L 342.840717 -173.382609 
L 341.665415 -172.649078 
L 340.490113 -171.91742 
L 339.314811 -171.187641 
L 338.13951 -170.459748 
L 336.964208 -169.733748 
L 335.788906 -169.009646 
L 334.613604 -168.28745 
L 333.438302 -167.567166 
L 332.263 -166.848801 
L 331.087698 -166.132361 
L 329.912396 -165.417853 
L 328.737094 -164.705284 
L 327.561793 -163.994659 
L 326.386491 -163.285986 
L 325.211189 -162.57927 
L 324.035887 -161.874519 
L 322.860585 -161.171739 
L 321.685283 -160.470937 
L 320.509981 -159.772118 
L 319.334679 -159.07529 
L 318.159377 -158.380459 
L 316.984076 -157.687632 
L 315.808774 -156.996814 
L 314.633472 -156.308013 
L 313.45817 -155.621235 
L 312.282868 -154.936486 
L 311.107566 -154.253773 
L 309.932264 -153.573102 
L 308.756962 -152.894479 
L 307.58166 -152.217912 
L 306.406359 -151.543406 
L 305.231057 -150.870967 
L 304.055755 -150.200603 
L 302.880453 -149.532319 
L 301.705151 -148.866122 
L 300.529849 -148.202018 
L 299.354547 -147.540013 
L 298.179245 -146.880115 
L 297.003943 -146.222328 
L 295.828641 -145.566659 
L 294.65334 -144.913115 
L 293.478038 -144.261701 
L 292.302736 -143.612425 
L 291.127434 -142.965291 
L 289.952132 -142.320307 
L 288.77683 -141.677478 
L 287.601528 -141.03681 
L 286.426226 -140.398311 
L 285.250924 -139.761984 
L 284.075623 -139.127838 
L 282.900321 -138.495878 
L 281.725019 -137.866109 
L 280.549717 -137.238538 
L 279.374415 -136.613171 
L 278.199113 -135.990014 
L 277.023811 -135.369072 
L 275.848509 -134.750352 
L 274.673207 -134.13386 
L 273.497906 -133.5196 
L 272.322604 -132.90758 
L 271.147302 -132.297805 
L 269.972 -131.69028 
L 268.796698 -131.085012 
L 267.621396 -130.482006 
L 266.446094 -129.881267 
L 265.270792 -129.282803 
L 264.09549 -128.686617 
L 262.920189 -128.092715 
L 261.744887 -127.501104 
L 260.569585 -126.911788 
L 259.394283 -126.324774 
L 258.218981 -125.740066 
L 257.043679 -125.15767 
L 255.868377 -124.577592 
L 254.693075 -123.999836 
L 253.517773 -123.424408 
L 252.342472 -122.851313 
L 251.16717 -122.280557 
L 249.991868 -121.712145 
L 248.816566 -121.146081 
L 247.641264 -120.582371 
L 246.465962 -120.021021 
L 245.29066 -119.462034 
L 244.115358 -118.905416 
L 242.940056 -118.351172 
L 241.764754 -117.799307 
L 240.589453 -117.249825 
L 239.414151 -116.702732 
L 238.238849 -116.158032 
L 237.063547 -115.61573 
L 235.888245 -115.075831 
L 234.712943 -114.538339 
L 233.537641 -114.003258 
L 232.362339 -113.470594 
L 231.187037 -112.94035 
L 230.011736 -112.412532 
L 228.836434 -111.887142 
L 227.661132 -111.364187 
L 226.48583 -110.84367 
L 225.310528 -110.325595 
L 224.135226 -109.809966 
L 222.959924 -109.296788 
L 221.784622 -108.786064 
L 220.60932 -108.277799 
L 219.434019 -107.771996 
L 218.258717 -107.26866 
L 217.083415 -106.767793 
L 215.908113 -106.2694 
L 214.732811 -105.773485 
L 213.557509 -105.28005 
L 212.382207 -104.789101 
L 211.206905 -104.300639 
L 210.031603 -103.814669 
L 208.856302 -103.331194 
L 207.681 -102.850217 
L 206.505698 -102.371742 
L 205.330396 -101.895771 
L 204.155094 -101.422307 
L 202.979792 -100.951355 
L 201.80449 -100.482916 
L 200.629188 -100.016993 
L 199.453886 -99.55359 
L 198.278585 -99.092709 
L 197.103283 -98.634353 
L 195.927981 -98.178524 
L 194.752679 -97.725225 
L 193.577377 -97.274458 
L 192.402075 -96.826226 
L 191.226773 -96.380531 
L 190.051471 -95.937375 
L 188.876169 -95.49676 
L 187.700868 -95.058689 
L 186.525566 -94.623163 
L 185.350264 -94.190184 
L 184.174962 -93.759754 
L 182.99966 -93.331875 
L 181.824358 -92.906548 
L 180.649056 -92.483775 
L 179.473754 -92.063558 
L 178.298452 -91.645898 
L 177.12315 -91.230795 
L 175.947849 -90.818252 
L 174.772547 -90.40827 
L 173.597245 -90.000848 
L 172.421943 -89.59599 
L 171.246641 -89.193694 
L 170.071339 -88.793963 
L 168.896037 -88.396796 
L 167.720735 -88.002195 
L 166.545433 -87.61016 
L 165.370132 -87.22069 
L 164.19483 -86.833787 
L 163.019528 -86.449451 
L 161.844226 -86.067682 
L 160.668924 -85.688479 
L 159.493622 -85.311843 
L 158.31832 -84.937773 
L 157.143018 -84.56627 
L 155.967716 -84.197332 
L 154.792415 -83.83096 
L 153.617113 -83.467152 
L 152.441811 -83.105908 
L 151.266509 -82.747228 
L 150.091207 -82.391109 
L 148.915905 -82.037552 
L 147.740603 -81.686555 
L 146.565301 -81.338117 
L 145.389999 -80.992236 
L 144.214698 -80.648912 
L 143.039396 -80.308142 
L 141.864094 -79.969924 
L 140.688792 -79.634258 
L 139.51349 -79.301141 
L 138.338188 -78.970571 
L 137.162886 -78.642547 
L 135.987584 -78.317065 
L 134.812282 -77.994123 
L 133.636981 -77.67372 
L 132.461679 -77.355852 
L 131.286377 -77.040516 
L 130.111075 -76.727711 
L 128.935773 -76.417433 
L 127.760471 -76.109679 
L 126.585169 -75.804445 
L 125.409867 -75.50173 
L 124.234565 -75.201528 
L 123.059263 -74.903837 
L 121.883962 -74.608654 
L 120.70866 -74.315973 
L 119.533358 -74.025792 
L 118.358056 -73.738106 
L 117.182754 -73.452912 
L 116.007452 -73.170205 
L 114.83215 -72.88998 
L 113.656848 -72.612234 
L 112.481546 -72.336961 
L 111.306245 -72.064157 
L 110.130943 -71.793817 
L 108.955641 -71.525936 
L 107.780339 -71.260509 
L 106.605037 -70.997531 
L 105.429735 -70.736996 
L 104.254433 -70.478899 
L 103.079131 -70.223234 
L 101.903829 -69.969996 
L 100.728528 -69.719178 
L 99.553226 -69.470774 
L 98.377924 -69.22478 
L 97.202622 -68.981187 
L 96.02732 -68.73999 
L 94.852018 -68.501183 
L 93.676716 -68.264758 
L 92.501414 -68.030709 
L 91.326112 -67.79903 
L 90.150811 -67.569712 
L 88.975509 -67.342749 
L 87.800207 -67.118134 
L 86.624905 -66.895858 
L 85.449603 -66.675916 
L 84.274301 -66.458298 
L 83.098999 -66.242998 
L 81.923697 -66.030006 
L 80.748395 -65.819316 
L 79.573094 -65.610919 
L 78.397792 -65.404807 
L 77.22249 -65.200971 
L 76.047188 -64.999402 
L 74.871886 -64.800092 
L 73.696584 -64.603033 
L 72.521282 -64.408215 
L 71.34598 -64.215629 
L 70.170678 -64.025265 
L 68.995377 -63.837116 
L 67.820075 -63.65117 
L 66.644773 -63.467419 
z
" style="stroke: #1f77b4; stroke-opacity: 0.15"/>
    </defs>
    <g clip-path="url(#p42820ab080)">
     <use xlink:href="#m5cedac7a14" x="0" y="350.436953" style="fill: #1f77b4; fill-opacity: 0.15; stroke: #1f77b4; stroke-opacity: 0.15"/>
    </g>
   </g>
   <g id="matplotlib.axis_1">
    <g id="xtick_1">
     <g id="line2d_1">
      <path d="M 66.644773 310.236953 
L 66.644773 23.076953 
" clip-path="url(#p42820ab080)" style="fill: none; stroke: #b0b0b0; stroke-opacity: 0.3; stroke-width: 0.8; stroke-linecap: square"/>
     </g>
     <g id="line2d_2">
      <defs>
       <path id="m6d3b225beb" d="M 0 0 
L 0 3.5 
" style="stroke: #000000; stroke-width: 0.8"/>
      </defs>
      <g>
       <use xlink:href="#m6d3b225beb" x="66.644773" y="310.236953" style="stroke: #000000; stroke-width: 0.8"/>
      </g>
     </g>
     <g id="text_1">
      <text style="font-size: 11px; font-family: 'DejaVu Sans', 'Bitstream Vera Sans', 'Computer Modern Sans Serif', 'Lucida Grande', 'Verdana', 'Geneva', 'Lucid', 'Arial', 'Helvetica', 'Avant Garde', sans-serif; text-anchor: middle" x="66.644773" y="325.594375" transform="rotate(-0 66.644773 325.594375)">60</text>
     </g>
    </g>
    <g id="xtick_2">
     <g id="line2d_3">
      <path d="M 125.262955 310.236953 
L 125.262955 23.076953 
" clip-path="url(#p42820ab080)" style="fill: none; stroke: #b0b0b0; stroke-opacity: 0.3; stroke-width: 0.8; stroke-linecap: square"/>
     </g>
     <g id="line2d_4">
      <g>
       <use xlink:href="#m6d3b225beb" x="125.262955" y="310.236953" style="stroke: #000000; stroke-width: 0.8"/>
      </g>
     </g>
     <g id="text_2">
      <text style="font-size: 11px; font-family: 'DejaVu Sans', 'Bitstream Vera Sans', 'Computer Modern Sans Serif', 'Lucida Grande', 'Verdana', 'Geneva', 'Lucid', 'Arial', 'Helvetica', 'Avant Garde', sans-serif; text-anchor: middle" x="125.262955" y="325.594375" transform="rotate(-0 125.262955 325.594375)">70</text>
     </g>
    </g>
    <g id="xtick_3">
     <g id="line2d_5">
      <path d="M 183.881136 310.236953 
L 183.881136 23.076953 
" clip-path="url(#p42820ab080)" style="fill: none; stroke: #b0b0b0; stroke-opacity: 0.3; stroke-width: 0.8; stroke-linecap: square"/>
     </g>
     <g id="line2d_6">
      <g>
       <use xlink:href="#m6d3b225beb" x="183.881136" y="310.236953" style="stroke: #000000; stroke-width: 0.8"/>
      </g>
     </g>
     <g id="text_3">
      <text style="font-size: 11px; font-family: 'DejaVu Sans', 'Bitstream Vera Sans', 'Computer Modern Sans Serif', 'Lucida Grande', 'Verdana', 'Geneva', 'Lucid', 'Arial', 'Helvetica', 'Avant Garde', sans-serif; text-anchor: middle" x="183.881136" y="325.594375" transform="rotate(-0 183.881136 325.594375)">80</text>
     </g>
    </g>
    <g id="xtick_4">
     <g id="line2d_7">
      <path d="M 242.499318 310.236953 
L 242.499318 23.076953 
" clip-path="url(#p42820ab080)" style="fill: none; stroke: #b0b0b0; stroke-opacity: 0.3; stroke-width: 0.8; stroke-linecap: square"/>
     </g>
     <g id="line2d_8">
      <g>
       <use xlink:href="#m6d3b225beb" x="242.499318" y="310.236953" style="stroke: #000000; stroke-width: 0.8"/>
      </g>
     </g>
     <g id="text_4">
      <text style="font-size: 11px; font-family: 'DejaVu Sans', 'Bitstream Vera Sans', 'Computer Modern Sans Serif', 'Lucida Grande', 'Verdana', 'Geneva', 'Lucid', 'Arial', 'Helvetica', 'Avant Garde', sans-serif; text-anchor: middle" x="242.499318" y="325.594375" transform="rotate(-0 242.499318 325.594375)">90</text>
     </g>
    </g>
    <g id="xtick_5">
     <g id="line2d_9">
      <path d="M 301.1175 310.236953 
L 301.1175 23.076953 
" clip-path="url(#p42820ab080)" style="fill: none; stroke: #b0b0b0; stroke-opacity: 0.3; stroke-width: 0.8; stroke-linecap: square"/>
     </g>
     <g id="line2d_10">
      <g>
       <use xlink:href="#m6d3b225beb" x="301.1175" y="310.236953" style="stroke: #000000; stroke-width: 0.8"/>
      </g>
     </g>
     <g id="text_5">
      <text style="font-size: 11px; font-family: 'DejaVu Sans', 'Bitstream Vera Sans', 'Computer Modern Sans Serif', 'Lucida Grande', 'Verdana', 'Geneva', 'Lucid', 'Arial', 'Helvetica', 'Avant Garde', sans-serif; text-anchor: middle" x="301.1175" y="325.594375" transform="rotate(-0 301.1175 325.594375)">100</text>
     </g>
    </g>
    <g id="xtick_6">
     <g id="line2d_11">
      <path d="M 359.735682 310.236953 
L 359.735682 23.076953 
" clip-path="url(#p42820ab080)" style="fill: none; stroke: #b0b0b0; stroke-opacity: 0.3; stroke-width: 0.8; stroke-linecap: square"/>
     </g>
     <g id="line2d_12">
      <g>
       <use xlink:href="#m6d3b225beb" x="359.735682" y="310.236953" style="stroke: #000000; stroke-width: 0.8"/>
      </g>
     </g>
     <g id="text_6">
      <text style="font-size: 11px; font-family: 'DejaVu Sans', 'Bitstream Vera Sans', 'Computer Modern Sans Serif', 'Lucida Grande', 'Verdana', 'Geneva', 'Lucid', 'Arial', 'Helvetica', 'Avant Garde', sans-serif; text-anchor: middle" x="359.735682" y="325.594375" transform="rotate(-0 359.735682 325.594375)">110</text>
     </g>
    </g>
    <g id="xtick_7">
     <g id="line2d_13">
      <path d="M 418.353864 310.236953 
L 418.353864 23.076953 
" clip-path="url(#p42820ab080)" style="fill: none; stroke: #b0b0b0; stroke-opacity: 0.3; stroke-width: 0.8; stroke-linecap: square"/>
     </g>
     <g id="line2d_14">
      <g>
       <use xlink:href="#m6d3b225beb" x="418.353864" y="310.236953" style="stroke: #000000; stroke-width: 0.8"/>
      </g>
     </g>
     <g id="text_7">
      <text style="font-size: 11px; font-family: 'DejaVu Sans', 'Bitstream Vera Sans', 'Computer Modern Sans Serif', 'Lucida Grande', 'Verdana', 'Geneva', 'Lucid', 'Arial', 'Helvetica', 'Avant Garde', sans-serif; text-anchor: middle" x="418.353864" y="325.594375" transform="rotate(-0 418.353864 325.594375)">120</text>
     </g>
    </g>
    <g id="xtick_8">
     <g id="line2d_15">
      <path d="M 476.972045 310.236953 
L 476.972045 23.076953 
" clip-path="url(#p42820ab080)" style="fill: none; stroke: #b0b0b0; stroke-opacity: 0.3; stroke-width: 0.8; stroke-linecap: square"/>
     </g>
     <g id="line2d_16">
      <g>
       <use xlink:href="#m6d3b225beb" x="476.972045" y="310.236953" style="stroke: #000000; stroke-width: 0.8"/>
      </g>
     </g>
     <g id="text_8">
      <text style="font-size: 11px; font-family: 'DejaVu Sans', 'Bitstream Vera Sans', 'Computer Modern Sans Serif', 'Lucida Grande', 'Verdana', 'Geneva', 'Lucid', 'Arial', 'Helvetica', 'Avant Garde', sans-serif; text-anchor: middle" x="476.972045" y="325.594375" transform="rotate(-0 476.972045 325.594375)">130</text>
     </g>
    </g>
    <g id="xtick_9">
     <g id="line2d_17">
      <path d="M 535.590227 310.236953 
L 535.590227 23.076953 
" clip-path="url(#p42820ab080)" style="fill: none; stroke: #b0b0b0; stroke-opacity: 0.3; stroke-width: 0.8; stroke-linecap: square"/>
     </g>
     <g id="line2d_18">
      <g>
       <use xlink:href="#m6d3b225beb" x="535.590227" y="310.236953" style="stroke: #000000; stroke-width: 0.8"/>
      </g>
     </g>
     <g id="text_9">
      <text style="font-size: 11px; font-family: 'DejaVu Sans', 'Bitstream Vera Sans', 'Computer Modern Sans Serif', 'Lucida Grande', 'Verdana', 'Geneva', 'Lucid', 'Arial', 'Helvetica', 'Avant Garde', sans-serif; text-anchor: middle" x="535.590227" y="325.594375" transform="rotate(-0 535.590227 325.594375)">140</text>
     </g>
    </g>
    <g id="text_10">
     <text style="font-size: 11px; font-family: 'DejaVu Sans', 'Bitstream Vera Sans', 'Computer Modern Sans Serif', 'Lucida Grande', 'Verdana', 'Geneva', 'Lucid', 'Arial', 'Helvetica', 'Avant Garde', sans-serif; text-anchor: middle" x="301.1175" y="340.594375" transform="rotate(-0 301.1175 340.594375)">Цена актива S</text>
    </g>
   </g>
   <g id="matplotlib.axis_2">
    <g id="ytick_1">
     <g id="line2d_19">
      <path d="M 43.1975 297.184226 
L 559.0375 297.184226 
" clip-path="url(#p42820ab080)" style="fill: none; stroke: #b0b0b0; stroke-opacity: 0.3; stroke-width: 0.8; stroke-linecap: square"/>
     </g>
     <g id="line2d_20">
      <defs>
       <path id="me7dc137217" d="M 0 0 
L -3.5 0 
" style="stroke: #000000; stroke-width: 0.8"/>
      </defs>
      <g>
       <use xlink:href="#me7dc137217" x="43.1975" y="297.184226" style="stroke: #000000; stroke-width: 0.8"/>
      </g>
     </g>
     <g id="text_11">
      <text style="font-size: 11px; font-family: 'DejaVu Sans', 'Bitstream Vera Sans', 'Computer Modern Sans Serif', 'Lucida Grande', 'Verdana', 'Geneva', 'Lucid', 'Arial', 'Helvetica', 'Avant Garde', sans-serif; text-anchor: end" x="36.1975" y="301.362937" transform="rotate(-0 36.1975 301.362937)">0</text>
     </g>
    </g>
    <g id="ytick_2">
     <g id="line2d_21">
      <path d="M 43.1975 240.467937 
L 559.0375 240.467937 
" clip-path="url(#p42820ab080)" style="fill: none; stroke: #b0b0b0; stroke-opacity: 0.3; stroke-width: 0.8; stroke-linecap: square"/>
     </g>
     <g id="line2d_22">
      <g>
       <use xlink:href="#me7dc137217" x="43.1975" y="240.467937" style="stroke: #000000; stroke-width: 0.8"/>
      </g>
     </g>
     <g id="text_12">
      <text style="font-size: 11px; font-family: 'DejaVu Sans', 'Bitstream Vera Sans', 'Computer Modern Sans Serif', 'Lucida Grande', 'Verdana', 'Geneva', 'Lucid', 'Arial', 'Helvetica', 'Avant Garde', sans-serif; text-anchor: end" x="36.1975" y="244.646648" transform="rotate(-0 36.1975 244.646648)">10</text>
     </g>
    </g>
    <g id="ytick_3">
     <g id="line2d_23">
      <path d="M 43.1975 183.751648 
L 559.0375 183.751648 
" clip-path="url(#p42820ab080)" style="fill: none; stroke: #b0b0b0; stroke-opacity: 0.3; stroke-width: 0.8; stroke-linecap: square"/>
     </g>
     <g id="line2d_24">
      <g>
       <use xlink:href="#me7dc137217" x="43.1975" y="183.751648" style="stroke: #000000; stroke-width: 0.8"/>
      </g>
     </g>
     <g id="text_13">
      <text style="font-size: 11px; font-family: 'DejaVu Sans', 'Bitstream Vera Sans', 'Computer Modern Sans Serif', 'Lucida Grande', 'Verdana', 'Geneva', 'Lucid', 'Arial', 'Helvetica', 'Avant Garde', sans-serif; text-anchor: end" x="36.1975" y="187.930359" transform="rotate(-0 36.1975 187.930359)">20</text>
     </g>
    </g>
    <g id="ytick_4">
     <g id="line2d_25">
      <path d="M 43.1975 127.035359 
L 559.0375 127.035359 
" clip-path="url(#p42820ab080)" style="fill: none; stroke: #b0b0b0; stroke-opacity: 0.3; stroke-width: 0.8; stroke-linecap: square"/>
     </g>
     <g id="line2d_26">
      <g>
       <use xlink:href="#me7dc137217" x="43.1975" y="127.035359" style="stroke: #000000; stroke-width: 0.8"/>
      </g>
     </g>
     <g id="text_14">
      <text style="font-size: 11px; font-family: 'DejaVu Sans', 'Bitstream Vera Sans', 'Computer Modern Sans Serif', 'Lucida Grande', 'Verdana', 'Geneva', 'Lucid', 'Arial', 'Helvetica', 'Avant Garde', sans-serif; text-anchor: end" x="36.1975" y="131.21407" transform="rotate(-0 36.1975 131.21407)">30</text>
     </g>
    </g>
    <g id="ytick_5">
     <g id="line2d_27">
      <path d="M 43.1975 70.31907 
L 559.0375 70.31907 
" clip-path="url(#p42820ab080)" style="fill: none; stroke: #b0b0b0; stroke-opacity: 0.3; stroke-width: 0.8; stroke-linecap: square"/>
     </g>
     <g id="line2d_28">
      <g>
       <use xlink:href="#me7dc137217" x="43.1975" y="70.31907" style="stroke: #000000; stroke-width: 0.8"/>
      </g>
     </g>
     <g id="text_15">
      <text style="font-size: 11px; font-family: 'DejaVu Sans', 'Bitstream Vera Sans', 'Computer Modern Sans Serif', 'Lucida Grande', 'Verdana', 'Geneva', 'Lucid', 'Arial', 'Helvetica', 'Avant Garde', sans-serif; text-anchor: end" x="36.1975" y="74.497781" transform="rotate(-0 36.1975 74.497781)">40</text>
     </g>
    </g>
    <g id="text_16">
     <text style="font-size: 11px; font-family: 'DejaVu Sans', 'Bitstream Vera Sans', 'Computer Modern Sans Serif', 'Lucida Grande', 'Verdana', 'Geneva', 'Lucid', 'Arial', 'Helvetica', 'Avant Garde', sans-serif; text-anchor: middle" x="15.557422" y="166.656953" transform="rotate(-90 15.557422 166.656953)">Стоимость опциона</text>
    </g>
   </g>
   <g id="line2d_29">
    <path d="M 66.644773 297.184226 
L 300.529849 297.184226 
L 301.705151 296.615642 
L 535.590227 70.31907 
L 535.590227 70.31907 
" clip-path="url(#p42820ab080)" style="fill: none; stroke-dasharray: 5.55,2.4; stroke-dashoffset: 0; stroke: #000000; stroke-width: 1.5"/>
   </g>
   <g id="line2d_30">
    <path d="M 66.644773 286.969534 
L 78.397792 285.032146 
L 90.150811 282.867241 
L 101.903829 280.466958 
L 113.656848 277.824719 
L 125.409867 274.935223 
L 137.162886 271.794407 
L 148.915905 268.399401 
L 160.668924 264.748474 
L 172.421943 260.840963 
L 184.174962 256.677199 
L 195.927981 252.258429 
L 207.681 247.586736 
L 219.434019 242.664957 
L 231.187037 237.496603 
L 242.940056 232.085781 
L 254.693075 226.437117 
L 266.446094 220.555686 
L 279.374415 213.823782 
L 292.302736 206.824529 
L 305.231057 199.565986 
L 318.159377 192.056494 
L 331.087698 184.304592 
L 345.191321 175.581691 
L 359.294944 166.591957 
L 373.398566 157.346735 
L 388.677491 147.055842 
L 403.956415 136.492496 
L 419.23534 125.670591 
L 435.689567 113.742633 
L 452.143793 101.546992 
L 469.773321 88.20122 
L 487.40285 74.585134 
L 506.20768 59.783517 
L 526.187812 43.765163 
L 535.590227 36.12968 
L 535.590227 36.12968 
" clip-path="url(#p42820ab080)" style="fill: none; stroke: #1f77b4; stroke-width: 1.5; stroke-linecap: square"/>
   </g>
   <g id="line2d_31">
    <path d="M 301.1175 310.236953 
L 301.1175 23.076953 
" clip-path="url(#p42820ab080)" style="fill: none; stroke-dasharray: 2.96,1.28; stroke-dashoffset: 0; stroke: #808080; stroke-width: 0.8"/>
   </g>
   <g id="patch_3">
    <path d="M 43.1975 310.236953 
L 43.1975 23.076953 
" style="fill: none; stroke: #000000; stroke-width: 0.8; stroke-linejoin: miter; stroke-linecap: square"/>
   </g>
   <g id="patch_4">
    <path d="M 559.0375 310.236953 
L 559.0375 23.076953 
" style="fill: none; stroke: #000000; stroke-width: 0.8; stroke-linejoin: miter; stroke-linecap: square"/>
   </g>
   <g id="patch_5">
    <path d="M 43.1975 310.236953 
L 559.0375 310.236953 
" style="fill: none; stroke: #000000; stroke-width: 0.8; stroke-linejoin: miter; stroke-linecap: square"/>
   </g>
   <g id="patch_6">
    <path d="M 43.1975 23.076953 
L 559.0375 23.076953 
" style="fill: none; stroke: #000000; stroke-width: 0.8; stroke-linejoin: miter; stroke-linecap: square"/>
   </g>
   <g id="text_17">
    <text style="font-size: 13px; font-family: 'DejaVu Sans', 'Bitstream Vera Sans', 'Computer Modern Sans Serif', 'Lucida Grande', 'Verdana', 'Geneva', 'Lucid', 'Arial', 'Helvetica', 'Avant Garde', sans-serif; text-anchor: middle" x="301.1175" y="17.076953" transform="rotate(-0 301.1175 17.076953)">Цена опциона = внутренняя + временная стоимость (выпуклость)</text>
   </g>
   <g id="legend_1">
    <g id="patch_7">
     <path d="M 50.8975 81.379531 
L 288.875625 81.379531 
Q 291.075625 81.379531 291.075625 79.179531 
L 291.075625 30.776953 
Q 291.075625 28.576953 288.875625 28.576953 
L 50.8975 28.576953 
Q 48.6975 28.576953 48.6975 30.776953 
L 48.6975 79.179531 
Q 48.6975 81.379531 50.8975 81.379531 
z
" style="fill: #ffffff; opacity: 0.8; stroke: #cccccc; stroke-linejoin: miter"/>
    </g>
    <g id="line2d_32">
     <path d="M 53.0975 37.485234 
L 64.0975 37.485234 
L 75.0975 37.485234 
" style="fill: none; stroke-dasharray: 5.55,2.4; stroke-dashoffset: 0; stroke: #000000; stroke-width: 1.5"/>
    </g>
    <g id="text_18">
     <text style="font-size: 11px; font-family: 'DejaVu Sans', 'Bitstream Vera Sans', 'Computer Modern Sans Serif', 'Lucida Grande', 'Verdana', 'Geneva', 'Lucid', 'Arial', 'Helvetica', 'Avant Garde', sans-serif; text-anchor: start" x="83.8975" y="41.335234" transform="rotate(-0 83.8975 41.335234)">Внутренняя стоимость max(S−K,0)</text>
    </g>
    <g id="line2d_33">
     <path d="M 53.0975 53.986094 
L 64.0975 53.986094 
L 75.0975 53.986094 
" style="fill: none; stroke: #1f77b4; stroke-width: 1.5; stroke-linecap: square"/>
    </g>
    <g id="text_19">
     <text style="font-size: 11px; font-family: 'DejaVu Sans', 'Bitstream Vera Sans', 'Computer Modern Sans Serif', 'Lucida Grande', 'Verdana', 'Geneva', 'Lucid', 'Arial', 'Helvetica', 'Avant Garde', sans-serif; text-anchor: start" x="83.8975" y="57.836094" transform="rotate(-0 83.8975 57.836094)">Цена колла по BS (T=0.5, σ=60%)</text>
    </g>
    <g id="patch_8">
     <path d="M 53.0975 74.336953 
L 75.0975 74.336953 
L 75.0975 66.636953 
L 53.0975 66.636953 
z
" style="fill: #1f77b4; fill-opacity: 0.15; stroke: #1f77b4; stroke-opacity: 0.15; stroke-linejoin: miter"/>
    </g>
    <g id="text_20">
     <text style="font-size: 11px; font-family: 'DejaVu Sans', 'Bitstream Vera Sans', 'Computer Modern Sans Serif', 'Lucida Grande', 'Verdana', 'Geneva', 'Lucid', 'Arial', 'Helvetica', 'Avant Garde', sans-serif; text-anchor: start" x="83.8975" y="74.336953" transform="rotate(-0 83.8975 74.336953)">Временная стоимость</text>
    </g>
   </g>
  </g>
 </g>
 <defs>
  <clipPath id="p42820ab080">
   <rect x="43.1975" y="23.076953" width="515.84" height="287.16"/>
  </clipPath>
 </defs>
</svg>
